G04 #@! TF.GenerationSoftware,KiCad,Pcbnew,5.1.5+dfsg1-2build2*
G04 #@! TF.CreationDate,2020-12-13T22:45:39+09:00*
G04 #@! TF.ProjectId,Klipper,4b6c6970-7065-4722-9e6b-696361645f70,rev?*
G04 #@! TF.SameCoordinates,Original*
G04 #@! TF.FileFunction,Legend,Top*
G04 #@! TF.FilePolarity,Positive*
%FSLAX46Y46*%
G04 Gerber Fmt 4.6, Leading zero omitted, Abs format (unit mm)*
G04 Created by KiCad (PCBNEW 5.1.5+dfsg1-2build2) date 2020-12-13 22:45:39*
%MOMM*%
%LPD*%
G04 APERTURE LIST*
%ADD10C,0.150000*%
%ADD11C,0.120000*%
G04 APERTURE END LIST*
D10*
X-755476Y-51362380D02*
X-88809Y-51362380D01*
X-517380Y-52362380D01*
X815952Y-52362380D02*
X244523Y-52362380D01*
X530238Y-52362380D02*
X530238Y-51362380D01*
X435000Y-51505238D01*
X339761Y-51600476D01*
X244523Y-51648095D01*
X1244523Y-52267142D02*
X1292142Y-52314761D01*
X1244523Y-52362380D01*
X1196904Y-52314761D01*
X1244523Y-52267142D01*
X1244523Y-52362380D01*
X1863571Y-51790952D02*
X1768333Y-51743333D01*
X1720714Y-51695714D01*
X1673095Y-51600476D01*
X1673095Y-51552857D01*
X1720714Y-51457619D01*
X1768333Y-51410000D01*
X1863571Y-51362380D01*
X2054047Y-51362380D01*
X2149285Y-51410000D01*
X2196904Y-51457619D01*
X2244523Y-51552857D01*
X2244523Y-51600476D01*
X2196904Y-51695714D01*
X2149285Y-51743333D01*
X2054047Y-51790952D01*
X1863571Y-51790952D01*
X1768333Y-51838571D01*
X1720714Y-51886190D01*
X1673095Y-51981428D01*
X1673095Y-52171904D01*
X1720714Y-52267142D01*
X1768333Y-52314761D01*
X1863571Y-52362380D01*
X2054047Y-52362380D01*
X2149285Y-52314761D01*
X2196904Y-52267142D01*
X2244523Y-52171904D01*
X2244523Y-51981428D01*
X2196904Y-51886190D01*
X2149285Y-51838571D01*
X2054047Y-51790952D01*
X2577857Y-51362380D02*
X3244523Y-51362380D01*
X2815952Y-52362380D01*
X3815952Y-51362380D02*
X3911190Y-51362380D01*
X4006428Y-51410000D01*
X4054047Y-51457619D01*
X4101666Y-51552857D01*
X4149285Y-51743333D01*
X4149285Y-51981428D01*
X4101666Y-52171904D01*
X4054047Y-52267142D01*
X4006428Y-52314761D01*
X3911190Y-52362380D01*
X3815952Y-52362380D01*
X3720714Y-52314761D01*
X3673095Y-52267142D01*
X3625476Y-52171904D01*
X3577857Y-51981428D01*
X3577857Y-51743333D01*
X3625476Y-51552857D01*
X3673095Y-51457619D01*
X3720714Y-51410000D01*
X3815952Y-51362380D01*
X5339761Y-52362380D02*
X5339761Y-51695714D01*
X5339761Y-51790952D02*
X5387380Y-51743333D01*
X5482619Y-51695714D01*
X5625476Y-51695714D01*
X5720714Y-51743333D01*
X5768333Y-51838571D01*
X5768333Y-52362380D01*
X5768333Y-51838571D02*
X5815952Y-51743333D01*
X5911190Y-51695714D01*
X6054047Y-51695714D01*
X6149285Y-51743333D01*
X6196904Y-51838571D01*
X6196904Y-52362380D01*
X6673095Y-52362380D02*
X6673095Y-51695714D01*
X6673095Y-51790952D02*
X6720714Y-51743333D01*
X6815952Y-51695714D01*
X6958809Y-51695714D01*
X7054047Y-51743333D01*
X7101666Y-51838571D01*
X7101666Y-52362380D01*
X7101666Y-51838571D02*
X7149285Y-51743333D01*
X7244523Y-51695714D01*
X7387380Y-51695714D01*
X7482619Y-51743333D01*
X7530238Y-51838571D01*
X7530238Y-52362380D01*
D11*
X-32500000Y-50640000D02*
X39370000Y-50640000D01*
X-32500000Y-45250000D02*
X-32500000Y-51226421D01*
X39370000Y-45250000D02*
X39370000Y-51226421D01*
X39370000Y-50640000D02*
X38243496Y-51226421D01*
X39370000Y-50640000D02*
X38243496Y-50053579D01*
X-32500000Y-50640000D02*
X-31373496Y-51226421D01*
X-32500000Y-50640000D02*
X-31373496Y-50053579D01*
D10*
X79827380Y-3797619D02*
X79827380Y-3607142D01*
X79779761Y-3511904D01*
X79732142Y-3464285D01*
X79589285Y-3369047D01*
X79398809Y-3321428D01*
X79017857Y-3321428D01*
X78922619Y-3369047D01*
X78875000Y-3416666D01*
X78827380Y-3511904D01*
X78827380Y-3702380D01*
X78875000Y-3797619D01*
X78922619Y-3845238D01*
X79017857Y-3892857D01*
X79255952Y-3892857D01*
X79351190Y-3845238D01*
X79398809Y-3797619D01*
X79446428Y-3702380D01*
X79446428Y-3511904D01*
X79398809Y-3416666D01*
X79351190Y-3369047D01*
X79255952Y-3321428D01*
X79827380Y-2369047D02*
X79827380Y-2940476D01*
X79827380Y-2654761D02*
X78827380Y-2654761D01*
X78970238Y-2750000D01*
X79065476Y-2845238D01*
X79113095Y-2940476D01*
X79732142Y-1940476D02*
X79779761Y-1892857D01*
X79827380Y-1940476D01*
X79779761Y-1988095D01*
X79732142Y-1940476D01*
X79827380Y-1940476D01*
X78827380Y-1273809D02*
X78827380Y-1178571D01*
X78875000Y-1083333D01*
X78922619Y-1035714D01*
X79017857Y-988095D01*
X79208333Y-940476D01*
X79446428Y-940476D01*
X79636904Y-988095D01*
X79732142Y-1035714D01*
X79779761Y-1083333D01*
X79827380Y-1178571D01*
X79827380Y-1273809D01*
X79779761Y-1369047D01*
X79732142Y-1416666D01*
X79636904Y-1464285D01*
X79446428Y-1511904D01*
X79208333Y-1511904D01*
X79017857Y-1464285D01*
X78922619Y-1416666D01*
X78875000Y-1369047D01*
X78827380Y-1273809D01*
X78827380Y-321428D02*
X78827380Y-226190D01*
X78875000Y-130952D01*
X78922619Y-83333D01*
X79017857Y-35714D01*
X79208333Y11904D01*
X79446428Y11904D01*
X79636904Y-35714D01*
X79732142Y-83333D01*
X79779761Y-130952D01*
X79827380Y-226190D01*
X79827380Y-321428D01*
X79779761Y-416666D01*
X79732142Y-464285D01*
X79636904Y-511904D01*
X79446428Y-559523D01*
X79208333Y-559523D01*
X79017857Y-511904D01*
X78922619Y-464285D01*
X78875000Y-416666D01*
X78827380Y-321428D01*
X78827380Y630952D02*
X78827380Y726190D01*
X78875000Y821428D01*
X78922619Y869047D01*
X79017857Y916666D01*
X79208333Y964285D01*
X79446428Y964285D01*
X79636904Y916666D01*
X79732142Y869047D01*
X79779761Y821428D01*
X79827380Y726190D01*
X79827380Y630952D01*
X79779761Y535714D01*
X79732142Y488095D01*
X79636904Y440476D01*
X79446428Y392857D01*
X79208333Y392857D01*
X79017857Y440476D01*
X78922619Y488095D01*
X78875000Y535714D01*
X78827380Y630952D01*
X79827380Y2154761D02*
X79160714Y2154761D01*
X79255952Y2154761D02*
X79208333Y2202380D01*
X79160714Y2297619D01*
X79160714Y2440476D01*
X79208333Y2535714D01*
X79303571Y2583333D01*
X79827380Y2583333D01*
X79303571Y2583333D02*
X79208333Y2630952D01*
X79160714Y2726190D01*
X79160714Y2869047D01*
X79208333Y2964285D01*
X79303571Y3011904D01*
X79827380Y3011904D01*
X79827380Y3488095D02*
X79160714Y3488095D01*
X79255952Y3488095D02*
X79208333Y3535714D01*
X79160714Y3630952D01*
X79160714Y3773809D01*
X79208333Y3869047D01*
X79303571Y3916666D01*
X79827380Y3916666D01*
X79303571Y3916666D02*
X79208333Y3964285D01*
X79160714Y4059523D01*
X79160714Y4202380D01*
X79208333Y4297619D01*
X79303571Y4345238D01*
X79827380Y4345238D01*
D11*
X78105000Y-45250000D02*
X78105000Y45750000D01*
X-32500000Y-45250000D02*
X78691421Y-45250000D01*
X-32500000Y45750000D02*
X78691421Y45750000D01*
X78105000Y45750000D02*
X78691421Y44623496D01*
X78105000Y45750000D02*
X77518579Y44623496D01*
X78105000Y-45250000D02*
X78691421Y-44123496D01*
X78105000Y-45250000D02*
X77518579Y-44123496D01*
X16130000Y-15670000D02*
X16130000Y-8770000D01*
X19430000Y-15670000D02*
X19430000Y-8770000D01*
X16130000Y-15670000D02*
X19430000Y-15670000D01*
X12445000Y-6915000D02*
X12445000Y-13815000D01*
X9145000Y-6915000D02*
X9145000Y-13815000D01*
X12445000Y-6915000D02*
X9145000Y-6915000D01*
X-17720000Y-16410000D02*
X-19050000Y-16410000D01*
X-17720000Y-15080000D02*
X-17720000Y-16410000D01*
X-20320000Y-16410000D02*
X-22920000Y-16410000D01*
X-20320000Y-13810000D02*
X-20320000Y-16410000D01*
X-17720000Y-13810000D02*
X-20320000Y-13810000D01*
X-22920000Y-16410000D02*
X-22920000Y-6130000D01*
X-17720000Y-13810000D02*
X-17720000Y-6130000D01*
X-17720000Y-6130000D02*
X-22920000Y-6130000D01*
X-16200000Y39320000D02*
X-16200000Y40570000D01*
X-17450000Y39320000D02*
X-16200000Y39320000D01*
X-23350000Y44820000D02*
X-20300000Y44820000D01*
X-23350000Y41870000D02*
X-23350000Y44820000D01*
X-24100000Y41870000D02*
X-23350000Y41870000D01*
X-17250000Y44820000D02*
X-20300000Y44820000D01*
X-17250000Y41870000D02*
X-17250000Y44820000D01*
X-16500000Y41870000D02*
X-17250000Y41870000D01*
X-24100000Y39620000D02*
X-22300000Y39620000D01*
X-24100000Y40370000D02*
X-24100000Y39620000D01*
X-22300000Y40370000D02*
X-24100000Y40370000D01*
X-22300000Y39620000D02*
X-22300000Y40370000D01*
X-18300000Y39620000D02*
X-16500000Y39620000D01*
X-18300000Y40370000D02*
X-18300000Y39620000D01*
X-16500000Y40370000D02*
X-18300000Y40370000D01*
X-16500000Y39620000D02*
X-16500000Y40370000D01*
X-20800000Y39620000D02*
X-19800000Y39620000D01*
X-20800000Y40370000D02*
X-20800000Y39620000D01*
X-19800000Y40370000D02*
X-20800000Y40370000D01*
X-19800000Y39620000D02*
X-19800000Y40370000D01*
X-24110000Y39610000D02*
X-16490000Y39610000D01*
X-24110000Y45580000D02*
X-24110000Y39610000D01*
X-16490000Y45580000D02*
X-24110000Y45580000D01*
X-16490000Y39610000D02*
X-16490000Y45580000D01*
X-19522221Y-29810000D02*
X-19847779Y-29810000D01*
X-19522221Y-30830000D02*
X-19847779Y-30830000D01*
X-19674721Y-35525000D02*
X-20000279Y-35525000D01*
X-19674721Y-36545000D02*
X-20000279Y-36545000D01*
X16483750Y-24941250D02*
X16483750Y-24153750D01*
X16877500Y-24547500D02*
X16090000Y-24547500D01*
X15850000Y-20354437D02*
X14785563Y-19290000D01*
X15850000Y-25045563D02*
X14785563Y-26110000D01*
X15850000Y-25045563D02*
X15850000Y-23760000D01*
X15850000Y-20354437D02*
X15850000Y-21640000D01*
X14785563Y-19290000D02*
X9030000Y-19290000D01*
X14785563Y-26110000D02*
X9030000Y-26110000D01*
X9030000Y-26110000D02*
X9030000Y-23760000D01*
X9030000Y-19290000D02*
X9030000Y-21640000D01*
X29745000Y-23120000D02*
X29745000Y-25405000D01*
X31215000Y-23120000D02*
X29745000Y-23120000D01*
X31215000Y-25405000D02*
X31215000Y-23120000D01*
X31215000Y-34497500D02*
X31215000Y-32212500D01*
X29745000Y-34497500D02*
X31215000Y-34497500D01*
X29745000Y-32212500D02*
X29745000Y-34497500D01*
X-24135000Y35895000D02*
X-24135000Y36995000D01*
X-24405000Y35895000D02*
X-24135000Y35895000D01*
X-24405000Y34395000D02*
X-24405000Y35895000D01*
X-17775000Y35895000D02*
X-17775000Y38725000D01*
X-17505000Y35895000D02*
X-17775000Y35895000D01*
X-17505000Y34395000D02*
X-17505000Y35895000D01*
X25956000Y-20155000D02*
X27056000Y-20155000D01*
X25956000Y-19885000D02*
X25956000Y-20155000D01*
X24456000Y-19885000D02*
X25956000Y-19885000D01*
X25956000Y-26515000D02*
X28786000Y-26515000D01*
X25956000Y-26785000D02*
X25956000Y-26515000D01*
X24456000Y-26785000D02*
X25956000Y-26785000D01*
X-24135000Y19385000D02*
X-24135000Y20485000D01*
X-24405000Y19385000D02*
X-24135000Y19385000D01*
X-24405000Y17885000D02*
X-24405000Y19385000D01*
X-17775000Y19385000D02*
X-17775000Y22215000D01*
X-17505000Y19385000D02*
X-17775000Y19385000D01*
X-17505000Y17885000D02*
X-17505000Y19385000D01*
X25956000Y-30950000D02*
X27056000Y-30950000D01*
X25956000Y-30680000D02*
X25956000Y-30950000D01*
X24456000Y-30680000D02*
X25956000Y-30680000D01*
X25956000Y-37310000D02*
X28786000Y-37310000D01*
X25956000Y-37580000D02*
X25956000Y-37310000D01*
X24456000Y-37580000D02*
X25956000Y-37580000D01*
X24495000Y-18290000D02*
X21295000Y-18290000D01*
X24495000Y-4290000D02*
X21295000Y-4290000D01*
X21295000Y-12169000D02*
X21295000Y-18290000D01*
X21295000Y-4290000D02*
X21295000Y-12169000D01*
X24495000Y-6190000D02*
X24495000Y-18290000D01*
X24495000Y-4290000D02*
X24495000Y-6190000D01*
X26085000Y-16540000D02*
X26085000Y-15540000D01*
X26085000Y-16540000D02*
X27085000Y-16540000D01*
X39085000Y-16940000D02*
X25685000Y-16940000D01*
X39085000Y-540000D02*
X39085000Y-16940000D01*
X25685000Y-540000D02*
X39085000Y-540000D01*
X25685000Y-16940000D02*
X25685000Y-540000D01*
X6225000Y-8410279D02*
X6225000Y-8084721D01*
X5205000Y-8410279D02*
X5205000Y-8084721D01*
X14285279Y-27270000D02*
X13959721Y-27270000D01*
X14285279Y-28290000D02*
X13959721Y-28290000D01*
X-18200000Y26930000D02*
X-20485000Y26930000D01*
X-18200000Y25460000D02*
X-18200000Y26930000D01*
X-20485000Y25460000D02*
X-18200000Y25460000D01*
X-18352500Y10547000D02*
X-20637500Y10547000D01*
X-18352500Y9077000D02*
X-18352500Y10547000D01*
X-20637500Y9077000D02*
X-18352500Y9077000D01*
X-25952000Y-30264000D02*
X-27202000Y-30264000D01*
X-25952000Y-31514000D02*
X-25952000Y-30264000D01*
X-31452000Y-37414000D02*
X-31452000Y-34364000D01*
X-28502000Y-37414000D02*
X-31452000Y-37414000D01*
X-28502000Y-38164000D02*
X-28502000Y-37414000D01*
X-31452000Y-31314000D02*
X-31452000Y-34364000D01*
X-28502000Y-31314000D02*
X-31452000Y-31314000D01*
X-28502000Y-30564000D02*
X-28502000Y-31314000D01*
X-26252000Y-38164000D02*
X-26252000Y-36364000D01*
X-27002000Y-38164000D02*
X-26252000Y-38164000D01*
X-27002000Y-36364000D02*
X-27002000Y-38164000D01*
X-26252000Y-36364000D02*
X-27002000Y-36364000D01*
X-26252000Y-32364000D02*
X-26252000Y-30564000D01*
X-27002000Y-32364000D02*
X-26252000Y-32364000D01*
X-27002000Y-30564000D02*
X-27002000Y-32364000D01*
X-26252000Y-30564000D02*
X-27002000Y-30564000D01*
X-26252000Y-34864000D02*
X-26252000Y-33864000D01*
X-27002000Y-34864000D02*
X-26252000Y-34864000D01*
X-27002000Y-33864000D02*
X-27002000Y-34864000D01*
X-26252000Y-33864000D02*
X-27002000Y-33864000D01*
X-26242000Y-38174000D02*
X-26242000Y-30554000D01*
X-32212000Y-38174000D02*
X-26242000Y-38174000D01*
X-32212000Y-30554000D02*
X-32212000Y-38174000D01*
X-26242000Y-30554000D02*
X-32212000Y-30554000D01*
X-25952000Y-21628000D02*
X-27202000Y-21628000D01*
X-25952000Y-22878000D02*
X-25952000Y-21628000D01*
X-31452000Y-28778000D02*
X-31452000Y-25728000D01*
X-28502000Y-28778000D02*
X-31452000Y-28778000D01*
X-28502000Y-29528000D02*
X-28502000Y-28778000D01*
X-31452000Y-22678000D02*
X-31452000Y-25728000D01*
X-28502000Y-22678000D02*
X-31452000Y-22678000D01*
X-28502000Y-21928000D02*
X-28502000Y-22678000D01*
X-26252000Y-29528000D02*
X-26252000Y-27728000D01*
X-27002000Y-29528000D02*
X-26252000Y-29528000D01*
X-27002000Y-27728000D02*
X-27002000Y-29528000D01*
X-26252000Y-27728000D02*
X-27002000Y-27728000D01*
X-26252000Y-23728000D02*
X-26252000Y-21928000D01*
X-27002000Y-23728000D02*
X-26252000Y-23728000D01*
X-27002000Y-21928000D02*
X-27002000Y-23728000D01*
X-26252000Y-21928000D02*
X-27002000Y-21928000D01*
X-26252000Y-26228000D02*
X-26252000Y-25228000D01*
X-27002000Y-26228000D02*
X-26252000Y-26228000D01*
X-27002000Y-25228000D02*
X-27002000Y-26228000D01*
X-26252000Y-25228000D02*
X-27002000Y-25228000D01*
X-26242000Y-29538000D02*
X-26242000Y-21918000D01*
X-32212000Y-29538000D02*
X-26242000Y-29538000D01*
X-32212000Y-21918000D02*
X-32212000Y-29538000D01*
X-26242000Y-21918000D02*
X-32212000Y-21918000D01*
X-25952000Y4240000D02*
X-27202000Y4240000D01*
X-25952000Y2990000D02*
X-25952000Y4240000D01*
X-31452000Y-2910000D02*
X-31452000Y140000D01*
X-28502000Y-2910000D02*
X-31452000Y-2910000D01*
X-28502000Y-3660000D02*
X-28502000Y-2910000D01*
X-31452000Y3190000D02*
X-31452000Y140000D01*
X-28502000Y3190000D02*
X-31452000Y3190000D01*
X-28502000Y3940000D02*
X-28502000Y3190000D01*
X-26252000Y-3660000D02*
X-26252000Y-1860000D01*
X-27002000Y-3660000D02*
X-26252000Y-3660000D01*
X-27002000Y-1860000D02*
X-27002000Y-3660000D01*
X-26252000Y-1860000D02*
X-27002000Y-1860000D01*
X-26252000Y2140000D02*
X-26252000Y3940000D01*
X-27002000Y2140000D02*
X-26252000Y2140000D01*
X-27002000Y3940000D02*
X-27002000Y2140000D01*
X-26252000Y3940000D02*
X-27002000Y3940000D01*
X-26252000Y-360000D02*
X-26252000Y640000D01*
X-27002000Y-360000D02*
X-26252000Y-360000D01*
X-27002000Y640000D02*
X-27002000Y-360000D01*
X-26252000Y640000D02*
X-27002000Y640000D01*
X-26242000Y-3670000D02*
X-26242000Y3950000D01*
X-32212000Y-3670000D02*
X-26242000Y-3670000D01*
X-32212000Y3950000D02*
X-32212000Y-3670000D01*
X-26242000Y3950000D02*
X-32212000Y3950000D01*
X-25952000Y-4396000D02*
X-27202000Y-4396000D01*
X-25952000Y-5646000D02*
X-25952000Y-4396000D01*
X-31452000Y-11546000D02*
X-31452000Y-8496000D01*
X-28502000Y-11546000D02*
X-31452000Y-11546000D01*
X-28502000Y-12296000D02*
X-28502000Y-11546000D01*
X-31452000Y-5446000D02*
X-31452000Y-8496000D01*
X-28502000Y-5446000D02*
X-31452000Y-5446000D01*
X-28502000Y-4696000D02*
X-28502000Y-5446000D01*
X-26252000Y-12296000D02*
X-26252000Y-10496000D01*
X-27002000Y-12296000D02*
X-26252000Y-12296000D01*
X-27002000Y-10496000D02*
X-27002000Y-12296000D01*
X-26252000Y-10496000D02*
X-27002000Y-10496000D01*
X-26252000Y-6496000D02*
X-26252000Y-4696000D01*
X-27002000Y-6496000D02*
X-26252000Y-6496000D01*
X-27002000Y-4696000D02*
X-27002000Y-6496000D01*
X-26252000Y-4696000D02*
X-27002000Y-4696000D01*
X-26252000Y-8996000D02*
X-26252000Y-7996000D01*
X-27002000Y-8996000D02*
X-26252000Y-8996000D01*
X-27002000Y-7996000D02*
X-27002000Y-8996000D01*
X-26252000Y-7996000D02*
X-27002000Y-7996000D01*
X-26242000Y-12306000D02*
X-26242000Y-4686000D01*
X-32212000Y-12306000D02*
X-26242000Y-12306000D01*
X-32212000Y-4686000D02*
X-32212000Y-12306000D01*
X-26242000Y-4686000D02*
X-32212000Y-4686000D01*
X-25952000Y-13032000D02*
X-27202000Y-13032000D01*
X-25952000Y-14282000D02*
X-25952000Y-13032000D01*
X-31452000Y-20182000D02*
X-31452000Y-17132000D01*
X-28502000Y-20182000D02*
X-31452000Y-20182000D01*
X-28502000Y-20932000D02*
X-28502000Y-20182000D01*
X-31452000Y-14082000D02*
X-31452000Y-17132000D01*
X-28502000Y-14082000D02*
X-31452000Y-14082000D01*
X-28502000Y-13332000D02*
X-28502000Y-14082000D01*
X-26252000Y-20932000D02*
X-26252000Y-19132000D01*
X-27002000Y-20932000D02*
X-26252000Y-20932000D01*
X-27002000Y-19132000D02*
X-27002000Y-20932000D01*
X-26252000Y-19132000D02*
X-27002000Y-19132000D01*
X-26252000Y-15132000D02*
X-26252000Y-13332000D01*
X-27002000Y-15132000D02*
X-26252000Y-15132000D01*
X-27002000Y-13332000D02*
X-27002000Y-15132000D01*
X-26252000Y-13332000D02*
X-27002000Y-13332000D01*
X-26252000Y-17632000D02*
X-26252000Y-16632000D01*
X-27002000Y-17632000D02*
X-26252000Y-17632000D01*
X-27002000Y-16632000D02*
X-27002000Y-17632000D01*
X-26252000Y-16632000D02*
X-27002000Y-16632000D01*
X-26242000Y-20942000D02*
X-26242000Y-13322000D01*
X-32212000Y-20942000D02*
X-26242000Y-20942000D01*
X-32212000Y-13322000D02*
X-32212000Y-20942000D01*
X-26242000Y-13322000D02*
X-32212000Y-13322000D01*
X-797779Y-5430000D02*
X-472221Y-5430000D01*
X-797779Y-4410000D02*
X-472221Y-4410000D01*
X25872221Y16795000D02*
X26197779Y16795000D01*
X25872221Y17815000D02*
X26197779Y17815000D01*
X-20000279Y-34640000D02*
X-19674721Y-34640000D01*
X-20000279Y-33620000D02*
X-19674721Y-33620000D01*
X-19674721Y-31715000D02*
X-20000279Y-31715000D01*
X-19674721Y-32735000D02*
X-20000279Y-32735000D01*
X30355000Y29689721D02*
X30355000Y30015279D01*
X29335000Y29689721D02*
X29335000Y30015279D01*
X29335000Y26205279D02*
X29335000Y25879721D01*
X30355000Y26205279D02*
X30355000Y25879721D01*
X-15365000Y29359721D02*
X-15365000Y29685279D01*
X-16385000Y29359721D02*
X-16385000Y29685279D01*
X-16385000Y32860279D02*
X-16385000Y32534721D01*
X-15365000Y32860279D02*
X-15365000Y32534721D01*
X-23022779Y25685000D02*
X-22697221Y25685000D01*
X-23022779Y26705000D02*
X-22697221Y26705000D01*
X-23022779Y23145000D02*
X-22697221Y23145000D01*
X-23022779Y24165000D02*
X-22697221Y24165000D01*
X-19522221Y24165000D02*
X-19847779Y24165000D01*
X-19522221Y23145000D02*
X-19847779Y23145000D01*
X-23556279Y9302000D02*
X-23230721Y9302000D01*
X-23556279Y10322000D02*
X-23230721Y10322000D01*
X-12575000Y20795279D02*
X-12575000Y20469721D01*
X-11555000Y20795279D02*
X-11555000Y20469721D01*
X-23814721Y-21555000D02*
X-24140279Y-21555000D01*
X-23814721Y-22575000D02*
X-24140279Y-22575000D01*
X-23814721Y-23460000D02*
X-24140279Y-23460000D01*
X-23814721Y-24480000D02*
X-24140279Y-24480000D01*
X24320000Y39320000D02*
X24320000Y40570000D01*
X23070000Y39320000D02*
X24320000Y39320000D01*
X12170000Y44820000D02*
X17720000Y44820000D01*
X12170000Y41870000D02*
X12170000Y44820000D01*
X11420000Y41870000D02*
X12170000Y41870000D01*
X23270000Y44820000D02*
X17720000Y44820000D01*
X23270000Y41870000D02*
X23270000Y44820000D01*
X24020000Y41870000D02*
X23270000Y41870000D01*
X11420000Y39620000D02*
X13220000Y39620000D01*
X11420000Y40370000D02*
X11420000Y39620000D01*
X13220000Y40370000D02*
X11420000Y40370000D01*
X13220000Y39620000D02*
X13220000Y40370000D01*
X22220000Y39620000D02*
X24020000Y39620000D01*
X22220000Y40370000D02*
X22220000Y39620000D01*
X24020000Y40370000D02*
X22220000Y40370000D01*
X24020000Y39620000D02*
X24020000Y40370000D01*
X14720000Y39620000D02*
X20720000Y39620000D01*
X14720000Y40370000D02*
X14720000Y39620000D01*
X20720000Y40370000D02*
X14720000Y40370000D01*
X20720000Y39620000D02*
X20720000Y40370000D01*
X11410000Y39610000D02*
X24030000Y39610000D01*
X11410000Y45580000D02*
X11410000Y39610000D01*
X24030000Y45580000D02*
X11410000Y45580000D01*
X24030000Y39610000D02*
X24030000Y45580000D01*
X2730000Y39320000D02*
X2730000Y40570000D01*
X1480000Y39320000D02*
X2730000Y39320000D01*
X-9420000Y44820000D02*
X-3870000Y44820000D01*
X-9420000Y41870000D02*
X-9420000Y44820000D01*
X-10170000Y41870000D02*
X-9420000Y41870000D01*
X1680000Y44820000D02*
X-3870000Y44820000D01*
X1680000Y41870000D02*
X1680000Y44820000D01*
X2430000Y41870000D02*
X1680000Y41870000D01*
X-10170000Y39620000D02*
X-8370000Y39620000D01*
X-10170000Y40370000D02*
X-10170000Y39620000D01*
X-8370000Y40370000D02*
X-10170000Y40370000D01*
X-8370000Y39620000D02*
X-8370000Y40370000D01*
X630000Y39620000D02*
X2430000Y39620000D01*
X630000Y40370000D02*
X630000Y39620000D01*
X2430000Y40370000D02*
X630000Y40370000D01*
X2430000Y39620000D02*
X2430000Y40370000D01*
X-6870000Y39620000D02*
X-870000Y39620000D01*
X-6870000Y40370000D02*
X-6870000Y39620000D01*
X-870000Y40370000D02*
X-6870000Y40370000D01*
X-870000Y39620000D02*
X-870000Y40370000D01*
X-10180000Y39610000D02*
X2440000Y39610000D01*
X-10180000Y45580000D02*
X-10180000Y39610000D01*
X2440000Y45580000D02*
X-10180000Y45580000D01*
X2440000Y39610000D02*
X2440000Y45580000D01*
X2730000Y16460000D02*
X2730000Y17710000D01*
X1480000Y16460000D02*
X2730000Y16460000D01*
X-9420000Y21960000D02*
X-3870000Y21960000D01*
X-9420000Y19010000D02*
X-9420000Y21960000D01*
X-10170000Y19010000D02*
X-9420000Y19010000D01*
X1680000Y21960000D02*
X-3870000Y21960000D01*
X1680000Y19010000D02*
X1680000Y21960000D01*
X2430000Y19010000D02*
X1680000Y19010000D01*
X-10170000Y16760000D02*
X-8370000Y16760000D01*
X-10170000Y17510000D02*
X-10170000Y16760000D01*
X-8370000Y17510000D02*
X-10170000Y17510000D01*
X-8370000Y16760000D02*
X-8370000Y17510000D01*
X630000Y16760000D02*
X2430000Y16760000D01*
X630000Y17510000D02*
X630000Y16760000D01*
X2430000Y17510000D02*
X630000Y17510000D01*
X2430000Y16760000D02*
X2430000Y17510000D01*
X-6870000Y16760000D02*
X-870000Y16760000D01*
X-6870000Y17510000D02*
X-6870000Y16760000D01*
X-870000Y17510000D02*
X-6870000Y17510000D01*
X-870000Y16760000D02*
X-870000Y17510000D01*
X-10180000Y16750000D02*
X2440000Y16750000D01*
X-10180000Y22720000D02*
X-10180000Y16750000D01*
X2440000Y22720000D02*
X-10180000Y22720000D01*
X2440000Y16750000D02*
X2440000Y22720000D01*
X24320000Y16460000D02*
X24320000Y17710000D01*
X23070000Y16460000D02*
X24320000Y16460000D01*
X12170000Y21960000D02*
X17720000Y21960000D01*
X12170000Y19010000D02*
X12170000Y21960000D01*
X11420000Y19010000D02*
X12170000Y19010000D01*
X23270000Y21960000D02*
X17720000Y21960000D01*
X23270000Y19010000D02*
X23270000Y21960000D01*
X24020000Y19010000D02*
X23270000Y19010000D01*
X11420000Y16760000D02*
X13220000Y16760000D01*
X11420000Y17510000D02*
X11420000Y16760000D01*
X13220000Y17510000D02*
X11420000Y17510000D01*
X13220000Y16760000D02*
X13220000Y17510000D01*
X22220000Y16760000D02*
X24020000Y16760000D01*
X22220000Y17510000D02*
X22220000Y16760000D01*
X24020000Y17510000D02*
X22220000Y17510000D01*
X24020000Y16760000D02*
X24020000Y17510000D01*
X14720000Y16760000D02*
X20720000Y16760000D01*
X14720000Y17510000D02*
X14720000Y16760000D01*
X20720000Y17510000D02*
X14720000Y17510000D01*
X20720000Y16760000D02*
X20720000Y17510000D01*
X11410000Y16750000D02*
X24030000Y16750000D01*
X11410000Y22720000D02*
X11410000Y16750000D01*
X24030000Y22720000D02*
X11410000Y22720000D01*
X24030000Y16750000D02*
X24030000Y22720000D01*
X-8021250Y-9066250D02*
X-8021250Y-8278750D01*
X-7627500Y-8672500D02*
X-8415000Y-8672500D01*
X-8655000Y-4479437D02*
X-9719437Y-3415000D01*
X-8655000Y-9170563D02*
X-9719437Y-10235000D01*
X-8655000Y-9170563D02*
X-8655000Y-7885000D01*
X-8655000Y-4479437D02*
X-8655000Y-5765000D01*
X-9719437Y-3415000D02*
X-15475000Y-3415000D01*
X-9719437Y-10235000D02*
X-15475000Y-10235000D01*
X-15475000Y-10235000D02*
X-15475000Y-7885000D01*
X-15475000Y-3415000D02*
X-15475000Y-5765000D01*
X-15538750Y-19291250D02*
X-16326250Y-19291250D01*
X-15932500Y-18897500D02*
X-15932500Y-19685000D01*
X-20125563Y-19925000D02*
X-21190000Y-20989437D01*
X-15434437Y-19925000D02*
X-14370000Y-20989437D01*
X-15434437Y-19925000D02*
X-16720000Y-19925000D01*
X-20125563Y-19925000D02*
X-18840000Y-19925000D01*
X-21190000Y-20989437D02*
X-21190000Y-26745000D01*
X-14370000Y-20989437D02*
X-14370000Y-26745000D01*
X-14370000Y-26745000D02*
X-16720000Y-26745000D01*
X-21190000Y-26745000D02*
X-18840000Y-26745000D01*
X7646250Y34151250D02*
X7646250Y33363750D01*
X7252500Y33757500D02*
X8040000Y33757500D01*
X8280000Y29564437D02*
X9344437Y28500000D01*
X8280000Y34255563D02*
X9344437Y35320000D01*
X8280000Y34255563D02*
X8280000Y32970000D01*
X8280000Y29564437D02*
X8280000Y30850000D01*
X9344437Y28500000D02*
X15100000Y28500000D01*
X9344437Y35320000D02*
X15100000Y35320000D01*
X15100000Y35320000D02*
X15100000Y32970000D01*
X15100000Y28500000D02*
X15100000Y30850000D01*
X-13308750Y10656250D02*
X-13308750Y9868750D01*
X-13702500Y10262500D02*
X-12915000Y10262500D01*
X-12675000Y6069437D02*
X-11610563Y5005000D01*
X-12675000Y10760563D02*
X-11610563Y11825000D01*
X-12675000Y10760563D02*
X-12675000Y9475000D01*
X-12675000Y6069437D02*
X-12675000Y7355000D01*
X-11610563Y5005000D02*
X-5855000Y5005000D01*
X-11610563Y11825000D02*
X-5855000Y11825000D01*
X-5855000Y11825000D02*
X-5855000Y9475000D01*
X-5855000Y5005000D02*
X-5855000Y7355000D01*
X7646250Y10656250D02*
X7646250Y9868750D01*
X7252500Y10262500D02*
X8040000Y10262500D01*
X8280000Y6069437D02*
X9344437Y5005000D01*
X8280000Y10760563D02*
X9344437Y11825000D01*
X8280000Y10760563D02*
X8280000Y9475000D01*
X8280000Y6069437D02*
X8280000Y7355000D01*
X9344437Y5005000D02*
X15100000Y5005000D01*
X9344437Y11825000D02*
X15100000Y11825000D01*
X15100000Y11825000D02*
X15100000Y9475000D01*
X15100000Y5005000D02*
X15100000Y7355000D01*
X-13568750Y34151250D02*
X-13568750Y33363750D01*
X-13962500Y33757500D02*
X-13175000Y33757500D01*
X-12935000Y29564437D02*
X-11870563Y28500000D01*
X-12935000Y34255563D02*
X-11870563Y35320000D01*
X-12935000Y34255563D02*
X-12935000Y32970000D01*
X-12935000Y29564437D02*
X-12935000Y30850000D01*
X-11870563Y28500000D02*
X-6115000Y28500000D01*
X-11870563Y35320000D02*
X-6115000Y35320000D01*
X-6115000Y35320000D02*
X-6115000Y32970000D01*
X-6115000Y28500000D02*
X-6115000Y30850000D01*
X-25460000Y-39150000D02*
X-25460000Y-44350000D01*
X22860000Y-39150000D02*
X-25460000Y-39150000D01*
X25460000Y-44350000D02*
X-25460000Y-44350000D01*
X22860000Y-39150000D02*
X22860000Y-41750000D01*
X22860000Y-41750000D02*
X25460000Y-41750000D01*
X25460000Y-41750000D02*
X25460000Y-44350000D01*
X24130000Y-39150000D02*
X25460000Y-39150000D01*
X25460000Y-39150000D02*
X25460000Y-40480000D01*
X24190000Y-1050000D02*
X24190000Y-2380000D01*
X22860000Y-1050000D02*
X24190000Y-1050000D01*
X21590000Y-1050000D02*
X21590000Y-3710000D01*
X21590000Y-3710000D02*
X18990000Y-3710000D01*
X21590000Y-1050000D02*
X18990000Y-1050000D01*
X18990000Y-1050000D02*
X18990000Y-3710000D01*
X-3750000Y-2440000D02*
X-3750000Y220000D01*
X-6350000Y-2440000D02*
X-3750000Y-2440000D01*
X-6350000Y220000D02*
X-3750000Y220000D01*
X-6350000Y-2440000D02*
X-6350000Y220000D01*
X-7620000Y-2440000D02*
X-8950000Y-2440000D01*
X-8950000Y-2440000D02*
X-8950000Y-1110000D01*
X8950000Y21810000D02*
X8950000Y20480000D01*
X7620000Y21810000D02*
X8950000Y21810000D01*
X6350000Y21810000D02*
X6350000Y19150000D01*
X6350000Y19150000D02*
X3750000Y19150000D01*
X6350000Y21810000D02*
X3750000Y21810000D01*
X3750000Y21810000D02*
X3750000Y19150000D01*
X30540000Y20420000D02*
X30540000Y23080000D01*
X27940000Y20420000D02*
X30540000Y20420000D01*
X27940000Y23080000D02*
X30540000Y23080000D01*
X27940000Y20420000D02*
X27940000Y23080000D01*
X26670000Y20420000D02*
X25340000Y20420000D01*
X25340000Y20420000D02*
X25340000Y21750000D01*
X25340000Y26135000D02*
X28000000Y26135000D01*
X25340000Y33815000D02*
X25340000Y26135000D01*
X28000000Y33815000D02*
X28000000Y26135000D01*
X25340000Y33815000D02*
X28000000Y33815000D01*
X25340000Y35085000D02*
X25340000Y36415000D01*
X25340000Y36415000D02*
X26670000Y36415000D01*
X22800000Y3275000D02*
X25460000Y3275000D01*
X22800000Y10955000D02*
X22800000Y3275000D01*
X25460000Y10955000D02*
X25460000Y3275000D01*
X22800000Y10955000D02*
X25460000Y10955000D01*
X22800000Y12225000D02*
X22800000Y13555000D01*
X22800000Y13555000D02*
X24130000Y13555000D01*
X3750000Y13555000D02*
X5080000Y13555000D01*
X3750000Y12225000D02*
X3750000Y13555000D01*
X3750000Y10955000D02*
X6410000Y10955000D01*
X6410000Y10955000D02*
X6410000Y3275000D01*
X3750000Y10955000D02*
X3750000Y3275000D01*
X3750000Y3275000D02*
X6410000Y3275000D01*
X3750000Y26135000D02*
X6410000Y26135000D01*
X3750000Y33815000D02*
X3750000Y26135000D01*
X6410000Y33815000D02*
X6410000Y26135000D01*
X3750000Y33815000D02*
X6410000Y33815000D01*
X3750000Y35085000D02*
X3750000Y36415000D01*
X3750000Y36415000D02*
X5080000Y36415000D01*
X7620000Y795000D02*
X7620000Y16035000D01*
X7620000Y16035000D02*
X27940000Y16035000D01*
X27940000Y16035000D02*
X27940000Y795000D01*
X27940000Y795000D02*
X7620000Y795000D01*
X6350000Y795000D02*
X-13970000Y795000D01*
X6350000Y16035000D02*
X6350000Y795000D01*
X-13970000Y16035000D02*
X6350000Y16035000D01*
X-13970000Y795000D02*
X-13970000Y16035000D01*
X-13970000Y23655000D02*
X-13970000Y38895000D01*
X-13970000Y38895000D02*
X6350000Y38895000D01*
X6350000Y38895000D02*
X6350000Y23655000D01*
X6350000Y23655000D02*
X-13970000Y23655000D01*
X27940000Y23655000D02*
X7620000Y23655000D01*
X27940000Y38895000D02*
X27940000Y23655000D01*
X7620000Y38895000D02*
X27940000Y38895000D01*
X7620000Y23655000D02*
X7620000Y38895000D01*
X17720000Y13555000D02*
X19050000Y13555000D01*
X17720000Y12225000D02*
X17720000Y13555000D01*
X20320000Y13555000D02*
X22920000Y13555000D01*
X20320000Y10955000D02*
X20320000Y13555000D01*
X17720000Y10955000D02*
X20320000Y10955000D01*
X22920000Y13555000D02*
X22920000Y3275000D01*
X17720000Y10955000D02*
X17720000Y3275000D01*
X17720000Y3275000D02*
X22920000Y3275000D01*
X-1330000Y3275000D02*
X3870000Y3275000D01*
X-1330000Y10955000D02*
X-1330000Y3275000D01*
X3870000Y13555000D02*
X3870000Y3275000D01*
X-1330000Y10955000D02*
X1270000Y10955000D01*
X1270000Y10955000D02*
X1270000Y13555000D01*
X1270000Y13555000D02*
X3870000Y13555000D01*
X-1330000Y12225000D02*
X-1330000Y13555000D01*
X-1330000Y13555000D02*
X0Y13555000D01*
X-1330000Y36415000D02*
X0Y36415000D01*
X-1330000Y35085000D02*
X-1330000Y36415000D01*
X1270000Y36415000D02*
X3870000Y36415000D01*
X1270000Y33815000D02*
X1270000Y36415000D01*
X-1330000Y33815000D02*
X1270000Y33815000D01*
X3870000Y36415000D02*
X3870000Y26135000D01*
X-1330000Y33815000D02*
X-1330000Y26135000D01*
X-1330000Y26135000D02*
X3870000Y26135000D01*
X20260000Y26135000D02*
X25460000Y26135000D01*
X20260000Y33815000D02*
X20260000Y26135000D01*
X25460000Y36415000D02*
X25460000Y26135000D01*
X20260000Y33815000D02*
X22860000Y33815000D01*
X22860000Y33815000D02*
X22860000Y36415000D01*
X22860000Y36415000D02*
X25460000Y36415000D01*
X20260000Y35085000D02*
X20260000Y36415000D01*
X20260000Y36415000D02*
X21590000Y36415000D01*
X2540000Y-3710000D02*
X2540000Y-1050000D01*
X2540000Y-3710000D02*
X17840000Y-3710000D01*
X17840000Y-3710000D02*
X17840000Y-1050000D01*
X2540000Y-1050000D02*
X17840000Y-1050000D01*
X-60000Y-1050000D02*
X1270000Y-1050000D01*
X-60000Y-2380000D02*
X-60000Y-1050000D01*
X-17330000Y24600000D02*
X-14670000Y24600000D01*
X-17330000Y24600000D02*
X-17330000Y9300000D01*
X-17330000Y9300000D02*
X-14670000Y9300000D01*
X-14670000Y24600000D02*
X-14670000Y9300000D01*
X-14670000Y27200000D02*
X-14670000Y25870000D01*
X-16000000Y27200000D02*
X-14670000Y27200000D01*
X33020000Y-28415000D02*
X33020000Y-18255000D01*
X31750000Y-28415000D02*
X39370000Y-28415000D01*
X39370000Y-28415000D02*
X39370000Y-18255000D01*
X39370000Y-18255000D02*
X31750000Y-18255000D01*
X31750000Y-18255000D02*
X31750000Y-28415000D01*
X-26035000Y22004000D02*
X-26035000Y11844000D01*
X-24765000Y22004000D02*
X-32385000Y22004000D01*
X-32385000Y22004000D02*
X-32385000Y11844000D01*
X-32385000Y11844000D02*
X-24765000Y11844000D01*
X-24765000Y11844000D02*
X-24765000Y22004000D01*
X31750000Y-29050000D02*
X31750000Y-39210000D01*
X39370000Y-29050000D02*
X31750000Y-29050000D01*
X39370000Y-39210000D02*
X39370000Y-29050000D01*
X31750000Y-39210000D02*
X39370000Y-39210000D01*
X33020000Y-39210000D02*
X33020000Y-29050000D01*
X-24765000Y24925000D02*
X-24765000Y35085000D01*
X-32385000Y24925000D02*
X-24765000Y24925000D01*
X-32385000Y35085000D02*
X-32385000Y24925000D01*
X-24765000Y35085000D02*
X-32385000Y35085000D01*
X-26035000Y35085000D02*
X-26035000Y24925000D01*
X-15300000Y-31530000D02*
X-15300000Y-36730000D01*
X12700000Y-31530000D02*
X-15300000Y-31530000D01*
X15300000Y-36730000D02*
X-15300000Y-36730000D01*
X12700000Y-31530000D02*
X12700000Y-34130000D01*
X12700000Y-34130000D02*
X15300000Y-34130000D01*
X15300000Y-34130000D02*
X15300000Y-36730000D01*
X13970000Y-31530000D02*
X15300000Y-31530000D01*
X15300000Y-31530000D02*
X15300000Y-32860000D01*
D10*
X17041904Y-16802380D02*
X17041904Y-15802380D01*
X17280000Y-15802380D01*
X17422857Y-15850000D01*
X17518095Y-15945238D01*
X17565714Y-16040476D01*
X17613333Y-16230952D01*
X17613333Y-16373809D01*
X17565714Y-16564285D01*
X17518095Y-16659523D01*
X17422857Y-16754761D01*
X17280000Y-16802380D01*
X17041904Y-16802380D01*
X17994285Y-15897619D02*
X18041904Y-15850000D01*
X18137142Y-15802380D01*
X18375238Y-15802380D01*
X18470476Y-15850000D01*
X18518095Y-15897619D01*
X18565714Y-15992857D01*
X18565714Y-16088095D01*
X18518095Y-16230952D01*
X17946666Y-16802380D01*
X18565714Y-16802380D01*
X10056904Y-6007380D02*
X10056904Y-5007380D01*
X10295000Y-5007380D01*
X10437857Y-5055000D01*
X10533095Y-5150238D01*
X10580714Y-5245476D01*
X10628333Y-5435952D01*
X10628333Y-5578809D01*
X10580714Y-5769285D01*
X10533095Y-5864523D01*
X10437857Y-5959761D01*
X10295000Y-6007380D01*
X10056904Y-6007380D01*
X11580714Y-6007380D02*
X11009285Y-6007380D01*
X11295000Y-6007380D02*
X11295000Y-5007380D01*
X11199761Y-5150238D01*
X11104523Y-5245476D01*
X11009285Y-5293095D01*
X-21129523Y-16862380D02*
X-21129523Y-17576666D01*
X-21177142Y-17719523D01*
X-21272380Y-17814761D01*
X-21415238Y-17862380D01*
X-21510476Y-17862380D01*
X-20748571Y-16862380D02*
X-20129523Y-16862380D01*
X-20462857Y-17243333D01*
X-20320000Y-17243333D01*
X-20224761Y-17290952D01*
X-20177142Y-17338571D01*
X-20129523Y-17433809D01*
X-20129523Y-17671904D01*
X-20177142Y-17767142D01*
X-20224761Y-17814761D01*
X-20320000Y-17862380D01*
X-20605714Y-17862380D01*
X-20700952Y-17814761D01*
X-20748571Y-17767142D01*
X-19510476Y-16862380D02*
X-19415238Y-16862380D01*
X-19320000Y-16910000D01*
X-19272380Y-16957619D01*
X-19224761Y-17052857D01*
X-19177142Y-17243333D01*
X-19177142Y-17481428D01*
X-19224761Y-17671904D01*
X-19272380Y-17767142D01*
X-19320000Y-17814761D01*
X-19415238Y-17862380D01*
X-19510476Y-17862380D01*
X-19605714Y-17814761D01*
X-19653333Y-17767142D01*
X-19700952Y-17671904D01*
X-19748571Y-17481428D01*
X-19748571Y-17243333D01*
X-19700952Y-17052857D01*
X-19653333Y-16957619D01*
X-19605714Y-16910000D01*
X-19510476Y-16862380D01*
X-25312619Y41260476D02*
X-24598333Y41260476D01*
X-24455476Y41212857D01*
X-24360238Y41117619D01*
X-24312619Y40974761D01*
X-24312619Y40879523D01*
X-25312619Y41641428D02*
X-25312619Y42260476D01*
X-24931666Y41927142D01*
X-24931666Y42070000D01*
X-24884047Y42165238D01*
X-24836428Y42212857D01*
X-24741190Y42260476D01*
X-24503095Y42260476D01*
X-24407857Y42212857D01*
X-24360238Y42165238D01*
X-24312619Y42070000D01*
X-24312619Y41784285D01*
X-24360238Y41689047D01*
X-24407857Y41641428D01*
X-25217380Y42641428D02*
X-25265000Y42689047D01*
X-25312619Y42784285D01*
X-25312619Y43022380D01*
X-25265000Y43117619D01*
X-25217380Y43165238D01*
X-25122142Y43212857D01*
X-25026904Y43212857D01*
X-24884047Y43165238D01*
X-24312619Y42593809D01*
X-24312619Y43212857D01*
X-15311428Y37061904D02*
X-15311428Y36728571D01*
X-14787619Y36728571D02*
X-15787619Y36728571D01*
X-15787619Y37204761D01*
X-15073333Y37538095D02*
X-15073333Y38014285D01*
X-14787619Y37442857D02*
X-15787619Y37776190D01*
X-14787619Y38109523D01*
X-14787619Y38442857D02*
X-15787619Y38442857D01*
X-14787619Y39014285D01*
X-15787619Y39014285D01*
X-14692380Y39252380D02*
X-14692380Y40014285D01*
X-14787619Y40252380D02*
X-15787619Y40252380D01*
X-15787619Y40633333D01*
X-15740000Y40728571D01*
X-15692380Y40776190D01*
X-15597142Y40823809D01*
X-15454285Y40823809D01*
X-15359047Y40776190D01*
X-15311428Y40728571D01*
X-15263809Y40633333D01*
X-15263809Y40252380D01*
X-15787619Y41442857D02*
X-15787619Y41633333D01*
X-15740000Y41728571D01*
X-15644761Y41823809D01*
X-15454285Y41871428D01*
X-15120952Y41871428D01*
X-14930476Y41823809D01*
X-14835238Y41728571D01*
X-14787619Y41633333D01*
X-14787619Y41442857D01*
X-14835238Y41347619D01*
X-14930476Y41252380D01*
X-15120952Y41204761D01*
X-15454285Y41204761D01*
X-15644761Y41252380D01*
X-15740000Y41347619D01*
X-15787619Y41442857D01*
X-15787619Y42204761D02*
X-14787619Y42442857D01*
X-15501904Y42633333D01*
X-14787619Y42823809D01*
X-15787619Y43061904D01*
X-15311428Y43442857D02*
X-15311428Y43776190D01*
X-14787619Y43919047D02*
X-14787619Y43442857D01*
X-15787619Y43442857D01*
X-15787619Y43919047D01*
X-14787619Y44919047D02*
X-15263809Y44585714D01*
X-14787619Y44347619D02*
X-15787619Y44347619D01*
X-15787619Y44728571D01*
X-15740000Y44823809D01*
X-15692380Y44871428D01*
X-15597142Y44919047D01*
X-15454285Y44919047D01*
X-15359047Y44871428D01*
X-15311428Y44823809D01*
X-15263809Y44728571D01*
X-15263809Y44347619D01*
X-20327857Y-29502380D02*
X-20661190Y-29026190D01*
X-20899285Y-29502380D02*
X-20899285Y-28502380D01*
X-20518333Y-28502380D01*
X-20423095Y-28550000D01*
X-20375476Y-28597619D01*
X-20327857Y-28692857D01*
X-20327857Y-28835714D01*
X-20375476Y-28930952D01*
X-20423095Y-28978571D01*
X-20518333Y-29026190D01*
X-20899285Y-29026190D01*
X-19470714Y-28835714D02*
X-19470714Y-29502380D01*
X-19708809Y-28454761D02*
X-19946904Y-29169047D01*
X-19327857Y-29169047D01*
X-18423095Y-29502380D02*
X-18994523Y-29502380D01*
X-18708809Y-29502380D02*
X-18708809Y-28502380D01*
X-18804047Y-28645238D01*
X-18899285Y-28740476D01*
X-18994523Y-28788095D01*
X-20327857Y-37917380D02*
X-20661190Y-37441190D01*
X-20899285Y-37917380D02*
X-20899285Y-36917380D01*
X-20518333Y-36917380D01*
X-20423095Y-36965000D01*
X-20375476Y-37012619D01*
X-20327857Y-37107857D01*
X-20327857Y-37250714D01*
X-20375476Y-37345952D01*
X-20423095Y-37393571D01*
X-20518333Y-37441190D01*
X-20899285Y-37441190D01*
X-19994523Y-36917380D02*
X-19375476Y-36917380D01*
X-19708809Y-37298333D01*
X-19565952Y-37298333D01*
X-19470714Y-37345952D01*
X-19423095Y-37393571D01*
X-19375476Y-37488809D01*
X-19375476Y-37726904D01*
X-19423095Y-37822142D01*
X-19470714Y-37869761D01*
X-19565952Y-37917380D01*
X-19851666Y-37917380D01*
X-19946904Y-37869761D01*
X-19994523Y-37822142D01*
X-18899285Y-37917380D02*
X-18708809Y-37917380D01*
X-18613571Y-37869761D01*
X-18565952Y-37822142D01*
X-18470714Y-37679285D01*
X-18423095Y-37488809D01*
X-18423095Y-37107857D01*
X-18470714Y-37012619D01*
X-18518333Y-36965000D01*
X-18613571Y-36917380D01*
X-18804047Y-36917380D01*
X-18899285Y-36965000D01*
X-18946904Y-37012619D01*
X-18994523Y-37107857D01*
X-18994523Y-37345952D01*
X-18946904Y-37441190D01*
X-18899285Y-37488809D01*
X-18804047Y-37536428D01*
X-18613571Y-37536428D01*
X-18518333Y-37488809D01*
X-18470714Y-37441190D01*
X-18423095Y-37345952D01*
X16343333Y-19247142D02*
X16295714Y-19294761D01*
X16152857Y-19342380D01*
X16057619Y-19342380D01*
X15914761Y-19294761D01*
X15819523Y-19199523D01*
X15771904Y-19104285D01*
X15724285Y-18913809D01*
X15724285Y-18770952D01*
X15771904Y-18580476D01*
X15819523Y-18485238D01*
X15914761Y-18390000D01*
X16057619Y-18342380D01*
X16152857Y-18342380D01*
X16295714Y-18390000D01*
X16343333Y-18437619D01*
X17200476Y-18675714D02*
X17200476Y-19342380D01*
X16962380Y-18294761D02*
X16724285Y-19009047D01*
X17343333Y-19009047D01*
X30932380Y-27883095D02*
X29932380Y-27883095D01*
X29932380Y-27645000D01*
X29980000Y-27502142D01*
X30075238Y-27406904D01*
X30170476Y-27359285D01*
X30360952Y-27311666D01*
X30503809Y-27311666D01*
X30694285Y-27359285D01*
X30789523Y-27406904D01*
X30884761Y-27502142D01*
X30932380Y-27645000D01*
X30932380Y-27883095D01*
X29932380Y-26978333D02*
X29932380Y-26359285D01*
X30313333Y-26692619D01*
X30313333Y-26549761D01*
X30360952Y-26454523D01*
X30408571Y-26406904D01*
X30503809Y-26359285D01*
X30741904Y-26359285D01*
X30837142Y-26406904D01*
X30884761Y-26454523D01*
X30932380Y-26549761D01*
X30932380Y-26835476D01*
X30884761Y-26930714D01*
X30837142Y-26978333D01*
X30932380Y-30423095D02*
X29932380Y-30423095D01*
X29932380Y-30185000D01*
X29980000Y-30042142D01*
X30075238Y-29946904D01*
X30170476Y-29899285D01*
X30360952Y-29851666D01*
X30503809Y-29851666D01*
X30694285Y-29899285D01*
X30789523Y-29946904D01*
X30884761Y-30042142D01*
X30932380Y-30185000D01*
X30932380Y-30423095D01*
X29932380Y-28946904D02*
X29932380Y-29423095D01*
X30408571Y-29470714D01*
X30360952Y-29423095D01*
X30313333Y-29327857D01*
X30313333Y-29089761D01*
X30360952Y-28994523D01*
X30408571Y-28946904D01*
X30503809Y-28899285D01*
X30741904Y-28899285D01*
X30837142Y-28946904D01*
X30884761Y-28994523D01*
X30932380Y-29089761D01*
X30932380Y-29327857D01*
X30884761Y-29423095D01*
X30837142Y-29470714D01*
X-15970238Y34537380D02*
X-16065476Y34585000D01*
X-16160714Y34680238D01*
X-16303571Y34823095D01*
X-16398809Y34870714D01*
X-16494047Y34870714D01*
X-16446428Y34632619D02*
X-16541666Y34680238D01*
X-16636904Y34775476D01*
X-16684523Y34965952D01*
X-16684523Y35299285D01*
X-16636904Y35489761D01*
X-16541666Y35585000D01*
X-16446428Y35632619D01*
X-16255952Y35632619D01*
X-16160714Y35585000D01*
X-16065476Y35489761D01*
X-16017857Y35299285D01*
X-16017857Y34965952D01*
X-16065476Y34775476D01*
X-16160714Y34680238D01*
X-16255952Y34632619D01*
X-16446428Y34632619D01*
X-15160714Y35299285D02*
X-15160714Y34632619D01*
X-15398809Y35680238D02*
X-15636904Y34965952D01*
X-15017857Y34965952D01*
X27209761Y-28382619D02*
X27114523Y-28335000D01*
X27019285Y-28239761D01*
X26876428Y-28096904D01*
X26781190Y-28049285D01*
X26685952Y-28049285D01*
X26733571Y-28287380D02*
X26638333Y-28239761D01*
X26543095Y-28144523D01*
X26495476Y-27954047D01*
X26495476Y-27620714D01*
X26543095Y-27430238D01*
X26638333Y-27335000D01*
X26733571Y-27287380D01*
X26924047Y-27287380D01*
X27019285Y-27335000D01*
X27114523Y-27430238D01*
X27162142Y-27620714D01*
X27162142Y-27954047D01*
X27114523Y-28144523D01*
X27019285Y-28239761D01*
X26924047Y-28287380D01*
X26733571Y-28287380D01*
X28114523Y-28287380D02*
X27543095Y-28287380D01*
X27828809Y-28287380D02*
X27828809Y-27287380D01*
X27733571Y-27430238D01*
X27638333Y-27525476D01*
X27543095Y-27573095D01*
X-15907380Y16819761D02*
X-15955000Y16724523D01*
X-16050238Y16629285D01*
X-16193095Y16486428D01*
X-16240714Y16391190D01*
X-16240714Y16295952D01*
X-16002619Y16343571D02*
X-16050238Y16248333D01*
X-16145476Y16153095D01*
X-16335952Y16105476D01*
X-16669285Y16105476D01*
X-16859761Y16153095D01*
X-16955000Y16248333D01*
X-17002619Y16343571D01*
X-17002619Y16534047D01*
X-16955000Y16629285D01*
X-16859761Y16724523D01*
X-16669285Y16772142D01*
X-16335952Y16772142D01*
X-16145476Y16724523D01*
X-16050238Y16629285D01*
X-16002619Y16534047D01*
X-16002619Y16343571D01*
X-16907380Y17153095D02*
X-16955000Y17200714D01*
X-17002619Y17295952D01*
X-17002619Y17534047D01*
X-16955000Y17629285D01*
X-16907380Y17676904D01*
X-16812142Y17724523D01*
X-16716904Y17724523D01*
X-16574047Y17676904D01*
X-16002619Y17105476D01*
X-16002619Y17724523D01*
X27209761Y-30232619D02*
X27114523Y-30185000D01*
X27019285Y-30089761D01*
X26876428Y-29946904D01*
X26781190Y-29899285D01*
X26685952Y-29899285D01*
X26733571Y-30137380D02*
X26638333Y-30089761D01*
X26543095Y-29994523D01*
X26495476Y-29804047D01*
X26495476Y-29470714D01*
X26543095Y-29280238D01*
X26638333Y-29185000D01*
X26733571Y-29137380D01*
X26924047Y-29137380D01*
X27019285Y-29185000D01*
X27114523Y-29280238D01*
X27162142Y-29470714D01*
X27162142Y-29804047D01*
X27114523Y-29994523D01*
X27019285Y-30089761D01*
X26924047Y-30137380D01*
X26733571Y-30137380D01*
X27495476Y-29137380D02*
X28114523Y-29137380D01*
X27781190Y-29518333D01*
X27924047Y-29518333D01*
X28019285Y-29565952D01*
X28066904Y-29613571D01*
X28114523Y-29708809D01*
X28114523Y-29946904D01*
X28066904Y-30042142D01*
X28019285Y-30089761D01*
X27924047Y-30137380D01*
X27638333Y-30137380D01*
X27543095Y-30089761D01*
X27495476Y-30042142D01*
X20248571Y-17318333D02*
X20248571Y-17651666D01*
X20772380Y-17651666D02*
X19772380Y-17651666D01*
X19772380Y-17175476D01*
X20772380Y-16270714D02*
X20772380Y-16842142D01*
X20772380Y-16556428D02*
X19772380Y-16556428D01*
X19915238Y-16651666D01*
X20010476Y-16746904D01*
X20058095Y-16842142D01*
X25487380Y-17953333D02*
X26201666Y-17953333D01*
X26344523Y-18000952D01*
X26439761Y-18096190D01*
X26487380Y-18239047D01*
X26487380Y-18334285D01*
X26487380Y-16953333D02*
X26487380Y-17524761D01*
X26487380Y-17239047D02*
X25487380Y-17239047D01*
X25630238Y-17334285D01*
X25725476Y-17429523D01*
X25773095Y-17524761D01*
X37734761Y287380D02*
X35734761Y287380D01*
X35734761Y763571D01*
X35830000Y1049285D01*
X36020476Y1239761D01*
X36210952Y1335000D01*
X36591904Y1430238D01*
X36877619Y1430238D01*
X37258571Y1335000D01*
X37449047Y1239761D01*
X37639523Y1049285D01*
X37734761Y763571D01*
X37734761Y287380D01*
X37544285Y3430238D02*
X37639523Y3335000D01*
X37734761Y3049285D01*
X37734761Y2858809D01*
X37639523Y2573095D01*
X37449047Y2382619D01*
X37258571Y2287380D01*
X36877619Y2192142D01*
X36591904Y2192142D01*
X36210952Y2287380D01*
X36020476Y2382619D01*
X35830000Y2573095D01*
X35734761Y2858809D01*
X35734761Y3049285D01*
X35830000Y3335000D01*
X35925238Y3430238D01*
X37734761Y4287380D02*
X35734761Y4287380D01*
X37734761Y5239761D02*
X35734761Y5239761D01*
X37734761Y6382619D01*
X35734761Y6382619D01*
X4737380Y-8414166D02*
X4261190Y-8747500D01*
X4737380Y-8985595D02*
X3737380Y-8985595D01*
X3737380Y-8604642D01*
X3785000Y-8509404D01*
X3832619Y-8461785D01*
X3927857Y-8414166D01*
X4070714Y-8414166D01*
X4165952Y-8461785D01*
X4213571Y-8509404D01*
X4261190Y-8604642D01*
X4261190Y-8985595D01*
X3737380Y-8080833D02*
X3737380Y-7414166D01*
X4737380Y-7842738D01*
X11263333Y-28137142D02*
X11215714Y-28184761D01*
X11072857Y-28232380D01*
X10977619Y-28232380D01*
X10834761Y-28184761D01*
X10739523Y-28089523D01*
X10691904Y-27994285D01*
X10644285Y-27803809D01*
X10644285Y-27660952D01*
X10691904Y-27470476D01*
X10739523Y-27375238D01*
X10834761Y-27280000D01*
X10977619Y-27232380D01*
X11072857Y-27232380D01*
X11215714Y-27280000D01*
X11263333Y-27327619D01*
X12168095Y-27232380D02*
X11691904Y-27232380D01*
X11644285Y-27708571D01*
X11691904Y-27660952D01*
X11787142Y-27613333D01*
X12025238Y-27613333D01*
X12120476Y-27660952D01*
X12168095Y-27708571D01*
X12215714Y-27803809D01*
X12215714Y-28041904D01*
X12168095Y-28137142D01*
X12120476Y-28184761D01*
X12025238Y-28232380D01*
X11787142Y-28232380D01*
X11691904Y-28184761D01*
X11644285Y-28137142D01*
X-20423095Y6692619D02*
X-20423095Y7692619D01*
X-20185000Y7692619D01*
X-20042142Y7645000D01*
X-19946904Y7549761D01*
X-19899285Y7454523D01*
X-19851666Y7264047D01*
X-19851666Y7121190D01*
X-19899285Y6930714D01*
X-19946904Y6835476D01*
X-20042142Y6740238D01*
X-20185000Y6692619D01*
X-20423095Y6692619D01*
X-18994523Y7692619D02*
X-19185000Y7692619D01*
X-19280238Y7645000D01*
X-19327857Y7597380D01*
X-19423095Y7454523D01*
X-19470714Y7264047D01*
X-19470714Y6883095D01*
X-19423095Y6787857D01*
X-19375476Y6740238D01*
X-19280238Y6692619D01*
X-19089761Y6692619D01*
X-18994523Y6740238D01*
X-18946904Y6787857D01*
X-18899285Y6883095D01*
X-18899285Y7121190D01*
X-18946904Y7216428D01*
X-18994523Y7264047D01*
X-19089761Y7311666D01*
X-19280238Y7311666D01*
X-19375476Y7264047D01*
X-19423095Y7216428D01*
X-19470714Y7121190D01*
X-20423095Y4152619D02*
X-20423095Y5152619D01*
X-20185000Y5152619D01*
X-20042142Y5105000D01*
X-19946904Y5009761D01*
X-19899285Y4914523D01*
X-19851666Y4724047D01*
X-19851666Y4581190D01*
X-19899285Y4390714D01*
X-19946904Y4295476D01*
X-20042142Y4200238D01*
X-20185000Y4152619D01*
X-20423095Y4152619D01*
X-18994523Y4819285D02*
X-18994523Y4152619D01*
X-19232619Y5200238D02*
X-19470714Y4485952D01*
X-18851666Y4485952D01*
X-25947619Y-37003333D02*
X-25233333Y-37003333D01*
X-25090476Y-37050952D01*
X-24995238Y-37146190D01*
X-24947619Y-37289047D01*
X-24947619Y-37384285D01*
X-25947619Y-36098571D02*
X-25947619Y-36289047D01*
X-25900000Y-36384285D01*
X-25852380Y-36431904D01*
X-25709523Y-36527142D01*
X-25519047Y-36574761D01*
X-25138095Y-36574761D01*
X-25042857Y-36527142D01*
X-24995238Y-36479523D01*
X-24947619Y-36384285D01*
X-24947619Y-36193809D01*
X-24995238Y-36098571D01*
X-25042857Y-36050952D01*
X-25138095Y-36003333D01*
X-25376190Y-36003333D01*
X-25471428Y-36050952D01*
X-25519047Y-36098571D01*
X-25566666Y-36193809D01*
X-25566666Y-36384285D01*
X-25519047Y-36479523D01*
X-25471428Y-36527142D01*
X-25376190Y-36574761D01*
X-23955238Y-38019047D02*
X-23955238Y-36876190D01*
X-21955238Y-37447619D02*
X-23955238Y-37447619D01*
X-21955238Y-36209523D02*
X-23955238Y-36209523D01*
X-23002857Y-36209523D02*
X-23002857Y-35066666D01*
X-21955238Y-35066666D02*
X-23955238Y-35066666D01*
X-23002857Y-33447619D02*
X-22907619Y-33161904D01*
X-22812380Y-33066666D01*
X-22621904Y-32971428D01*
X-22336190Y-32971428D01*
X-22145714Y-33066666D01*
X-22050476Y-33161904D01*
X-21955238Y-33352380D01*
X-21955238Y-34114285D01*
X-23955238Y-34114285D01*
X-23955238Y-33447619D01*
X-23860000Y-33257142D01*
X-23764761Y-33161904D01*
X-23574285Y-33066666D01*
X-23383809Y-33066666D01*
X-23193333Y-33161904D01*
X-23098095Y-33257142D01*
X-23002857Y-33447619D01*
X-23002857Y-34114285D01*
X-25947619Y-28748333D02*
X-25233333Y-28748333D01*
X-25090476Y-28795952D01*
X-24995238Y-28891190D01*
X-24947619Y-29034047D01*
X-24947619Y-29129285D01*
X-25947619Y-27795952D02*
X-25947619Y-28272142D01*
X-25471428Y-28319761D01*
X-25519047Y-28272142D01*
X-25566666Y-28176904D01*
X-25566666Y-27938809D01*
X-25519047Y-27843571D01*
X-25471428Y-27795952D01*
X-25376190Y-27748333D01*
X-25138095Y-27748333D01*
X-25042857Y-27795952D01*
X-24995238Y-27843571D01*
X-24947619Y-27938809D01*
X-24947619Y-28176904D01*
X-24995238Y-28272142D01*
X-25042857Y-28319761D01*
X-23955238Y-30986428D02*
X-23955238Y-29843571D01*
X-21955238Y-30415000D02*
X-23955238Y-30415000D01*
X-21955238Y-29176904D02*
X-23955238Y-29176904D01*
X-23002857Y-29176904D02*
X-23002857Y-28034047D01*
X-21955238Y-28034047D02*
X-23955238Y-28034047D01*
X-23955238Y-26700714D02*
X-23955238Y-26510238D01*
X-23860000Y-26319761D01*
X-23764761Y-26224523D01*
X-23574285Y-26129285D01*
X-23193333Y-26034047D01*
X-22717142Y-26034047D01*
X-22336190Y-26129285D01*
X-22145714Y-26224523D01*
X-22050476Y-26319761D01*
X-21955238Y-26510238D01*
X-21955238Y-26700714D01*
X-22050476Y-26891190D01*
X-22145714Y-26986428D01*
X-22336190Y-27081666D01*
X-22717142Y-27176904D01*
X-23193333Y-27176904D01*
X-23574285Y-27081666D01*
X-23764761Y-26986428D01*
X-23860000Y-26891190D01*
X-23955238Y-26700714D01*
X-25699619Y-3348333D02*
X-24985333Y-3348333D01*
X-24842476Y-3395952D01*
X-24747238Y-3491190D01*
X-24699619Y-3634047D01*
X-24699619Y-3729285D01*
X-25366285Y-2443571D02*
X-24699619Y-2443571D01*
X-25747238Y-2681666D02*
X-25032952Y-2919761D01*
X-25032952Y-2300714D01*
X-25860238Y1398333D02*
X-25860238Y2731666D01*
X-23860238Y1398333D01*
X-23860238Y2731666D01*
X-25947619Y-11603333D02*
X-25233333Y-11603333D01*
X-25090476Y-11650952D01*
X-24995238Y-11746190D01*
X-24947619Y-11889047D01*
X-24947619Y-11984285D01*
X-25947619Y-11222380D02*
X-25947619Y-10603333D01*
X-25566666Y-10936666D01*
X-25566666Y-10793809D01*
X-25519047Y-10698571D01*
X-25471428Y-10650952D01*
X-25376190Y-10603333D01*
X-25138095Y-10603333D01*
X-25042857Y-10650952D01*
X-24995238Y-10698571D01*
X-24947619Y-10793809D01*
X-24947619Y-11079523D01*
X-24995238Y-11174761D01*
X-25042857Y-11222380D01*
X-24812619Y-6825000D02*
X-23860238Y-6825000D01*
X-25860238Y-7491666D02*
X-24812619Y-6825000D01*
X-25860238Y-6158333D01*
X-25947619Y-20493333D02*
X-25233333Y-20493333D01*
X-25090476Y-20540952D01*
X-24995238Y-20636190D01*
X-24947619Y-20779047D01*
X-24947619Y-20874285D01*
X-25852380Y-20064761D02*
X-25900000Y-20017142D01*
X-25947619Y-19921904D01*
X-25947619Y-19683809D01*
X-25900000Y-19588571D01*
X-25852380Y-19540952D01*
X-25757142Y-19493333D01*
X-25661904Y-19493333D01*
X-25519047Y-19540952D01*
X-24947619Y-20112380D01*
X-24947619Y-19493333D01*
X-25860238Y-16381666D02*
X-23860238Y-15048333D01*
X-25860238Y-15048333D02*
X-23860238Y-16381666D01*
X-1277857Y-7182142D02*
X-1325476Y-7229761D01*
X-1468333Y-7277380D01*
X-1563571Y-7277380D01*
X-1706428Y-7229761D01*
X-1801666Y-7134523D01*
X-1849285Y-7039285D01*
X-1896904Y-6848809D01*
X-1896904Y-6705952D01*
X-1849285Y-6515476D01*
X-1801666Y-6420238D01*
X-1706428Y-6325000D01*
X-1563571Y-6277380D01*
X-1468333Y-6277380D01*
X-1325476Y-6325000D01*
X-1277857Y-6372619D01*
X-325476Y-7277380D02*
X-896904Y-7277380D01*
X-611190Y-7277380D02*
X-611190Y-6277380D01*
X-706428Y-6420238D01*
X-801666Y-6515476D01*
X-896904Y-6563095D01*
X626904Y-7277380D02*
X55476Y-7277380D01*
X341190Y-7277380D02*
X341190Y-6277380D01*
X245952Y-6420238D01*
X150714Y-6515476D01*
X55476Y-6563095D01*
X25868333Y18377857D02*
X25820714Y18330238D01*
X25677857Y18282619D01*
X25582619Y18282619D01*
X25439761Y18330238D01*
X25344523Y18425476D01*
X25296904Y18520714D01*
X25249285Y18711190D01*
X25249285Y18854047D01*
X25296904Y19044523D01*
X25344523Y19139761D01*
X25439761Y19235000D01*
X25582619Y19282619D01*
X25677857Y19282619D01*
X25820714Y19235000D01*
X25868333Y19187380D01*
X26344523Y18282619D02*
X26535000Y18282619D01*
X26630238Y18330238D01*
X26677857Y18377857D01*
X26773095Y18520714D01*
X26820714Y18711190D01*
X26820714Y19092142D01*
X26773095Y19187380D01*
X26725476Y19235000D01*
X26630238Y19282619D01*
X26439761Y19282619D01*
X26344523Y19235000D01*
X26296904Y19187380D01*
X26249285Y19092142D01*
X26249285Y18854047D01*
X26296904Y18758809D01*
X26344523Y18711190D01*
X26439761Y18663571D01*
X26630238Y18663571D01*
X26725476Y18711190D01*
X26773095Y18758809D01*
X26820714Y18854047D01*
X-17311666Y-34487142D02*
X-17359285Y-34534761D01*
X-17502142Y-34582380D01*
X-17597380Y-34582380D01*
X-17740238Y-34534761D01*
X-17835476Y-34439523D01*
X-17883095Y-34344285D01*
X-17930714Y-34153809D01*
X-17930714Y-34010952D01*
X-17883095Y-33820476D01*
X-17835476Y-33725238D01*
X-17740238Y-33630000D01*
X-17597380Y-33582380D01*
X-17502142Y-33582380D01*
X-17359285Y-33630000D01*
X-17311666Y-33677619D01*
X-16978333Y-33582380D02*
X-16359285Y-33582380D01*
X-16692619Y-33963333D01*
X-16549761Y-33963333D01*
X-16454523Y-34010952D01*
X-16406904Y-34058571D01*
X-16359285Y-34153809D01*
X-16359285Y-34391904D01*
X-16406904Y-34487142D01*
X-16454523Y-34534761D01*
X-16549761Y-34582380D01*
X-16835476Y-34582380D01*
X-16930714Y-34534761D01*
X-16978333Y-34487142D01*
X-17311666Y-32582142D02*
X-17359285Y-32629761D01*
X-17502142Y-32677380D01*
X-17597380Y-32677380D01*
X-17740238Y-32629761D01*
X-17835476Y-32534523D01*
X-17883095Y-32439285D01*
X-17930714Y-32248809D01*
X-17930714Y-32105952D01*
X-17883095Y-31915476D01*
X-17835476Y-31820238D01*
X-17740238Y-31725000D01*
X-17597380Y-31677380D01*
X-17502142Y-31677380D01*
X-17359285Y-31725000D01*
X-17311666Y-31772619D01*
X-16930714Y-31772619D02*
X-16883095Y-31725000D01*
X-16787857Y-31677380D01*
X-16549761Y-31677380D01*
X-16454523Y-31725000D01*
X-16406904Y-31772619D01*
X-16359285Y-31867857D01*
X-16359285Y-31963095D01*
X-16406904Y-32105952D01*
X-16978333Y-32677380D01*
X-16359285Y-32677380D01*
X31567380Y29209642D02*
X31091190Y28876309D01*
X31567380Y28638214D02*
X30567380Y28638214D01*
X30567380Y29019166D01*
X30615000Y29114404D01*
X30662619Y29162023D01*
X30757857Y29209642D01*
X30900714Y29209642D01*
X30995952Y29162023D01*
X31043571Y29114404D01*
X31091190Y29019166D01*
X31091190Y28638214D01*
X30567380Y29542976D02*
X30567380Y30162023D01*
X30948333Y29828690D01*
X30948333Y29971547D01*
X30995952Y30066785D01*
X31043571Y30114404D01*
X31138809Y30162023D01*
X31376904Y30162023D01*
X31472142Y30114404D01*
X31519761Y30066785D01*
X31567380Y29971547D01*
X31567380Y29685833D01*
X31519761Y29590595D01*
X31472142Y29542976D01*
X30567380Y30495357D02*
X30567380Y31162023D01*
X31567380Y30733452D01*
X31727380Y25552142D02*
X31251190Y25218809D01*
X31727380Y24980714D02*
X30727380Y24980714D01*
X30727380Y25361666D01*
X30775000Y25456904D01*
X30822619Y25504523D01*
X30917857Y25552142D01*
X31060714Y25552142D01*
X31155952Y25504523D01*
X31203571Y25456904D01*
X31251190Y25361666D01*
X31251190Y24980714D01*
X30727380Y25885476D02*
X30727380Y26504523D01*
X31108333Y26171190D01*
X31108333Y26314047D01*
X31155952Y26409285D01*
X31203571Y26456904D01*
X31298809Y26504523D01*
X31536904Y26504523D01*
X31632142Y26456904D01*
X31679761Y26409285D01*
X31727380Y26314047D01*
X31727380Y26028333D01*
X31679761Y25933095D01*
X31632142Y25885476D01*
X30727380Y27361666D02*
X30727380Y27171190D01*
X30775000Y27075952D01*
X30822619Y27028333D01*
X30965476Y26933095D01*
X31155952Y26885476D01*
X31536904Y26885476D01*
X31632142Y26933095D01*
X31679761Y26980714D01*
X31727380Y27075952D01*
X31727380Y27266428D01*
X31679761Y27361666D01*
X31632142Y27409285D01*
X31536904Y27456904D01*
X31298809Y27456904D01*
X31203571Y27409285D01*
X31155952Y27361666D01*
X31108333Y27266428D01*
X31108333Y27075952D01*
X31155952Y26980714D01*
X31203571Y26933095D01*
X31298809Y26885476D01*
X-16692619Y28879642D02*
X-17168809Y28546309D01*
X-16692619Y28308214D02*
X-17692619Y28308214D01*
X-17692619Y28689166D01*
X-17645000Y28784404D01*
X-17597380Y28832023D01*
X-17502142Y28879642D01*
X-17359285Y28879642D01*
X-17264047Y28832023D01*
X-17216428Y28784404D01*
X-17168809Y28689166D01*
X-17168809Y28308214D01*
X-17597380Y29260595D02*
X-17645000Y29308214D01*
X-17692619Y29403452D01*
X-17692619Y29641547D01*
X-17645000Y29736785D01*
X-17597380Y29784404D01*
X-17502142Y29832023D01*
X-17406904Y29832023D01*
X-17264047Y29784404D01*
X-16692619Y29212976D01*
X-16692619Y29832023D01*
X-17692619Y30451071D02*
X-17692619Y30546309D01*
X-17645000Y30641547D01*
X-17597380Y30689166D01*
X-17502142Y30736785D01*
X-17311666Y30784404D01*
X-17073571Y30784404D01*
X-16883095Y30736785D01*
X-16787857Y30689166D01*
X-16740238Y30641547D01*
X-16692619Y30546309D01*
X-16692619Y30451071D01*
X-16740238Y30355833D01*
X-16787857Y30308214D01*
X-16883095Y30260595D01*
X-17073571Y30212976D01*
X-17311666Y30212976D01*
X-17502142Y30260595D01*
X-17597380Y30308214D01*
X-17645000Y30355833D01*
X-17692619Y30451071D01*
X-16692619Y31902142D02*
X-17168809Y31568809D01*
X-16692619Y31330714D02*
X-17692619Y31330714D01*
X-17692619Y31711666D01*
X-17645000Y31806904D01*
X-17597380Y31854523D01*
X-17502142Y31902142D01*
X-17359285Y31902142D01*
X-17264047Y31854523D01*
X-17216428Y31806904D01*
X-17168809Y31711666D01*
X-17168809Y31330714D01*
X-16692619Y32854523D02*
X-16692619Y32283095D01*
X-16692619Y32568809D02*
X-17692619Y32568809D01*
X-17549761Y32473571D01*
X-17454523Y32378333D01*
X-17406904Y32283095D01*
X-16692619Y33330714D02*
X-16692619Y33521190D01*
X-16740238Y33616428D01*
X-16787857Y33664047D01*
X-16930714Y33759285D01*
X-17121190Y33806904D01*
X-17502142Y33806904D01*
X-17597380Y33759285D01*
X-17645000Y33711666D01*
X-17692619Y33616428D01*
X-17692619Y33425952D01*
X-17645000Y33330714D01*
X-17597380Y33283095D01*
X-17502142Y33235476D01*
X-17264047Y33235476D01*
X-17168809Y33283095D01*
X-17121190Y33330714D01*
X-17073571Y33425952D01*
X-17073571Y33616428D01*
X-17121190Y33711666D01*
X-17168809Y33759285D01*
X-17264047Y33806904D01*
X-23502857Y6692619D02*
X-23836190Y7168809D01*
X-24074285Y6692619D02*
X-24074285Y7692619D01*
X-23693333Y7692619D01*
X-23598095Y7645000D01*
X-23550476Y7597380D01*
X-23502857Y7502142D01*
X-23502857Y7359285D01*
X-23550476Y7264047D01*
X-23598095Y7216428D01*
X-23693333Y7168809D01*
X-24074285Y7168809D01*
X-22550476Y6692619D02*
X-23121904Y6692619D01*
X-22836190Y6692619D02*
X-22836190Y7692619D01*
X-22931428Y7549761D01*
X-23026666Y7454523D01*
X-23121904Y7406904D01*
X-21979047Y7264047D02*
X-22074285Y7311666D01*
X-22121904Y7359285D01*
X-22169523Y7454523D01*
X-22169523Y7502142D01*
X-22121904Y7597380D01*
X-22074285Y7645000D01*
X-21979047Y7692619D01*
X-21788571Y7692619D01*
X-21693333Y7645000D01*
X-21645714Y7597380D01*
X-21598095Y7502142D01*
X-21598095Y7454523D01*
X-21645714Y7359285D01*
X-21693333Y7311666D01*
X-21788571Y7264047D01*
X-21979047Y7264047D01*
X-22074285Y7216428D01*
X-22121904Y7168809D01*
X-22169523Y7073571D01*
X-22169523Y6883095D01*
X-22121904Y6787857D01*
X-22074285Y6740238D01*
X-21979047Y6692619D01*
X-21788571Y6692619D01*
X-21693333Y6740238D01*
X-21645714Y6787857D01*
X-21598095Y6883095D01*
X-21598095Y7073571D01*
X-21645714Y7168809D01*
X-21693333Y7216428D01*
X-21788571Y7264047D01*
X-23502857Y5422619D02*
X-23836190Y5898809D01*
X-24074285Y5422619D02*
X-24074285Y6422619D01*
X-23693333Y6422619D01*
X-23598095Y6375000D01*
X-23550476Y6327380D01*
X-23502857Y6232142D01*
X-23502857Y6089285D01*
X-23550476Y5994047D01*
X-23598095Y5946428D01*
X-23693333Y5898809D01*
X-24074285Y5898809D01*
X-22550476Y5422619D02*
X-23121904Y5422619D01*
X-22836190Y5422619D02*
X-22836190Y6422619D01*
X-22931428Y6279761D01*
X-23026666Y6184523D01*
X-23121904Y6136904D01*
X-21598095Y5422619D02*
X-22169523Y5422619D01*
X-21883809Y5422619D02*
X-21883809Y6422619D01*
X-21979047Y6279761D01*
X-22074285Y6184523D01*
X-22169523Y6136904D01*
X-19692857Y5422619D02*
X-20026190Y5898809D01*
X-20264285Y5422619D02*
X-20264285Y6422619D01*
X-19883333Y6422619D01*
X-19788095Y6375000D01*
X-19740476Y6327380D01*
X-19692857Y6232142D01*
X-19692857Y6089285D01*
X-19740476Y5994047D01*
X-19788095Y5946428D01*
X-19883333Y5898809D01*
X-20264285Y5898809D01*
X-18740476Y5422619D02*
X-19311904Y5422619D01*
X-19026190Y5422619D02*
X-19026190Y6422619D01*
X-19121428Y6279761D01*
X-19216666Y6184523D01*
X-19311904Y6136904D01*
X-18121428Y6422619D02*
X-18026190Y6422619D01*
X-17930952Y6375000D01*
X-17883333Y6327380D01*
X-17835714Y6232142D01*
X-17788095Y6041666D01*
X-17788095Y5803571D01*
X-17835714Y5613095D01*
X-17883333Y5517857D01*
X-17930952Y5470238D01*
X-18026190Y5422619D01*
X-18121428Y5422619D01*
X-18216666Y5470238D01*
X-18264285Y5517857D01*
X-18311904Y5613095D01*
X-18359523Y5803571D01*
X-18359523Y6041666D01*
X-18311904Y6232142D01*
X-18264285Y6327380D01*
X-18216666Y6375000D01*
X-18121428Y6422619D01*
X-23026666Y4152619D02*
X-23360000Y4628809D01*
X-23598095Y4152619D02*
X-23598095Y5152619D01*
X-23217142Y5152619D01*
X-23121904Y5105000D01*
X-23074285Y5057380D01*
X-23026666Y4962142D01*
X-23026666Y4819285D01*
X-23074285Y4724047D01*
X-23121904Y4676428D01*
X-23217142Y4628809D01*
X-23598095Y4628809D01*
X-22550476Y4152619D02*
X-22360000Y4152619D01*
X-22264761Y4200238D01*
X-22217142Y4247857D01*
X-22121904Y4390714D01*
X-22074285Y4581190D01*
X-22074285Y4962142D01*
X-22121904Y5057380D01*
X-22169523Y5105000D01*
X-22264761Y5152619D01*
X-22455238Y5152619D01*
X-22550476Y5105000D01*
X-22598095Y5057380D01*
X-22645714Y4962142D01*
X-22645714Y4724047D01*
X-22598095Y4628809D01*
X-22550476Y4581190D01*
X-22455238Y4533571D01*
X-22264761Y4533571D01*
X-22169523Y4581190D01*
X-22121904Y4628809D01*
X-22074285Y4724047D01*
X-12882619Y20313333D02*
X-13358809Y19980000D01*
X-12882619Y19741904D02*
X-13882619Y19741904D01*
X-13882619Y20122857D01*
X-13835000Y20218095D01*
X-13787380Y20265714D01*
X-13692142Y20313333D01*
X-13549285Y20313333D01*
X-13454047Y20265714D01*
X-13406428Y20218095D01*
X-13358809Y20122857D01*
X-13358809Y19741904D01*
X-13454047Y20884761D02*
X-13501666Y20789523D01*
X-13549285Y20741904D01*
X-13644523Y20694285D01*
X-13692142Y20694285D01*
X-13787380Y20741904D01*
X-13835000Y20789523D01*
X-13882619Y20884761D01*
X-13882619Y21075238D01*
X-13835000Y21170476D01*
X-13787380Y21218095D01*
X-13692142Y21265714D01*
X-13644523Y21265714D01*
X-13549285Y21218095D01*
X-13501666Y21170476D01*
X-13454047Y21075238D01*
X-13454047Y20884761D01*
X-13406428Y20789523D01*
X-13358809Y20741904D01*
X-13263571Y20694285D01*
X-13073095Y20694285D01*
X-12977857Y20741904D01*
X-12930238Y20789523D01*
X-12882619Y20884761D01*
X-12882619Y21075238D01*
X-12930238Y21170476D01*
X-12977857Y21218095D01*
X-13073095Y21265714D01*
X-13263571Y21265714D01*
X-13358809Y21218095D01*
X-13406428Y21170476D01*
X-13454047Y21075238D01*
X-22391666Y-19977380D02*
X-22725000Y-19501190D01*
X-22963095Y-19977380D02*
X-22963095Y-18977380D01*
X-22582142Y-18977380D01*
X-22486904Y-19025000D01*
X-22439285Y-19072619D01*
X-22391666Y-19167857D01*
X-22391666Y-19310714D01*
X-22439285Y-19405952D01*
X-22486904Y-19453571D01*
X-22582142Y-19501190D01*
X-22963095Y-19501190D01*
X-22058333Y-18977380D02*
X-21439285Y-18977380D01*
X-21772619Y-19358333D01*
X-21629761Y-19358333D01*
X-21534523Y-19405952D01*
X-21486904Y-19453571D01*
X-21439285Y-19548809D01*
X-21439285Y-19786904D01*
X-21486904Y-19882142D01*
X-21534523Y-19929761D01*
X-21629761Y-19977380D01*
X-21915476Y-19977380D01*
X-22010714Y-19929761D01*
X-22058333Y-19882142D01*
X-24296666Y-25692380D02*
X-24630000Y-25216190D01*
X-24868095Y-25692380D02*
X-24868095Y-24692380D01*
X-24487142Y-24692380D01*
X-24391904Y-24740000D01*
X-24344285Y-24787619D01*
X-24296666Y-24882857D01*
X-24296666Y-25025714D01*
X-24344285Y-25120952D01*
X-24391904Y-25168571D01*
X-24487142Y-25216190D01*
X-24868095Y-25216190D01*
X-23915714Y-24787619D02*
X-23868095Y-24740000D01*
X-23772857Y-24692380D01*
X-23534761Y-24692380D01*
X-23439523Y-24740000D01*
X-23391904Y-24787619D01*
X-23344285Y-24882857D01*
X-23344285Y-24978095D01*
X-23391904Y-25120952D01*
X-23963333Y-25692380D01*
X-23344285Y-25692380D01*
X8715476Y40712619D02*
X8715476Y39998333D01*
X8667857Y39855476D01*
X8572619Y39760238D01*
X8429761Y39712619D01*
X8334523Y39712619D01*
X9144047Y40617380D02*
X9191666Y40665000D01*
X9286904Y40712619D01*
X9525000Y40712619D01*
X9620238Y40665000D01*
X9667857Y40617380D01*
X9715476Y40522142D01*
X9715476Y40426904D01*
X9667857Y40284047D01*
X9096428Y39712619D01*
X9715476Y39712619D01*
X10286904Y40284047D02*
X10191666Y40331666D01*
X10144047Y40379285D01*
X10096428Y40474523D01*
X10096428Y40522142D01*
X10144047Y40617380D01*
X10191666Y40665000D01*
X10286904Y40712619D01*
X10477380Y40712619D01*
X10572619Y40665000D01*
X10620238Y40617380D01*
X10667857Y40522142D01*
X10667857Y40474523D01*
X10620238Y40379285D01*
X10572619Y40331666D01*
X10477380Y40284047D01*
X10286904Y40284047D01*
X10191666Y40236428D01*
X10144047Y40188809D01*
X10096428Y40093571D01*
X10096428Y39903095D01*
X10144047Y39807857D01*
X10191666Y39760238D01*
X10286904Y39712619D01*
X10477380Y39712619D01*
X10572619Y39760238D01*
X10620238Y39807857D01*
X10667857Y39903095D01*
X10667857Y40093571D01*
X10620238Y40188809D01*
X10572619Y40236428D01*
X10477380Y40284047D01*
X6183571Y43554285D02*
X7183571Y43554285D01*
X7612142Y41982857D02*
X6183571Y41982857D01*
X6183571Y44982857D01*
X7612142Y44982857D01*
X9469285Y44982857D02*
X9755000Y44982857D01*
X10040714Y44840000D01*
X10183571Y44697142D01*
X10326428Y44411428D01*
X10469285Y43840000D01*
X10469285Y43125714D01*
X10326428Y42554285D01*
X10183571Y42268571D01*
X10040714Y42125714D01*
X9755000Y41982857D01*
X9469285Y41982857D01*
X9183571Y42125714D01*
X9040714Y42268571D01*
X8897857Y42554285D01*
X8755000Y43125714D01*
X8755000Y43840000D01*
X8897857Y44411428D01*
X9040714Y44697142D01*
X9183571Y44840000D01*
X9469285Y44982857D01*
X3635476Y40712619D02*
X3635476Y39998333D01*
X3587857Y39855476D01*
X3492619Y39760238D01*
X3349761Y39712619D01*
X3254523Y39712619D01*
X4064047Y40617380D02*
X4111666Y40665000D01*
X4206904Y40712619D01*
X4445000Y40712619D01*
X4540238Y40665000D01*
X4587857Y40617380D01*
X4635476Y40522142D01*
X4635476Y40426904D01*
X4587857Y40284047D01*
X4016428Y39712619D01*
X4635476Y39712619D01*
X4968809Y40712619D02*
X5635476Y40712619D01*
X5206904Y39712619D01*
X-13065000Y44982857D02*
X-11065000Y44982857D01*
X-13065000Y41982857D01*
X-11065000Y41982857D01*
X-12874523Y17852619D02*
X-12874523Y17138333D01*
X-12922142Y16995476D01*
X-13017380Y16900238D01*
X-13160238Y16852619D01*
X-13255476Y16852619D01*
X-12445952Y17757380D02*
X-12398333Y17805000D01*
X-12303095Y17852619D01*
X-12065000Y17852619D01*
X-11969761Y17805000D01*
X-11922142Y17757380D01*
X-11874523Y17662142D01*
X-11874523Y17566904D01*
X-11922142Y17424047D01*
X-12493571Y16852619D01*
X-11874523Y16852619D01*
X-11017380Y17852619D02*
X-11207857Y17852619D01*
X-11303095Y17805000D01*
X-11350714Y17757380D01*
X-11445952Y17614523D01*
X-11493571Y17424047D01*
X-11493571Y17043095D01*
X-11445952Y16947857D01*
X-11398333Y16900238D01*
X-11303095Y16852619D01*
X-11112619Y16852619D01*
X-11017380Y16900238D01*
X-10969761Y16947857D01*
X-10922142Y17043095D01*
X-10922142Y17281190D01*
X-10969761Y17376428D01*
X-11017380Y17424047D01*
X-11112619Y17471666D01*
X-11303095Y17471666D01*
X-11398333Y17424047D01*
X-11445952Y17376428D01*
X-11493571Y17281190D01*
X-15875000Y2771428D02*
X-15875000Y1342857D01*
X-16875000Y4342857D02*
X-15875000Y2771428D01*
X-14875000Y4342857D01*
X8715476Y17852619D02*
X8715476Y17138333D01*
X8667857Y16995476D01*
X8572619Y16900238D01*
X8429761Y16852619D01*
X8334523Y16852619D01*
X9144047Y17757380D02*
X9191666Y17805000D01*
X9286904Y17852619D01*
X9525000Y17852619D01*
X9620238Y17805000D01*
X9667857Y17757380D01*
X9715476Y17662142D01*
X9715476Y17566904D01*
X9667857Y17424047D01*
X9096428Y16852619D01*
X9715476Y16852619D01*
X10620238Y17852619D02*
X10144047Y17852619D01*
X10096428Y17376428D01*
X10144047Y17424047D01*
X10239285Y17471666D01*
X10477380Y17471666D01*
X10572619Y17424047D01*
X10620238Y17376428D01*
X10667857Y17281190D01*
X10667857Y17043095D01*
X10620238Y16947857D01*
X10572619Y16900238D01*
X10477380Y16852619D01*
X10239285Y16852619D01*
X10144047Y16900238D01*
X10096428Y16947857D01*
X28845000Y15772857D02*
X30845000Y12772857D01*
X30845000Y15772857D02*
X28845000Y12772857D01*
X-12707857Y-11532142D02*
X-12755476Y-11579761D01*
X-12898333Y-11627380D01*
X-12993571Y-11627380D01*
X-13136428Y-11579761D01*
X-13231666Y-11484523D01*
X-13279285Y-11389285D01*
X-13326904Y-11198809D01*
X-13326904Y-11055952D01*
X-13279285Y-10865476D01*
X-13231666Y-10770238D01*
X-13136428Y-10675000D01*
X-12993571Y-10627380D01*
X-12898333Y-10627380D01*
X-12755476Y-10675000D01*
X-12707857Y-10722619D01*
X-11755476Y-11627380D02*
X-12326904Y-11627380D01*
X-12041190Y-11627380D02*
X-12041190Y-10627380D01*
X-12136428Y-10770238D01*
X-12231666Y-10865476D01*
X-12326904Y-10913095D01*
X-11374523Y-10722619D02*
X-11326904Y-10675000D01*
X-11231666Y-10627380D01*
X-10993571Y-10627380D01*
X-10898333Y-10675000D01*
X-10850714Y-10722619D01*
X-10803095Y-10817857D01*
X-10803095Y-10913095D01*
X-10850714Y-11055952D01*
X-11422142Y-11627380D01*
X-10803095Y-11627380D01*
X-13072857Y-23977857D02*
X-13025238Y-24025476D01*
X-12977619Y-24168333D01*
X-12977619Y-24263571D01*
X-13025238Y-24406428D01*
X-13120476Y-24501666D01*
X-13215714Y-24549285D01*
X-13406190Y-24596904D01*
X-13549047Y-24596904D01*
X-13739523Y-24549285D01*
X-13834761Y-24501666D01*
X-13930000Y-24406428D01*
X-13977619Y-24263571D01*
X-13977619Y-24168333D01*
X-13930000Y-24025476D01*
X-13882380Y-23977857D01*
X-12977619Y-23025476D02*
X-12977619Y-23596904D01*
X-12977619Y-23311190D02*
X-13977619Y-23311190D01*
X-13834761Y-23406428D01*
X-13739523Y-23501666D01*
X-13691904Y-23596904D01*
X-13977619Y-22406428D02*
X-13977619Y-22311190D01*
X-13930000Y-22215952D01*
X-13882380Y-22168333D01*
X-13787142Y-22120714D01*
X-13596666Y-22073095D01*
X-13358571Y-22073095D01*
X-13168095Y-22120714D01*
X-13072857Y-22168333D01*
X-13025238Y-22215952D01*
X-12977619Y-22311190D01*
X-12977619Y-22406428D01*
X-13025238Y-22501666D01*
X-13072857Y-22549285D01*
X-13168095Y-22596904D01*
X-13358571Y-22644523D01*
X-13596666Y-22644523D01*
X-13787142Y-22596904D01*
X-13882380Y-22549285D01*
X-13930000Y-22501666D01*
X-13977619Y-22406428D01*
X16502142Y33457857D02*
X16454523Y33410238D01*
X16311666Y33362619D01*
X16216428Y33362619D01*
X16073571Y33410238D01*
X15978333Y33505476D01*
X15930714Y33600714D01*
X15883095Y33791190D01*
X15883095Y33934047D01*
X15930714Y34124523D01*
X15978333Y34219761D01*
X16073571Y34315000D01*
X16216428Y34362619D01*
X16311666Y34362619D01*
X16454523Y34315000D01*
X16502142Y34267380D01*
X17454523Y33362619D02*
X16883095Y33362619D01*
X17168809Y33362619D02*
X17168809Y34362619D01*
X17073571Y34219761D01*
X16978333Y34124523D01*
X16883095Y34076904D01*
X18311666Y34362619D02*
X18121190Y34362619D01*
X18025952Y34315000D01*
X17978333Y34267380D01*
X17883095Y34124523D01*
X17835476Y33934047D01*
X17835476Y33553095D01*
X17883095Y33457857D01*
X17930714Y33410238D01*
X18025952Y33362619D01*
X18216428Y33362619D01*
X18311666Y33410238D01*
X18359285Y33457857D01*
X18406904Y33553095D01*
X18406904Y33791190D01*
X18359285Y33886428D01*
X18311666Y33934047D01*
X18216428Y33981666D01*
X18025952Y33981666D01*
X17930714Y33934047D01*
X17883095Y33886428D01*
X17835476Y33791190D01*
X-4452857Y10597857D02*
X-4500476Y10550238D01*
X-4643333Y10502619D01*
X-4738571Y10502619D01*
X-4881428Y10550238D01*
X-4976666Y10645476D01*
X-5024285Y10740714D01*
X-5071904Y10931190D01*
X-5071904Y11074047D01*
X-5024285Y11264523D01*
X-4976666Y11359761D01*
X-4881428Y11455000D01*
X-4738571Y11502619D01*
X-4643333Y11502619D01*
X-4500476Y11455000D01*
X-4452857Y11407380D01*
X-3500476Y10502619D02*
X-4071904Y10502619D01*
X-3786190Y10502619D02*
X-3786190Y11502619D01*
X-3881428Y11359761D01*
X-3976666Y11264523D01*
X-4071904Y11216904D01*
X-2595714Y11502619D02*
X-3071904Y11502619D01*
X-3119523Y11026428D01*
X-3071904Y11074047D01*
X-2976666Y11121666D01*
X-2738571Y11121666D01*
X-2643333Y11074047D01*
X-2595714Y11026428D01*
X-2548095Y10931190D01*
X-2548095Y10693095D01*
X-2595714Y10597857D01*
X-2643333Y10550238D01*
X-2738571Y10502619D01*
X-2976666Y10502619D01*
X-3071904Y10550238D01*
X-3119523Y10597857D01*
X11047142Y3612857D02*
X10999523Y3565238D01*
X10856666Y3517619D01*
X10761428Y3517619D01*
X10618571Y3565238D01*
X10523333Y3660476D01*
X10475714Y3755714D01*
X10428095Y3946190D01*
X10428095Y4089047D01*
X10475714Y4279523D01*
X10523333Y4374761D01*
X10618571Y4470000D01*
X10761428Y4517619D01*
X10856666Y4517619D01*
X10999523Y4470000D01*
X11047142Y4422380D01*
X11999523Y3517619D02*
X11428095Y3517619D01*
X11713809Y3517619D02*
X11713809Y4517619D01*
X11618571Y4374761D01*
X11523333Y4279523D01*
X11428095Y4231904D01*
X12332857Y4517619D02*
X12951904Y4517619D01*
X12618571Y4136666D01*
X12761428Y4136666D01*
X12856666Y4089047D01*
X12904285Y4041428D01*
X12951904Y3946190D01*
X12951904Y3708095D01*
X12904285Y3612857D01*
X12856666Y3565238D01*
X12761428Y3517619D01*
X12475714Y3517619D01*
X12380476Y3565238D01*
X12332857Y3612857D01*
X-4452857Y33457857D02*
X-4500476Y33410238D01*
X-4643333Y33362619D01*
X-4738571Y33362619D01*
X-4881428Y33410238D01*
X-4976666Y33505476D01*
X-5024285Y33600714D01*
X-5071904Y33791190D01*
X-5071904Y33934047D01*
X-5024285Y34124523D01*
X-4976666Y34219761D01*
X-4881428Y34315000D01*
X-4738571Y34362619D01*
X-4643333Y34362619D01*
X-4500476Y34315000D01*
X-4452857Y34267380D01*
X-3500476Y33362619D02*
X-4071904Y33362619D01*
X-3786190Y33362619D02*
X-3786190Y34362619D01*
X-3881428Y34219761D01*
X-3976666Y34124523D01*
X-4071904Y34076904D01*
X-2643333Y34029285D02*
X-2643333Y33362619D01*
X-2881428Y34410238D02*
X-3119523Y33695952D01*
X-2500476Y33695952D01*
X16176666Y-37392380D02*
X16176666Y-38106666D01*
X16129047Y-38249523D01*
X16033809Y-38344761D01*
X15890952Y-38392380D01*
X15795714Y-38392380D01*
X16700476Y-38392380D02*
X16890952Y-38392380D01*
X16986190Y-38344761D01*
X17033809Y-38297142D01*
X17129047Y-38154285D01*
X17176666Y-37963809D01*
X17176666Y-37582857D01*
X17129047Y-37487619D01*
X17081428Y-37440000D01*
X16986190Y-37392380D01*
X16795714Y-37392380D01*
X16700476Y-37440000D01*
X16652857Y-37487619D01*
X16605238Y-37582857D01*
X16605238Y-37820952D01*
X16652857Y-37916190D01*
X16700476Y-37963809D01*
X16795714Y-38011428D01*
X16986190Y-38011428D01*
X17081428Y-37963809D01*
X17129047Y-37916190D01*
X17176666Y-37820952D01*
X18875476Y-4372380D02*
X18875476Y-5086666D01*
X18827857Y-5229523D01*
X18732619Y-5324761D01*
X18589761Y-5372380D01*
X18494523Y-5372380D01*
X19875476Y-5372380D02*
X19304047Y-5372380D01*
X19589761Y-5372380D02*
X19589761Y-4372380D01*
X19494523Y-4515238D01*
X19399285Y-4610476D01*
X19304047Y-4658095D01*
X20208809Y-4372380D02*
X20827857Y-4372380D01*
X20494523Y-4753333D01*
X20637380Y-4753333D01*
X20732619Y-4800952D01*
X20780238Y-4848571D01*
X20827857Y-4943809D01*
X20827857Y-5181904D01*
X20780238Y-5277142D01*
X20732619Y-5324761D01*
X20637380Y-5372380D01*
X20351666Y-5372380D01*
X20256428Y-5324761D01*
X20208809Y-5277142D01*
X-5889523Y-3102380D02*
X-5889523Y-3816666D01*
X-5937142Y-3959523D01*
X-6032380Y-4054761D01*
X-6175238Y-4102380D01*
X-6270476Y-4102380D01*
X-4889523Y-4102380D02*
X-5460952Y-4102380D01*
X-5175238Y-4102380D02*
X-5175238Y-3102380D01*
X-5270476Y-3245238D01*
X-5365714Y-3340476D01*
X-5460952Y-3388095D01*
X-4032380Y-3435714D02*
X-4032380Y-4102380D01*
X-4270476Y-3054761D02*
X-4508571Y-3769047D01*
X-3889523Y-3769047D01*
X5540476Y18487619D02*
X5540476Y17773333D01*
X5492857Y17630476D01*
X5397619Y17535238D01*
X5254761Y17487619D01*
X5159523Y17487619D01*
X6540476Y17487619D02*
X5969047Y17487619D01*
X6254761Y17487619D02*
X6254761Y18487619D01*
X6159523Y18344761D01*
X6064285Y18249523D01*
X5969047Y18201904D01*
X7445238Y18487619D02*
X6969047Y18487619D01*
X6921428Y18011428D01*
X6969047Y18059047D01*
X7064285Y18106666D01*
X7302380Y18106666D01*
X7397619Y18059047D01*
X7445238Y18011428D01*
X7492857Y17916190D01*
X7492857Y17678095D01*
X7445238Y17582857D01*
X7397619Y17535238D01*
X7302380Y17487619D01*
X7064285Y17487619D01*
X6969047Y17535238D01*
X6921428Y17582857D01*
X28400476Y19757619D02*
X28400476Y19043333D01*
X28352857Y18900476D01*
X28257619Y18805238D01*
X28114761Y18757619D01*
X28019523Y18757619D01*
X29400476Y18757619D02*
X28829047Y18757619D01*
X29114761Y18757619D02*
X29114761Y19757619D01*
X29019523Y19614761D01*
X28924285Y19519523D01*
X28829047Y19471904D01*
X30257619Y19757619D02*
X30067142Y19757619D01*
X29971904Y19710000D01*
X29924285Y19662380D01*
X29829047Y19519523D01*
X29781428Y19329047D01*
X29781428Y18948095D01*
X29829047Y18852857D01*
X29876666Y18805238D01*
X29971904Y18757619D01*
X30162380Y18757619D01*
X30257619Y18805238D01*
X30305238Y18852857D01*
X30352857Y18948095D01*
X30352857Y19186190D01*
X30305238Y19281428D01*
X30257619Y19329047D01*
X30162380Y19376666D01*
X29971904Y19376666D01*
X29876666Y19329047D01*
X29829047Y19281428D01*
X29781428Y19186190D01*
X18502380Y27290476D02*
X19216666Y27290476D01*
X19359523Y27242857D01*
X19454761Y27147619D01*
X19502380Y27004761D01*
X19502380Y26909523D01*
X19502380Y28290476D02*
X19502380Y27719047D01*
X19502380Y28004761D02*
X18502380Y28004761D01*
X18645238Y27909523D01*
X18740476Y27814285D01*
X18788095Y27719047D01*
X18502380Y28623809D02*
X18502380Y29290476D01*
X19502380Y28861904D01*
X26122380Y10780476D02*
X26836666Y10780476D01*
X26979523Y10732857D01*
X27074761Y10637619D01*
X27122380Y10494761D01*
X27122380Y10399523D01*
X27122380Y11780476D02*
X27122380Y11209047D01*
X27122380Y11494761D02*
X26122380Y11494761D01*
X26265238Y11399523D01*
X26360476Y11304285D01*
X26408095Y11209047D01*
X26550952Y12351904D02*
X26503333Y12256666D01*
X26455714Y12209047D01*
X26360476Y12161428D01*
X26312857Y12161428D01*
X26217619Y12209047D01*
X26170000Y12256666D01*
X26122380Y12351904D01*
X26122380Y12542380D01*
X26170000Y12637619D01*
X26217619Y12685238D01*
X26312857Y12732857D01*
X26360476Y12732857D01*
X26455714Y12685238D01*
X26503333Y12637619D01*
X26550952Y12542380D01*
X26550952Y12351904D01*
X26598571Y12256666D01*
X26646190Y12209047D01*
X26741428Y12161428D01*
X26931904Y12161428D01*
X27027142Y12209047D01*
X27074761Y12256666D01*
X27122380Y12351904D01*
X27122380Y12542380D01*
X27074761Y12637619D01*
X27027142Y12685238D01*
X26931904Y12732857D01*
X26741428Y12732857D01*
X26646190Y12685238D01*
X26598571Y12637619D01*
X26550952Y12542380D01*
X-3087619Y4430476D02*
X-2373333Y4430476D01*
X-2230476Y4382857D01*
X-2135238Y4287619D01*
X-2087619Y4144761D01*
X-2087619Y4049523D01*
X-2087619Y5430476D02*
X-2087619Y4859047D01*
X-2087619Y5144761D02*
X-3087619Y5144761D01*
X-2944761Y5049523D01*
X-2849523Y4954285D01*
X-2801904Y4859047D01*
X-2087619Y5906666D02*
X-2087619Y6097142D01*
X-2135238Y6192380D01*
X-2182857Y6240000D01*
X-2325714Y6335238D01*
X-2516190Y6382857D01*
X-2897142Y6382857D01*
X-2992380Y6335238D01*
X-3040000Y6287619D01*
X-3087619Y6192380D01*
X-3087619Y6001904D01*
X-3040000Y5906666D01*
X-2992380Y5859047D01*
X-2897142Y5811428D01*
X-2659047Y5811428D01*
X-2563809Y5859047D01*
X-2516190Y5906666D01*
X-2468571Y6001904D01*
X-2468571Y6192380D01*
X-2516190Y6287619D01*
X-2563809Y6335238D01*
X-2659047Y6382857D01*
X-3087619Y27290476D02*
X-2373333Y27290476D01*
X-2230476Y27242857D01*
X-2135238Y27147619D01*
X-2087619Y27004761D01*
X-2087619Y26909523D01*
X-2992380Y27719047D02*
X-3040000Y27766666D01*
X-3087619Y27861904D01*
X-3087619Y28100000D01*
X-3040000Y28195238D01*
X-2992380Y28242857D01*
X-2897142Y28290476D01*
X-2801904Y28290476D01*
X-2659047Y28242857D01*
X-2087619Y27671428D01*
X-2087619Y28290476D01*
X-3087619Y28909523D02*
X-3087619Y29004761D01*
X-3040000Y29100000D01*
X-2992380Y29147619D01*
X-2897142Y29195238D01*
X-2706666Y29242857D01*
X-2468571Y29242857D01*
X-2278095Y29195238D01*
X-2182857Y29147619D01*
X-2135238Y29100000D01*
X-2087619Y29004761D01*
X-2087619Y28909523D01*
X-2135238Y28814285D01*
X-2182857Y28766666D01*
X-2278095Y28719047D01*
X-2468571Y28671428D01*
X-2706666Y28671428D01*
X-2897142Y28719047D01*
X-2992380Y28766666D01*
X-3040000Y28814285D01*
X-3087619Y28909523D01*
X28662380Y1303095D02*
X29471904Y1303095D01*
X29567142Y1350714D01*
X29614761Y1398333D01*
X29662380Y1493571D01*
X29662380Y1684047D01*
X29614761Y1779285D01*
X29567142Y1826904D01*
X29471904Y1874523D01*
X28662380Y1874523D01*
X29662380Y2874523D02*
X29662380Y2303095D01*
X29662380Y2588809D02*
X28662380Y2588809D01*
X28805238Y2493571D01*
X28900476Y2398333D01*
X28948095Y2303095D01*
X8128095Y707619D02*
X8128095Y-101904D01*
X8175714Y-197142D01*
X8223333Y-244761D01*
X8318571Y-292380D01*
X8509047Y-292380D01*
X8604285Y-244761D01*
X8651904Y-197142D01*
X8699523Y-101904D01*
X8699523Y707619D01*
X9128095Y612380D02*
X9175714Y660000D01*
X9270952Y707619D01*
X9509047Y707619D01*
X9604285Y660000D01*
X9651904Y612380D01*
X9699523Y517142D01*
X9699523Y421904D01*
X9651904Y279047D01*
X9080476Y-292380D01*
X9699523Y-292380D01*
X-13461904Y23567619D02*
X-13461904Y22758095D01*
X-13414285Y22662857D01*
X-13366666Y22615238D01*
X-13271428Y22567619D01*
X-13080952Y22567619D01*
X-12985714Y22615238D01*
X-12938095Y22662857D01*
X-12890476Y22758095D01*
X-12890476Y23567619D01*
X-12509523Y23567619D02*
X-11890476Y23567619D01*
X-12223809Y23186666D01*
X-12080952Y23186666D01*
X-11985714Y23139047D01*
X-11938095Y23091428D01*
X-11890476Y22996190D01*
X-11890476Y22758095D01*
X-11938095Y22662857D01*
X-11985714Y22615238D01*
X-12080952Y22567619D01*
X-12366666Y22567619D01*
X-12461904Y22615238D01*
X-12509523Y22662857D01*
X7493095Y23567619D02*
X7493095Y22758095D01*
X7540714Y22662857D01*
X7588333Y22615238D01*
X7683571Y22567619D01*
X7874047Y22567619D01*
X7969285Y22615238D01*
X8016904Y22662857D01*
X8064523Y22758095D01*
X8064523Y23567619D01*
X8969285Y23234285D02*
X8969285Y22567619D01*
X8731190Y23615238D02*
X8493095Y22900952D01*
X9112142Y22900952D01*
X15962380Y4430476D02*
X16676666Y4430476D01*
X16819523Y4382857D01*
X16914761Y4287619D01*
X16962380Y4144761D01*
X16962380Y4049523D01*
X16057619Y4859047D02*
X16010000Y4906666D01*
X15962380Y5001904D01*
X15962380Y5240000D01*
X16010000Y5335238D01*
X16057619Y5382857D01*
X16152857Y5430476D01*
X16248095Y5430476D01*
X16390952Y5382857D01*
X16962380Y4811428D01*
X16962380Y5430476D01*
X16962380Y6382857D02*
X16962380Y5811428D01*
X16962380Y6097142D02*
X15962380Y6097142D01*
X16105238Y6001904D01*
X16200476Y5906666D01*
X16248095Y5811428D01*
X-4357619Y4430476D02*
X-3643333Y4430476D01*
X-3500476Y4382857D01*
X-3405238Y4287619D01*
X-3357619Y4144761D01*
X-3357619Y4049523D01*
X-4262380Y4859047D02*
X-4310000Y4906666D01*
X-4357619Y5001904D01*
X-4357619Y5240000D01*
X-4310000Y5335238D01*
X-4262380Y5382857D01*
X-4167142Y5430476D01*
X-4071904Y5430476D01*
X-3929047Y5382857D01*
X-3357619Y4811428D01*
X-3357619Y5430476D01*
X-4262380Y5811428D02*
X-4310000Y5859047D01*
X-4357619Y5954285D01*
X-4357619Y6192380D01*
X-4310000Y6287619D01*
X-4262380Y6335238D01*
X-4167142Y6382857D01*
X-4071904Y6382857D01*
X-3929047Y6335238D01*
X-3357619Y5763809D01*
X-3357619Y6382857D01*
X-4357619Y27290476D02*
X-3643333Y27290476D01*
X-3500476Y27242857D01*
X-3405238Y27147619D01*
X-3357619Y27004761D01*
X-3357619Y26909523D01*
X-4262380Y27719047D02*
X-4310000Y27766666D01*
X-4357619Y27861904D01*
X-4357619Y28100000D01*
X-4310000Y28195238D01*
X-4262380Y28242857D01*
X-4167142Y28290476D01*
X-4071904Y28290476D01*
X-3929047Y28242857D01*
X-3357619Y27671428D01*
X-3357619Y28290476D01*
X-4357619Y28623809D02*
X-4357619Y29242857D01*
X-3976666Y28909523D01*
X-3976666Y29052380D01*
X-3929047Y29147619D01*
X-3881428Y29195238D01*
X-3786190Y29242857D01*
X-3548095Y29242857D01*
X-3452857Y29195238D01*
X-3405238Y29147619D01*
X-3357619Y29052380D01*
X-3357619Y28766666D01*
X-3405238Y28671428D01*
X-3452857Y28623809D01*
X17232380Y27290476D02*
X17946666Y27290476D01*
X18089523Y27242857D01*
X18184761Y27147619D01*
X18232380Y27004761D01*
X18232380Y26909523D01*
X17327619Y27719047D02*
X17280000Y27766666D01*
X17232380Y27861904D01*
X17232380Y28100000D01*
X17280000Y28195238D01*
X17327619Y28242857D01*
X17422857Y28290476D01*
X17518095Y28290476D01*
X17660952Y28242857D01*
X18232380Y27671428D01*
X18232380Y28290476D01*
X17565714Y29147619D02*
X18232380Y29147619D01*
X17184761Y28909523D02*
X17899047Y28671428D01*
X17899047Y29290476D01*
X1730476Y-4372380D02*
X1730476Y-5086666D01*
X1682857Y-5229523D01*
X1587619Y-5324761D01*
X1444761Y-5372380D01*
X1349523Y-5372380D01*
X2111428Y-4372380D02*
X2730476Y-4372380D01*
X2397142Y-4753333D01*
X2540000Y-4753333D01*
X2635238Y-4800952D01*
X2682857Y-4848571D01*
X2730476Y-4943809D01*
X2730476Y-5181904D01*
X2682857Y-5277142D01*
X2635238Y-5324761D01*
X2540000Y-5372380D01*
X2254285Y-5372380D01*
X2159047Y-5324761D01*
X2111428Y-5277142D01*
X3682857Y-5372380D02*
X3111428Y-5372380D01*
X3397142Y-5372380D02*
X3397142Y-4372380D01*
X3301904Y-4515238D01*
X3206666Y-4610476D01*
X3111428Y-4658095D01*
X-16809523Y8962619D02*
X-16809523Y8248333D01*
X-16857142Y8105476D01*
X-16952380Y8010238D01*
X-17095238Y7962619D01*
X-17190476Y7962619D01*
X-15809523Y7962619D02*
X-16380952Y7962619D01*
X-16095238Y7962619D02*
X-16095238Y8962619D01*
X-16190476Y8819761D01*
X-16285714Y8724523D01*
X-16380952Y8676904D01*
X-15428571Y8867380D02*
X-15380952Y8915000D01*
X-15285714Y8962619D01*
X-15047619Y8962619D01*
X-14952380Y8915000D01*
X-14904761Y8867380D01*
X-14857142Y8772142D01*
X-14857142Y8676904D01*
X-14904761Y8534047D01*
X-15476190Y7962619D01*
X-14857142Y7962619D01*
X28027380Y-19699523D02*
X28741666Y-19699523D01*
X28884523Y-19747142D01*
X28979761Y-19842380D01*
X29027380Y-19985238D01*
X29027380Y-20080476D01*
X29027380Y-18699523D02*
X29027380Y-19270952D01*
X29027380Y-18985238D02*
X28027380Y-18985238D01*
X28170238Y-19080476D01*
X28265476Y-19175714D01*
X28313095Y-19270952D01*
X28027380Y-18080476D02*
X28027380Y-17985238D01*
X28075000Y-17890000D01*
X28122619Y-17842380D01*
X28217857Y-17794761D01*
X28408333Y-17747142D01*
X28646428Y-17747142D01*
X28836904Y-17794761D01*
X28932142Y-17842380D01*
X28979761Y-17890000D01*
X29027380Y-17985238D01*
X29027380Y-18080476D01*
X28979761Y-18175714D01*
X28932142Y-18223333D01*
X28836904Y-18270952D01*
X28646428Y-18318571D01*
X28408333Y-18318571D01*
X28217857Y-18270952D01*
X28122619Y-18223333D01*
X28075000Y-18175714D01*
X28027380Y-18080476D01*
X31384761Y-21096428D02*
X29384761Y-21096428D01*
X30337142Y-21096428D02*
X30337142Y-19953571D01*
X31384761Y-19953571D02*
X29384761Y-19953571D01*
X30337142Y-18334523D02*
X30432380Y-18048809D01*
X30527619Y-17953571D01*
X30718095Y-17858333D01*
X31003809Y-17858333D01*
X31194285Y-17953571D01*
X31289523Y-18048809D01*
X31384761Y-18239285D01*
X31384761Y-19001190D01*
X29384761Y-19001190D01*
X29384761Y-18334523D01*
X29480000Y-18144047D01*
X29575238Y-18048809D01*
X29765714Y-17953571D01*
X29956190Y-17953571D01*
X30146666Y-18048809D01*
X30241904Y-18144047D01*
X30337142Y-18334523D01*
X30337142Y-19001190D01*
X-26368333Y11502619D02*
X-26368333Y10788333D01*
X-26415952Y10645476D01*
X-26511190Y10550238D01*
X-26654047Y10502619D01*
X-26749285Y10502619D01*
X-25749285Y11074047D02*
X-25844523Y11121666D01*
X-25892142Y11169285D01*
X-25939761Y11264523D01*
X-25939761Y11312142D01*
X-25892142Y11407380D01*
X-25844523Y11455000D01*
X-25749285Y11502619D01*
X-25558809Y11502619D01*
X-25463571Y11455000D01*
X-25415952Y11407380D01*
X-25368333Y11312142D01*
X-25368333Y11264523D01*
X-25415952Y11169285D01*
X-25463571Y11121666D01*
X-25558809Y11074047D01*
X-25749285Y11074047D01*
X-25844523Y11026428D01*
X-25892142Y10978809D01*
X-25939761Y10883571D01*
X-25939761Y10693095D01*
X-25892142Y10597857D01*
X-25844523Y10550238D01*
X-25749285Y10502619D01*
X-25558809Y10502619D01*
X-25463571Y10550238D01*
X-25415952Y10597857D01*
X-25368333Y10693095D01*
X-25368333Y10883571D01*
X-25415952Y10978809D01*
X-25463571Y11026428D01*
X-25558809Y11074047D01*
X-31146428Y23162857D02*
X-31813095Y23162857D01*
X-31813095Y22115238D02*
X-31813095Y24115238D01*
X-30860714Y24115238D01*
X-30194047Y22686666D02*
X-29241666Y22686666D01*
X-30384523Y22115238D02*
X-29717857Y24115238D01*
X-29051190Y22115238D01*
X-28384523Y22115238D02*
X-28384523Y24115238D01*
X-27241666Y22115238D01*
X-27241666Y24115238D01*
X-25908333Y24115238D02*
X-25717857Y24115238D01*
X-25527380Y24020000D01*
X-25432142Y23924761D01*
X-25336904Y23734285D01*
X-25241666Y23353333D01*
X-25241666Y22877142D01*
X-25336904Y22496190D01*
X-25432142Y22305714D01*
X-25527380Y22210476D01*
X-25717857Y22115238D01*
X-25908333Y22115238D01*
X-26098809Y22210476D01*
X-26194047Y22305714D01*
X-26289285Y22496190D01*
X-26384523Y22877142D01*
X-26384523Y23353333D01*
X-26289285Y23734285D01*
X-26194047Y23924761D01*
X-26098809Y24020000D01*
X-25908333Y24115238D01*
X29932380Y-37003333D02*
X30646666Y-37003333D01*
X30789523Y-37050952D01*
X30884761Y-37146190D01*
X30932380Y-37289047D01*
X30932380Y-37384285D01*
X29932380Y-36622380D02*
X29932380Y-35955714D01*
X30932380Y-36384285D01*
X36052142Y-43130952D02*
X36052142Y-42464285D01*
X37099761Y-42178571D02*
X37099761Y-43130952D01*
X35099761Y-43130952D01*
X35099761Y-42178571D01*
X35099761Y-40940476D02*
X35099761Y-40750000D01*
X35195000Y-40559523D01*
X35290238Y-40464285D01*
X35480714Y-40369047D01*
X35861666Y-40273809D01*
X36337857Y-40273809D01*
X36718809Y-40369047D01*
X36909285Y-40464285D01*
X37004523Y-40559523D01*
X37099761Y-40750000D01*
X37099761Y-40940476D01*
X37004523Y-41130952D01*
X36909285Y-41226190D01*
X36718809Y-41321428D01*
X36337857Y-41416666D01*
X35861666Y-41416666D01*
X35480714Y-41321428D01*
X35290238Y-41226190D01*
X35195000Y-41130952D01*
X35099761Y-40940476D01*
X-28114523Y38807619D02*
X-28114523Y38093333D01*
X-28162142Y37950476D01*
X-28257380Y37855238D01*
X-28400238Y37807619D01*
X-28495476Y37807619D01*
X-27114523Y37807619D02*
X-27685952Y37807619D01*
X-27400238Y37807619D02*
X-27400238Y38807619D01*
X-27495476Y38664761D01*
X-27590714Y38569523D01*
X-27685952Y38521904D01*
X-26162142Y37807619D02*
X-26733571Y37807619D01*
X-26447857Y37807619D02*
X-26447857Y38807619D01*
X-26543095Y38664761D01*
X-26638333Y38569523D01*
X-26733571Y38521904D01*
X-31146428Y36497857D02*
X-31813095Y36497857D01*
X-31813095Y35450238D02*
X-31813095Y37450238D01*
X-30860714Y37450238D01*
X-30194047Y36021666D02*
X-29241666Y36021666D01*
X-30384523Y35450238D02*
X-29717857Y37450238D01*
X-29051190Y35450238D01*
X-28384523Y35450238D02*
X-28384523Y37450238D01*
X-27241666Y35450238D01*
X-27241666Y37450238D01*
X-25241666Y35450238D02*
X-26384523Y35450238D01*
X-25813095Y35450238D02*
X-25813095Y37450238D01*
X-26003571Y37164523D01*
X-26194047Y36974047D01*
X-26384523Y36878809D01*
X13160476Y-29772380D02*
X13160476Y-30486666D01*
X13112857Y-30629523D01*
X13017619Y-30724761D01*
X12874761Y-30772380D01*
X12779523Y-30772380D01*
X13589047Y-29867619D02*
X13636666Y-29820000D01*
X13731904Y-29772380D01*
X13970000Y-29772380D01*
X14065238Y-29820000D01*
X14112857Y-29867619D01*
X14160476Y-29962857D01*
X14160476Y-30058095D01*
X14112857Y-30200952D01*
X13541428Y-30772380D01*
X14160476Y-30772380D01*
X14636666Y-30772380D02*
X14827142Y-30772380D01*
X14922380Y-30724761D01*
X14970000Y-30677142D01*
X15065238Y-30534285D01*
X15112857Y-30343809D01*
X15112857Y-29962857D01*
X15065238Y-29867619D01*
X15017619Y-29820000D01*
X14922380Y-29772380D01*
X14731904Y-29772380D01*
X14636666Y-29820000D01*
X14589047Y-29867619D01*
X14541428Y-29962857D01*
X14541428Y-30200952D01*
X14589047Y-30296190D01*
X14636666Y-30343809D01*
X14731904Y-30391428D01*
X14922380Y-30391428D01*
X15017619Y-30343809D01*
X15065238Y-30296190D01*
X15112857Y-30200952D01*
M02*
