G04 #@! TF.GenerationSoftware,KiCad,Pcbnew,5.1.5+dfsg1-2build2*
G04 #@! TF.CreationDate,2020-12-13T22:45:39+09:00*
G04 #@! TF.ProjectId,Klipper,4b6c6970-7065-4722-9e6b-696361645f70,rev?*
G04 #@! TF.SameCoordinates,Original*
G04 #@! TF.FileFunction,Paste,Top*
G04 #@! TF.FilePolarity,Positive*
%FSLAX46Y46*%
G04 Gerber Fmt 4.6, Leading zero omitted, Abs format (unit mm)*
G04 Created by KiCad (PCBNEW 5.1.5+dfsg1-2build2) date 2020-12-13 22:45:39*
%MOMM*%
%LPD*%
G04 APERTURE LIST*
%ADD10R,1.800000X3.500000*%
%ADD11C,0.100000*%
%ADD12R,2.750000X3.050000*%
%ADD13R,1.200000X2.200000*%
%ADD14R,3.050000X2.750000*%
%ADD15R,2.200000X1.200000*%
G04 APERTURE END LIST*
D10*
X17780000Y-8770000D03*
X17780000Y-13770000D03*
X10795000Y-13815000D03*
X10795000Y-8815000D03*
D11*
G36*
X-20232309Y-29846053D02*
G01*
X-20211074Y-29849203D01*
X-20190250Y-29854419D01*
X-20170038Y-29861651D01*
X-20150632Y-29870830D01*
X-20132219Y-29881866D01*
X-20114976Y-29894654D01*
X-20099070Y-29909070D01*
X-20084654Y-29924976D01*
X-20071866Y-29942219D01*
X-20060830Y-29960632D01*
X-20051651Y-29980038D01*
X-20044419Y-30000250D01*
X-20039203Y-30021074D01*
X-20036053Y-30042309D01*
X-20035000Y-30063750D01*
X-20035000Y-30576250D01*
X-20036053Y-30597691D01*
X-20039203Y-30618926D01*
X-20044419Y-30639750D01*
X-20051651Y-30659962D01*
X-20060830Y-30679368D01*
X-20071866Y-30697781D01*
X-20084654Y-30715024D01*
X-20099070Y-30730930D01*
X-20114976Y-30745346D01*
X-20132219Y-30758134D01*
X-20150632Y-30769170D01*
X-20170038Y-30778349D01*
X-20190250Y-30785581D01*
X-20211074Y-30790797D01*
X-20232309Y-30793947D01*
X-20253750Y-30795000D01*
X-20691250Y-30795000D01*
X-20712691Y-30793947D01*
X-20733926Y-30790797D01*
X-20754750Y-30785581D01*
X-20774962Y-30778349D01*
X-20794368Y-30769170D01*
X-20812781Y-30758134D01*
X-20830024Y-30745346D01*
X-20845930Y-30730930D01*
X-20860346Y-30715024D01*
X-20873134Y-30697781D01*
X-20884170Y-30679368D01*
X-20893349Y-30659962D01*
X-20900581Y-30639750D01*
X-20905797Y-30618926D01*
X-20908947Y-30597691D01*
X-20910000Y-30576250D01*
X-20910000Y-30063750D01*
X-20908947Y-30042309D01*
X-20905797Y-30021074D01*
X-20900581Y-30000250D01*
X-20893349Y-29980038D01*
X-20884170Y-29960632D01*
X-20873134Y-29942219D01*
X-20860346Y-29924976D01*
X-20845930Y-29909070D01*
X-20830024Y-29894654D01*
X-20812781Y-29881866D01*
X-20794368Y-29870830D01*
X-20774962Y-29861651D01*
X-20754750Y-29854419D01*
X-20733926Y-29849203D01*
X-20712691Y-29846053D01*
X-20691250Y-29845000D01*
X-20253750Y-29845000D01*
X-20232309Y-29846053D01*
G37*
G36*
X-18657309Y-29846053D02*
G01*
X-18636074Y-29849203D01*
X-18615250Y-29854419D01*
X-18595038Y-29861651D01*
X-18575632Y-29870830D01*
X-18557219Y-29881866D01*
X-18539976Y-29894654D01*
X-18524070Y-29909070D01*
X-18509654Y-29924976D01*
X-18496866Y-29942219D01*
X-18485830Y-29960632D01*
X-18476651Y-29980038D01*
X-18469419Y-30000250D01*
X-18464203Y-30021074D01*
X-18461053Y-30042309D01*
X-18460000Y-30063750D01*
X-18460000Y-30576250D01*
X-18461053Y-30597691D01*
X-18464203Y-30618926D01*
X-18469419Y-30639750D01*
X-18476651Y-30659962D01*
X-18485830Y-30679368D01*
X-18496866Y-30697781D01*
X-18509654Y-30715024D01*
X-18524070Y-30730930D01*
X-18539976Y-30745346D01*
X-18557219Y-30758134D01*
X-18575632Y-30769170D01*
X-18595038Y-30778349D01*
X-18615250Y-30785581D01*
X-18636074Y-30790797D01*
X-18657309Y-30793947D01*
X-18678750Y-30795000D01*
X-19116250Y-30795000D01*
X-19137691Y-30793947D01*
X-19158926Y-30790797D01*
X-19179750Y-30785581D01*
X-19199962Y-30778349D01*
X-19219368Y-30769170D01*
X-19237781Y-30758134D01*
X-19255024Y-30745346D01*
X-19270930Y-30730930D01*
X-19285346Y-30715024D01*
X-19298134Y-30697781D01*
X-19309170Y-30679368D01*
X-19318349Y-30659962D01*
X-19325581Y-30639750D01*
X-19330797Y-30618926D01*
X-19333947Y-30597691D01*
X-19335000Y-30576250D01*
X-19335000Y-30063750D01*
X-19333947Y-30042309D01*
X-19330797Y-30021074D01*
X-19325581Y-30000250D01*
X-19318349Y-29980038D01*
X-19309170Y-29960632D01*
X-19298134Y-29942219D01*
X-19285346Y-29924976D01*
X-19270930Y-29909070D01*
X-19255024Y-29894654D01*
X-19237781Y-29881866D01*
X-19219368Y-29870830D01*
X-19199962Y-29861651D01*
X-19179750Y-29854419D01*
X-19158926Y-29849203D01*
X-19137691Y-29846053D01*
X-19116250Y-29845000D01*
X-18678750Y-29845000D01*
X-18657309Y-29846053D01*
G37*
G36*
X-20384809Y-35561053D02*
G01*
X-20363574Y-35564203D01*
X-20342750Y-35569419D01*
X-20322538Y-35576651D01*
X-20303132Y-35585830D01*
X-20284719Y-35596866D01*
X-20267476Y-35609654D01*
X-20251570Y-35624070D01*
X-20237154Y-35639976D01*
X-20224366Y-35657219D01*
X-20213330Y-35675632D01*
X-20204151Y-35695038D01*
X-20196919Y-35715250D01*
X-20191703Y-35736074D01*
X-20188553Y-35757309D01*
X-20187500Y-35778750D01*
X-20187500Y-36291250D01*
X-20188553Y-36312691D01*
X-20191703Y-36333926D01*
X-20196919Y-36354750D01*
X-20204151Y-36374962D01*
X-20213330Y-36394368D01*
X-20224366Y-36412781D01*
X-20237154Y-36430024D01*
X-20251570Y-36445930D01*
X-20267476Y-36460346D01*
X-20284719Y-36473134D01*
X-20303132Y-36484170D01*
X-20322538Y-36493349D01*
X-20342750Y-36500581D01*
X-20363574Y-36505797D01*
X-20384809Y-36508947D01*
X-20406250Y-36510000D01*
X-20843750Y-36510000D01*
X-20865191Y-36508947D01*
X-20886426Y-36505797D01*
X-20907250Y-36500581D01*
X-20927462Y-36493349D01*
X-20946868Y-36484170D01*
X-20965281Y-36473134D01*
X-20982524Y-36460346D01*
X-20998430Y-36445930D01*
X-21012846Y-36430024D01*
X-21025634Y-36412781D01*
X-21036670Y-36394368D01*
X-21045849Y-36374962D01*
X-21053081Y-36354750D01*
X-21058297Y-36333926D01*
X-21061447Y-36312691D01*
X-21062500Y-36291250D01*
X-21062500Y-35778750D01*
X-21061447Y-35757309D01*
X-21058297Y-35736074D01*
X-21053081Y-35715250D01*
X-21045849Y-35695038D01*
X-21036670Y-35675632D01*
X-21025634Y-35657219D01*
X-21012846Y-35639976D01*
X-20998430Y-35624070D01*
X-20982524Y-35609654D01*
X-20965281Y-35596866D01*
X-20946868Y-35585830D01*
X-20927462Y-35576651D01*
X-20907250Y-35569419D01*
X-20886426Y-35564203D01*
X-20865191Y-35561053D01*
X-20843750Y-35560000D01*
X-20406250Y-35560000D01*
X-20384809Y-35561053D01*
G37*
G36*
X-18809809Y-35561053D02*
G01*
X-18788574Y-35564203D01*
X-18767750Y-35569419D01*
X-18747538Y-35576651D01*
X-18728132Y-35585830D01*
X-18709719Y-35596866D01*
X-18692476Y-35609654D01*
X-18676570Y-35624070D01*
X-18662154Y-35639976D01*
X-18649366Y-35657219D01*
X-18638330Y-35675632D01*
X-18629151Y-35695038D01*
X-18621919Y-35715250D01*
X-18616703Y-35736074D01*
X-18613553Y-35757309D01*
X-18612500Y-35778750D01*
X-18612500Y-36291250D01*
X-18613553Y-36312691D01*
X-18616703Y-36333926D01*
X-18621919Y-36354750D01*
X-18629151Y-36374962D01*
X-18638330Y-36394368D01*
X-18649366Y-36412781D01*
X-18662154Y-36430024D01*
X-18676570Y-36445930D01*
X-18692476Y-36460346D01*
X-18709719Y-36473134D01*
X-18728132Y-36484170D01*
X-18747538Y-36493349D01*
X-18767750Y-36500581D01*
X-18788574Y-36505797D01*
X-18809809Y-36508947D01*
X-18831250Y-36510000D01*
X-19268750Y-36510000D01*
X-19290191Y-36508947D01*
X-19311426Y-36505797D01*
X-19332250Y-36500581D01*
X-19352462Y-36493349D01*
X-19371868Y-36484170D01*
X-19390281Y-36473134D01*
X-19407524Y-36460346D01*
X-19423430Y-36445930D01*
X-19437846Y-36430024D01*
X-19450634Y-36412781D01*
X-19461670Y-36394368D01*
X-19470849Y-36374962D01*
X-19478081Y-36354750D01*
X-19483297Y-36333926D01*
X-19486447Y-36312691D01*
X-19487500Y-36291250D01*
X-19487500Y-35778750D01*
X-19486447Y-35757309D01*
X-19483297Y-35736074D01*
X-19478081Y-35715250D01*
X-19470849Y-35695038D01*
X-19461670Y-35675632D01*
X-19450634Y-35657219D01*
X-19437846Y-35639976D01*
X-19423430Y-35624070D01*
X-19407524Y-35609654D01*
X-19390281Y-35596866D01*
X-19371868Y-35585830D01*
X-19352462Y-35576651D01*
X-19332250Y-35569419D01*
X-19311426Y-35564203D01*
X-19290191Y-35561053D01*
X-19268750Y-35560000D01*
X-18831250Y-35560000D01*
X-18809809Y-35561053D01*
G37*
G36*
X11164504Y-21901204D02*
G01*
X11188773Y-21904804D01*
X11212571Y-21910765D01*
X11235671Y-21919030D01*
X11257849Y-21929520D01*
X11278893Y-21942133D01*
X11298598Y-21956747D01*
X11316777Y-21973223D01*
X11333253Y-21991402D01*
X11347867Y-22011107D01*
X11360480Y-22032151D01*
X11370970Y-22054329D01*
X11379235Y-22077429D01*
X11385196Y-22101227D01*
X11388796Y-22125496D01*
X11390000Y-22150000D01*
X11390000Y-23250000D01*
X11388796Y-23274504D01*
X11385196Y-23298773D01*
X11379235Y-23322571D01*
X11370970Y-23345671D01*
X11360480Y-23367849D01*
X11347867Y-23388893D01*
X11333253Y-23408598D01*
X11316777Y-23426777D01*
X11298598Y-23443253D01*
X11278893Y-23457867D01*
X11257849Y-23470480D01*
X11235671Y-23480970D01*
X11212571Y-23489235D01*
X11188773Y-23495196D01*
X11164504Y-23498796D01*
X11140000Y-23500000D01*
X8140000Y-23500000D01*
X8115496Y-23498796D01*
X8091227Y-23495196D01*
X8067429Y-23489235D01*
X8044329Y-23480970D01*
X8022151Y-23470480D01*
X8001107Y-23457867D01*
X7981402Y-23443253D01*
X7963223Y-23426777D01*
X7946747Y-23408598D01*
X7932133Y-23388893D01*
X7919520Y-23367849D01*
X7909030Y-23345671D01*
X7900765Y-23322571D01*
X7894804Y-23298773D01*
X7891204Y-23274504D01*
X7890000Y-23250000D01*
X7890000Y-22150000D01*
X7891204Y-22125496D01*
X7894804Y-22101227D01*
X7900765Y-22077429D01*
X7909030Y-22054329D01*
X7919520Y-22032151D01*
X7932133Y-22011107D01*
X7946747Y-21991402D01*
X7963223Y-21973223D01*
X7981402Y-21956747D01*
X8001107Y-21942133D01*
X8022151Y-21929520D01*
X8044329Y-21919030D01*
X8067429Y-21910765D01*
X8091227Y-21904804D01*
X8115496Y-21901204D01*
X8140000Y-21900000D01*
X11140000Y-21900000D01*
X11164504Y-21901204D01*
G37*
G36*
X16764504Y-21901204D02*
G01*
X16788773Y-21904804D01*
X16812571Y-21910765D01*
X16835671Y-21919030D01*
X16857849Y-21929520D01*
X16878893Y-21942133D01*
X16898598Y-21956747D01*
X16916777Y-21973223D01*
X16933253Y-21991402D01*
X16947867Y-22011107D01*
X16960480Y-22032151D01*
X16970970Y-22054329D01*
X16979235Y-22077429D01*
X16985196Y-22101227D01*
X16988796Y-22125496D01*
X16990000Y-22150000D01*
X16990000Y-23250000D01*
X16988796Y-23274504D01*
X16985196Y-23298773D01*
X16979235Y-23322571D01*
X16970970Y-23345671D01*
X16960480Y-23367849D01*
X16947867Y-23388893D01*
X16933253Y-23408598D01*
X16916777Y-23426777D01*
X16898598Y-23443253D01*
X16878893Y-23457867D01*
X16857849Y-23470480D01*
X16835671Y-23480970D01*
X16812571Y-23489235D01*
X16788773Y-23495196D01*
X16764504Y-23498796D01*
X16740000Y-23500000D01*
X13740000Y-23500000D01*
X13715496Y-23498796D01*
X13691227Y-23495196D01*
X13667429Y-23489235D01*
X13644329Y-23480970D01*
X13622151Y-23470480D01*
X13601107Y-23457867D01*
X13581402Y-23443253D01*
X13563223Y-23426777D01*
X13546747Y-23408598D01*
X13532133Y-23388893D01*
X13519520Y-23367849D01*
X13509030Y-23345671D01*
X13500765Y-23322571D01*
X13494804Y-23298773D01*
X13491204Y-23274504D01*
X13490000Y-23250000D01*
X13490000Y-22150000D01*
X13491204Y-22125496D01*
X13494804Y-22101227D01*
X13500765Y-22077429D01*
X13509030Y-22054329D01*
X13519520Y-22032151D01*
X13532133Y-22011107D01*
X13546747Y-21991402D01*
X13563223Y-21973223D01*
X13581402Y-21956747D01*
X13601107Y-21942133D01*
X13622151Y-21929520D01*
X13644329Y-21919030D01*
X13667429Y-21910765D01*
X13691227Y-21904804D01*
X13715496Y-21901204D01*
X13740000Y-21900000D01*
X16740000Y-21900000D01*
X16764504Y-21901204D01*
G37*
G36*
X30757691Y-24956053D02*
G01*
X30778926Y-24959203D01*
X30799750Y-24964419D01*
X30819962Y-24971651D01*
X30839368Y-24980830D01*
X30857781Y-24991866D01*
X30875024Y-25004654D01*
X30890930Y-25019070D01*
X30905346Y-25034976D01*
X30918134Y-25052219D01*
X30929170Y-25070632D01*
X30938349Y-25090038D01*
X30945581Y-25110250D01*
X30950797Y-25131074D01*
X30953947Y-25152309D01*
X30955000Y-25173750D01*
X30955000Y-25611250D01*
X30953947Y-25632691D01*
X30950797Y-25653926D01*
X30945581Y-25674750D01*
X30938349Y-25694962D01*
X30929170Y-25714368D01*
X30918134Y-25732781D01*
X30905346Y-25750024D01*
X30890930Y-25765930D01*
X30875024Y-25780346D01*
X30857781Y-25793134D01*
X30839368Y-25804170D01*
X30819962Y-25813349D01*
X30799750Y-25820581D01*
X30778926Y-25825797D01*
X30757691Y-25828947D01*
X30736250Y-25830000D01*
X30223750Y-25830000D01*
X30202309Y-25828947D01*
X30181074Y-25825797D01*
X30160250Y-25820581D01*
X30140038Y-25813349D01*
X30120632Y-25804170D01*
X30102219Y-25793134D01*
X30084976Y-25780346D01*
X30069070Y-25765930D01*
X30054654Y-25750024D01*
X30041866Y-25732781D01*
X30030830Y-25714368D01*
X30021651Y-25694962D01*
X30014419Y-25674750D01*
X30009203Y-25653926D01*
X30006053Y-25632691D01*
X30005000Y-25611250D01*
X30005000Y-25173750D01*
X30006053Y-25152309D01*
X30009203Y-25131074D01*
X30014419Y-25110250D01*
X30021651Y-25090038D01*
X30030830Y-25070632D01*
X30041866Y-25052219D01*
X30054654Y-25034976D01*
X30069070Y-25019070D01*
X30084976Y-25004654D01*
X30102219Y-24991866D01*
X30120632Y-24980830D01*
X30140038Y-24971651D01*
X30160250Y-24964419D01*
X30181074Y-24959203D01*
X30202309Y-24956053D01*
X30223750Y-24955000D01*
X30736250Y-24955000D01*
X30757691Y-24956053D01*
G37*
G36*
X30757691Y-23381053D02*
G01*
X30778926Y-23384203D01*
X30799750Y-23389419D01*
X30819962Y-23396651D01*
X30839368Y-23405830D01*
X30857781Y-23416866D01*
X30875024Y-23429654D01*
X30890930Y-23444070D01*
X30905346Y-23459976D01*
X30918134Y-23477219D01*
X30929170Y-23495632D01*
X30938349Y-23515038D01*
X30945581Y-23535250D01*
X30950797Y-23556074D01*
X30953947Y-23577309D01*
X30955000Y-23598750D01*
X30955000Y-24036250D01*
X30953947Y-24057691D01*
X30950797Y-24078926D01*
X30945581Y-24099750D01*
X30938349Y-24119962D01*
X30929170Y-24139368D01*
X30918134Y-24157781D01*
X30905346Y-24175024D01*
X30890930Y-24190930D01*
X30875024Y-24205346D01*
X30857781Y-24218134D01*
X30839368Y-24229170D01*
X30819962Y-24238349D01*
X30799750Y-24245581D01*
X30778926Y-24250797D01*
X30757691Y-24253947D01*
X30736250Y-24255000D01*
X30223750Y-24255000D01*
X30202309Y-24253947D01*
X30181074Y-24250797D01*
X30160250Y-24245581D01*
X30140038Y-24238349D01*
X30120632Y-24229170D01*
X30102219Y-24218134D01*
X30084976Y-24205346D01*
X30069070Y-24190930D01*
X30054654Y-24175024D01*
X30041866Y-24157781D01*
X30030830Y-24139368D01*
X30021651Y-24119962D01*
X30014419Y-24099750D01*
X30009203Y-24078926D01*
X30006053Y-24057691D01*
X30005000Y-24036250D01*
X30005000Y-23598750D01*
X30006053Y-23577309D01*
X30009203Y-23556074D01*
X30014419Y-23535250D01*
X30021651Y-23515038D01*
X30030830Y-23495632D01*
X30041866Y-23477219D01*
X30054654Y-23459976D01*
X30069070Y-23444070D01*
X30084976Y-23429654D01*
X30102219Y-23416866D01*
X30120632Y-23405830D01*
X30140038Y-23396651D01*
X30160250Y-23389419D01*
X30181074Y-23384203D01*
X30202309Y-23381053D01*
X30223750Y-23380000D01*
X30736250Y-23380000D01*
X30757691Y-23381053D01*
G37*
G36*
X30757691Y-31788553D02*
G01*
X30778926Y-31791703D01*
X30799750Y-31796919D01*
X30819962Y-31804151D01*
X30839368Y-31813330D01*
X30857781Y-31824366D01*
X30875024Y-31837154D01*
X30890930Y-31851570D01*
X30905346Y-31867476D01*
X30918134Y-31884719D01*
X30929170Y-31903132D01*
X30938349Y-31922538D01*
X30945581Y-31942750D01*
X30950797Y-31963574D01*
X30953947Y-31984809D01*
X30955000Y-32006250D01*
X30955000Y-32443750D01*
X30953947Y-32465191D01*
X30950797Y-32486426D01*
X30945581Y-32507250D01*
X30938349Y-32527462D01*
X30929170Y-32546868D01*
X30918134Y-32565281D01*
X30905346Y-32582524D01*
X30890930Y-32598430D01*
X30875024Y-32612846D01*
X30857781Y-32625634D01*
X30839368Y-32636670D01*
X30819962Y-32645849D01*
X30799750Y-32653081D01*
X30778926Y-32658297D01*
X30757691Y-32661447D01*
X30736250Y-32662500D01*
X30223750Y-32662500D01*
X30202309Y-32661447D01*
X30181074Y-32658297D01*
X30160250Y-32653081D01*
X30140038Y-32645849D01*
X30120632Y-32636670D01*
X30102219Y-32625634D01*
X30084976Y-32612846D01*
X30069070Y-32598430D01*
X30054654Y-32582524D01*
X30041866Y-32565281D01*
X30030830Y-32546868D01*
X30021651Y-32527462D01*
X30014419Y-32507250D01*
X30009203Y-32486426D01*
X30006053Y-32465191D01*
X30005000Y-32443750D01*
X30005000Y-32006250D01*
X30006053Y-31984809D01*
X30009203Y-31963574D01*
X30014419Y-31942750D01*
X30021651Y-31922538D01*
X30030830Y-31903132D01*
X30041866Y-31884719D01*
X30054654Y-31867476D01*
X30069070Y-31851570D01*
X30084976Y-31837154D01*
X30102219Y-31824366D01*
X30120632Y-31813330D01*
X30140038Y-31804151D01*
X30160250Y-31796919D01*
X30181074Y-31791703D01*
X30202309Y-31788553D01*
X30223750Y-31787500D01*
X30736250Y-31787500D01*
X30757691Y-31788553D01*
G37*
G36*
X30757691Y-33363553D02*
G01*
X30778926Y-33366703D01*
X30799750Y-33371919D01*
X30819962Y-33379151D01*
X30839368Y-33388330D01*
X30857781Y-33399366D01*
X30875024Y-33412154D01*
X30890930Y-33426570D01*
X30905346Y-33442476D01*
X30918134Y-33459719D01*
X30929170Y-33478132D01*
X30938349Y-33497538D01*
X30945581Y-33517750D01*
X30950797Y-33538574D01*
X30953947Y-33559809D01*
X30955000Y-33581250D01*
X30955000Y-34018750D01*
X30953947Y-34040191D01*
X30950797Y-34061426D01*
X30945581Y-34082250D01*
X30938349Y-34102462D01*
X30929170Y-34121868D01*
X30918134Y-34140281D01*
X30905346Y-34157524D01*
X30890930Y-34173430D01*
X30875024Y-34187846D01*
X30857781Y-34200634D01*
X30839368Y-34211670D01*
X30819962Y-34220849D01*
X30799750Y-34228081D01*
X30778926Y-34233297D01*
X30757691Y-34236447D01*
X30736250Y-34237500D01*
X30223750Y-34237500D01*
X30202309Y-34236447D01*
X30181074Y-34233297D01*
X30160250Y-34228081D01*
X30140038Y-34220849D01*
X30120632Y-34211670D01*
X30102219Y-34200634D01*
X30084976Y-34187846D01*
X30069070Y-34173430D01*
X30054654Y-34157524D01*
X30041866Y-34140281D01*
X30030830Y-34121868D01*
X30021651Y-34102462D01*
X30014419Y-34082250D01*
X30009203Y-34061426D01*
X30006053Y-34040191D01*
X30005000Y-34018750D01*
X30005000Y-33581250D01*
X30006053Y-33559809D01*
X30009203Y-33538574D01*
X30014419Y-33517750D01*
X30021651Y-33497538D01*
X30030830Y-33478132D01*
X30041866Y-33459719D01*
X30054654Y-33442476D01*
X30069070Y-33426570D01*
X30084976Y-33412154D01*
X30102219Y-33399366D01*
X30120632Y-33388330D01*
X30140038Y-33379151D01*
X30160250Y-33371919D01*
X30181074Y-33366703D01*
X30202309Y-33363553D01*
X30223750Y-33362500D01*
X30736250Y-33362500D01*
X30757691Y-33363553D01*
G37*
D12*
X-22480000Y33000000D03*
X-19430000Y29650000D03*
X-19430000Y33000000D03*
X-22480000Y29650000D03*
D13*
X-23235000Y37625000D03*
X-20955000Y37625000D03*
X-18675000Y37625000D03*
D14*
X23061000Y-21810000D03*
X19711000Y-24860000D03*
X23061000Y-24860000D03*
X19711000Y-21810000D03*
D15*
X27686000Y-21055000D03*
X27686000Y-23335000D03*
X27686000Y-25615000D03*
D12*
X-22480000Y16490000D03*
X-19430000Y13140000D03*
X-19430000Y16490000D03*
X-22480000Y13140000D03*
D13*
X-23235000Y21115000D03*
X-20955000Y21115000D03*
X-18675000Y21115000D03*
D14*
X23061000Y-32605000D03*
X19711000Y-35655000D03*
X23061000Y-35655000D03*
X19711000Y-32605000D03*
D15*
X27686000Y-31850000D03*
X27686000Y-34130000D03*
X27686000Y-36410000D03*
D11*
G36*
X5992691Y-7023553D02*
G01*
X6013926Y-7026703D01*
X6034750Y-7031919D01*
X6054962Y-7039151D01*
X6074368Y-7048330D01*
X6092781Y-7059366D01*
X6110024Y-7072154D01*
X6125930Y-7086570D01*
X6140346Y-7102476D01*
X6153134Y-7119719D01*
X6164170Y-7138132D01*
X6173349Y-7157538D01*
X6180581Y-7177750D01*
X6185797Y-7198574D01*
X6188947Y-7219809D01*
X6190000Y-7241250D01*
X6190000Y-7678750D01*
X6188947Y-7700191D01*
X6185797Y-7721426D01*
X6180581Y-7742250D01*
X6173349Y-7762462D01*
X6164170Y-7781868D01*
X6153134Y-7800281D01*
X6140346Y-7817524D01*
X6125930Y-7833430D01*
X6110024Y-7847846D01*
X6092781Y-7860634D01*
X6074368Y-7871670D01*
X6054962Y-7880849D01*
X6034750Y-7888081D01*
X6013926Y-7893297D01*
X5992691Y-7896447D01*
X5971250Y-7897500D01*
X5458750Y-7897500D01*
X5437309Y-7896447D01*
X5416074Y-7893297D01*
X5395250Y-7888081D01*
X5375038Y-7880849D01*
X5355632Y-7871670D01*
X5337219Y-7860634D01*
X5319976Y-7847846D01*
X5304070Y-7833430D01*
X5289654Y-7817524D01*
X5276866Y-7800281D01*
X5265830Y-7781868D01*
X5256651Y-7762462D01*
X5249419Y-7742250D01*
X5244203Y-7721426D01*
X5241053Y-7700191D01*
X5240000Y-7678750D01*
X5240000Y-7241250D01*
X5241053Y-7219809D01*
X5244203Y-7198574D01*
X5249419Y-7177750D01*
X5256651Y-7157538D01*
X5265830Y-7138132D01*
X5276866Y-7119719D01*
X5289654Y-7102476D01*
X5304070Y-7086570D01*
X5319976Y-7072154D01*
X5337219Y-7059366D01*
X5355632Y-7048330D01*
X5375038Y-7039151D01*
X5395250Y-7031919D01*
X5416074Y-7026703D01*
X5437309Y-7023553D01*
X5458750Y-7022500D01*
X5971250Y-7022500D01*
X5992691Y-7023553D01*
G37*
G36*
X5992691Y-8598553D02*
G01*
X6013926Y-8601703D01*
X6034750Y-8606919D01*
X6054962Y-8614151D01*
X6074368Y-8623330D01*
X6092781Y-8634366D01*
X6110024Y-8647154D01*
X6125930Y-8661570D01*
X6140346Y-8677476D01*
X6153134Y-8694719D01*
X6164170Y-8713132D01*
X6173349Y-8732538D01*
X6180581Y-8752750D01*
X6185797Y-8773574D01*
X6188947Y-8794809D01*
X6190000Y-8816250D01*
X6190000Y-9253750D01*
X6188947Y-9275191D01*
X6185797Y-9296426D01*
X6180581Y-9317250D01*
X6173349Y-9337462D01*
X6164170Y-9356868D01*
X6153134Y-9375281D01*
X6140346Y-9392524D01*
X6125930Y-9408430D01*
X6110024Y-9422846D01*
X6092781Y-9435634D01*
X6074368Y-9446670D01*
X6054962Y-9455849D01*
X6034750Y-9463081D01*
X6013926Y-9468297D01*
X5992691Y-9471447D01*
X5971250Y-9472500D01*
X5458750Y-9472500D01*
X5437309Y-9471447D01*
X5416074Y-9468297D01*
X5395250Y-9463081D01*
X5375038Y-9455849D01*
X5355632Y-9446670D01*
X5337219Y-9435634D01*
X5319976Y-9422846D01*
X5304070Y-9408430D01*
X5289654Y-9392524D01*
X5276866Y-9375281D01*
X5265830Y-9356868D01*
X5256651Y-9337462D01*
X5249419Y-9317250D01*
X5244203Y-9296426D01*
X5241053Y-9275191D01*
X5240000Y-9253750D01*
X5240000Y-8816250D01*
X5241053Y-8794809D01*
X5244203Y-8773574D01*
X5249419Y-8752750D01*
X5256651Y-8732538D01*
X5265830Y-8713132D01*
X5276866Y-8694719D01*
X5289654Y-8677476D01*
X5304070Y-8661570D01*
X5319976Y-8647154D01*
X5337219Y-8634366D01*
X5355632Y-8623330D01*
X5375038Y-8614151D01*
X5395250Y-8606919D01*
X5416074Y-8601703D01*
X5437309Y-8598553D01*
X5458750Y-8597500D01*
X5971250Y-8597500D01*
X5992691Y-8598553D01*
G37*
G36*
X13575191Y-27306053D02*
G01*
X13596426Y-27309203D01*
X13617250Y-27314419D01*
X13637462Y-27321651D01*
X13656868Y-27330830D01*
X13675281Y-27341866D01*
X13692524Y-27354654D01*
X13708430Y-27369070D01*
X13722846Y-27384976D01*
X13735634Y-27402219D01*
X13746670Y-27420632D01*
X13755849Y-27440038D01*
X13763081Y-27460250D01*
X13768297Y-27481074D01*
X13771447Y-27502309D01*
X13772500Y-27523750D01*
X13772500Y-28036250D01*
X13771447Y-28057691D01*
X13768297Y-28078926D01*
X13763081Y-28099750D01*
X13755849Y-28119962D01*
X13746670Y-28139368D01*
X13735634Y-28157781D01*
X13722846Y-28175024D01*
X13708430Y-28190930D01*
X13692524Y-28205346D01*
X13675281Y-28218134D01*
X13656868Y-28229170D01*
X13637462Y-28238349D01*
X13617250Y-28245581D01*
X13596426Y-28250797D01*
X13575191Y-28253947D01*
X13553750Y-28255000D01*
X13116250Y-28255000D01*
X13094809Y-28253947D01*
X13073574Y-28250797D01*
X13052750Y-28245581D01*
X13032538Y-28238349D01*
X13013132Y-28229170D01*
X12994719Y-28218134D01*
X12977476Y-28205346D01*
X12961570Y-28190930D01*
X12947154Y-28175024D01*
X12934366Y-28157781D01*
X12923330Y-28139368D01*
X12914151Y-28119962D01*
X12906919Y-28099750D01*
X12901703Y-28078926D01*
X12898553Y-28057691D01*
X12897500Y-28036250D01*
X12897500Y-27523750D01*
X12898553Y-27502309D01*
X12901703Y-27481074D01*
X12906919Y-27460250D01*
X12914151Y-27440038D01*
X12923330Y-27420632D01*
X12934366Y-27402219D01*
X12947154Y-27384976D01*
X12961570Y-27369070D01*
X12977476Y-27354654D01*
X12994719Y-27341866D01*
X13013132Y-27330830D01*
X13032538Y-27321651D01*
X13052750Y-27314419D01*
X13073574Y-27309203D01*
X13094809Y-27306053D01*
X13116250Y-27305000D01*
X13553750Y-27305000D01*
X13575191Y-27306053D01*
G37*
G36*
X15150191Y-27306053D02*
G01*
X15171426Y-27309203D01*
X15192250Y-27314419D01*
X15212462Y-27321651D01*
X15231868Y-27330830D01*
X15250281Y-27341866D01*
X15267524Y-27354654D01*
X15283430Y-27369070D01*
X15297846Y-27384976D01*
X15310634Y-27402219D01*
X15321670Y-27420632D01*
X15330849Y-27440038D01*
X15338081Y-27460250D01*
X15343297Y-27481074D01*
X15346447Y-27502309D01*
X15347500Y-27523750D01*
X15347500Y-28036250D01*
X15346447Y-28057691D01*
X15343297Y-28078926D01*
X15338081Y-28099750D01*
X15330849Y-28119962D01*
X15321670Y-28139368D01*
X15310634Y-28157781D01*
X15297846Y-28175024D01*
X15283430Y-28190930D01*
X15267524Y-28205346D01*
X15250281Y-28218134D01*
X15231868Y-28229170D01*
X15212462Y-28238349D01*
X15192250Y-28245581D01*
X15171426Y-28250797D01*
X15150191Y-28253947D01*
X15128750Y-28255000D01*
X14691250Y-28255000D01*
X14669809Y-28253947D01*
X14648574Y-28250797D01*
X14627750Y-28245581D01*
X14607538Y-28238349D01*
X14588132Y-28229170D01*
X14569719Y-28218134D01*
X14552476Y-28205346D01*
X14536570Y-28190930D01*
X14522154Y-28175024D01*
X14509366Y-28157781D01*
X14498330Y-28139368D01*
X14489151Y-28119962D01*
X14481919Y-28099750D01*
X14476703Y-28078926D01*
X14473553Y-28057691D01*
X14472500Y-28036250D01*
X14472500Y-27523750D01*
X14473553Y-27502309D01*
X14476703Y-27481074D01*
X14481919Y-27460250D01*
X14489151Y-27440038D01*
X14498330Y-27420632D01*
X14509366Y-27402219D01*
X14522154Y-27384976D01*
X14536570Y-27369070D01*
X14552476Y-27354654D01*
X14569719Y-27341866D01*
X14588132Y-27330830D01*
X14607538Y-27321651D01*
X14627750Y-27314419D01*
X14648574Y-27309203D01*
X14669809Y-27306053D01*
X14691250Y-27305000D01*
X15128750Y-27305000D01*
X15150191Y-27306053D01*
G37*
G36*
X-20232309Y26668947D02*
G01*
X-20211074Y26665797D01*
X-20190250Y26660581D01*
X-20170038Y26653349D01*
X-20150632Y26644170D01*
X-20132219Y26633134D01*
X-20114976Y26620346D01*
X-20099070Y26605930D01*
X-20084654Y26590024D01*
X-20071866Y26572781D01*
X-20060830Y26554368D01*
X-20051651Y26534962D01*
X-20044419Y26514750D01*
X-20039203Y26493926D01*
X-20036053Y26472691D01*
X-20035000Y26451250D01*
X-20035000Y25938750D01*
X-20036053Y25917309D01*
X-20039203Y25896074D01*
X-20044419Y25875250D01*
X-20051651Y25855038D01*
X-20060830Y25835632D01*
X-20071866Y25817219D01*
X-20084654Y25799976D01*
X-20099070Y25784070D01*
X-20114976Y25769654D01*
X-20132219Y25756866D01*
X-20150632Y25745830D01*
X-20170038Y25736651D01*
X-20190250Y25729419D01*
X-20211074Y25724203D01*
X-20232309Y25721053D01*
X-20253750Y25720000D01*
X-20691250Y25720000D01*
X-20712691Y25721053D01*
X-20733926Y25724203D01*
X-20754750Y25729419D01*
X-20774962Y25736651D01*
X-20794368Y25745830D01*
X-20812781Y25756866D01*
X-20830024Y25769654D01*
X-20845930Y25784070D01*
X-20860346Y25799976D01*
X-20873134Y25817219D01*
X-20884170Y25835632D01*
X-20893349Y25855038D01*
X-20900581Y25875250D01*
X-20905797Y25896074D01*
X-20908947Y25917309D01*
X-20910000Y25938750D01*
X-20910000Y26451250D01*
X-20908947Y26472691D01*
X-20905797Y26493926D01*
X-20900581Y26514750D01*
X-20893349Y26534962D01*
X-20884170Y26554368D01*
X-20873134Y26572781D01*
X-20860346Y26590024D01*
X-20845930Y26605930D01*
X-20830024Y26620346D01*
X-20812781Y26633134D01*
X-20794368Y26644170D01*
X-20774962Y26653349D01*
X-20754750Y26660581D01*
X-20733926Y26665797D01*
X-20712691Y26668947D01*
X-20691250Y26670000D01*
X-20253750Y26670000D01*
X-20232309Y26668947D01*
G37*
G36*
X-18657309Y26668947D02*
G01*
X-18636074Y26665797D01*
X-18615250Y26660581D01*
X-18595038Y26653349D01*
X-18575632Y26644170D01*
X-18557219Y26633134D01*
X-18539976Y26620346D01*
X-18524070Y26605930D01*
X-18509654Y26590024D01*
X-18496866Y26572781D01*
X-18485830Y26554368D01*
X-18476651Y26534962D01*
X-18469419Y26514750D01*
X-18464203Y26493926D01*
X-18461053Y26472691D01*
X-18460000Y26451250D01*
X-18460000Y25938750D01*
X-18461053Y25917309D01*
X-18464203Y25896074D01*
X-18469419Y25875250D01*
X-18476651Y25855038D01*
X-18485830Y25835632D01*
X-18496866Y25817219D01*
X-18509654Y25799976D01*
X-18524070Y25784070D01*
X-18539976Y25769654D01*
X-18557219Y25756866D01*
X-18575632Y25745830D01*
X-18595038Y25736651D01*
X-18615250Y25729419D01*
X-18636074Y25724203D01*
X-18657309Y25721053D01*
X-18678750Y25720000D01*
X-19116250Y25720000D01*
X-19137691Y25721053D01*
X-19158926Y25724203D01*
X-19179750Y25729419D01*
X-19199962Y25736651D01*
X-19219368Y25745830D01*
X-19237781Y25756866D01*
X-19255024Y25769654D01*
X-19270930Y25784070D01*
X-19285346Y25799976D01*
X-19298134Y25817219D01*
X-19309170Y25835632D01*
X-19318349Y25855038D01*
X-19325581Y25875250D01*
X-19330797Y25896074D01*
X-19333947Y25917309D01*
X-19335000Y25938750D01*
X-19335000Y26451250D01*
X-19333947Y26472691D01*
X-19330797Y26493926D01*
X-19325581Y26514750D01*
X-19318349Y26534962D01*
X-19309170Y26554368D01*
X-19298134Y26572781D01*
X-19285346Y26590024D01*
X-19270930Y26605930D01*
X-19255024Y26620346D01*
X-19237781Y26633134D01*
X-19219368Y26644170D01*
X-19199962Y26653349D01*
X-19179750Y26660581D01*
X-19158926Y26665797D01*
X-19137691Y26668947D01*
X-19116250Y26670000D01*
X-18678750Y26670000D01*
X-18657309Y26668947D01*
G37*
G36*
X-20384809Y10285947D02*
G01*
X-20363574Y10282797D01*
X-20342750Y10277581D01*
X-20322538Y10270349D01*
X-20303132Y10261170D01*
X-20284719Y10250134D01*
X-20267476Y10237346D01*
X-20251570Y10222930D01*
X-20237154Y10207024D01*
X-20224366Y10189781D01*
X-20213330Y10171368D01*
X-20204151Y10151962D01*
X-20196919Y10131750D01*
X-20191703Y10110926D01*
X-20188553Y10089691D01*
X-20187500Y10068250D01*
X-20187500Y9555750D01*
X-20188553Y9534309D01*
X-20191703Y9513074D01*
X-20196919Y9492250D01*
X-20204151Y9472038D01*
X-20213330Y9452632D01*
X-20224366Y9434219D01*
X-20237154Y9416976D01*
X-20251570Y9401070D01*
X-20267476Y9386654D01*
X-20284719Y9373866D01*
X-20303132Y9362830D01*
X-20322538Y9353651D01*
X-20342750Y9346419D01*
X-20363574Y9341203D01*
X-20384809Y9338053D01*
X-20406250Y9337000D01*
X-20843750Y9337000D01*
X-20865191Y9338053D01*
X-20886426Y9341203D01*
X-20907250Y9346419D01*
X-20927462Y9353651D01*
X-20946868Y9362830D01*
X-20965281Y9373866D01*
X-20982524Y9386654D01*
X-20998430Y9401070D01*
X-21012846Y9416976D01*
X-21025634Y9434219D01*
X-21036670Y9452632D01*
X-21045849Y9472038D01*
X-21053081Y9492250D01*
X-21058297Y9513074D01*
X-21061447Y9534309D01*
X-21062500Y9555750D01*
X-21062500Y10068250D01*
X-21061447Y10089691D01*
X-21058297Y10110926D01*
X-21053081Y10131750D01*
X-21045849Y10151962D01*
X-21036670Y10171368D01*
X-21025634Y10189781D01*
X-21012846Y10207024D01*
X-20998430Y10222930D01*
X-20982524Y10237346D01*
X-20965281Y10250134D01*
X-20946868Y10261170D01*
X-20927462Y10270349D01*
X-20907250Y10277581D01*
X-20886426Y10282797D01*
X-20865191Y10285947D01*
X-20843750Y10287000D01*
X-20406250Y10287000D01*
X-20384809Y10285947D01*
G37*
G36*
X-18809809Y10285947D02*
G01*
X-18788574Y10282797D01*
X-18767750Y10277581D01*
X-18747538Y10270349D01*
X-18728132Y10261170D01*
X-18709719Y10250134D01*
X-18692476Y10237346D01*
X-18676570Y10222930D01*
X-18662154Y10207024D01*
X-18649366Y10189781D01*
X-18638330Y10171368D01*
X-18629151Y10151962D01*
X-18621919Y10131750D01*
X-18616703Y10110926D01*
X-18613553Y10089691D01*
X-18612500Y10068250D01*
X-18612500Y9555750D01*
X-18613553Y9534309D01*
X-18616703Y9513074D01*
X-18621919Y9492250D01*
X-18629151Y9472038D01*
X-18638330Y9452632D01*
X-18649366Y9434219D01*
X-18662154Y9416976D01*
X-18676570Y9401070D01*
X-18692476Y9386654D01*
X-18709719Y9373866D01*
X-18728132Y9362830D01*
X-18747538Y9353651D01*
X-18767750Y9346419D01*
X-18788574Y9341203D01*
X-18809809Y9338053D01*
X-18831250Y9337000D01*
X-19268750Y9337000D01*
X-19290191Y9338053D01*
X-19311426Y9341203D01*
X-19332250Y9346419D01*
X-19352462Y9353651D01*
X-19371868Y9362830D01*
X-19390281Y9373866D01*
X-19407524Y9386654D01*
X-19423430Y9401070D01*
X-19437846Y9416976D01*
X-19450634Y9434219D01*
X-19461670Y9452632D01*
X-19470849Y9472038D01*
X-19478081Y9492250D01*
X-19483297Y9513074D01*
X-19486447Y9534309D01*
X-19487500Y9555750D01*
X-19487500Y10068250D01*
X-19486447Y10089691D01*
X-19483297Y10110926D01*
X-19478081Y10131750D01*
X-19470849Y10151962D01*
X-19461670Y10171368D01*
X-19450634Y10189781D01*
X-19437846Y10207024D01*
X-19423430Y10222930D01*
X-19407524Y10237346D01*
X-19390281Y10250134D01*
X-19371868Y10261170D01*
X-19352462Y10270349D01*
X-19332250Y10277581D01*
X-19311426Y10282797D01*
X-19290191Y10285947D01*
X-19268750Y10287000D01*
X-18831250Y10287000D01*
X-18809809Y10285947D01*
G37*
G36*
X392691Y-4446053D02*
G01*
X413926Y-4449203D01*
X434750Y-4454419D01*
X454962Y-4461651D01*
X474368Y-4470830D01*
X492781Y-4481866D01*
X510024Y-4494654D01*
X525930Y-4509070D01*
X540346Y-4524976D01*
X553134Y-4542219D01*
X564170Y-4560632D01*
X573349Y-4580038D01*
X580581Y-4600250D01*
X585797Y-4621074D01*
X588947Y-4642309D01*
X590000Y-4663750D01*
X590000Y-5176250D01*
X588947Y-5197691D01*
X585797Y-5218926D01*
X580581Y-5239750D01*
X573349Y-5259962D01*
X564170Y-5279368D01*
X553134Y-5297781D01*
X540346Y-5315024D01*
X525930Y-5330930D01*
X510024Y-5345346D01*
X492781Y-5358134D01*
X474368Y-5369170D01*
X454962Y-5378349D01*
X434750Y-5385581D01*
X413926Y-5390797D01*
X392691Y-5393947D01*
X371250Y-5395000D01*
X-66250Y-5395000D01*
X-87691Y-5393947D01*
X-108926Y-5390797D01*
X-129750Y-5385581D01*
X-149962Y-5378349D01*
X-169368Y-5369170D01*
X-187781Y-5358134D01*
X-205024Y-5345346D01*
X-220930Y-5330930D01*
X-235346Y-5315024D01*
X-248134Y-5297781D01*
X-259170Y-5279368D01*
X-268349Y-5259962D01*
X-275581Y-5239750D01*
X-280797Y-5218926D01*
X-283947Y-5197691D01*
X-285000Y-5176250D01*
X-285000Y-4663750D01*
X-283947Y-4642309D01*
X-280797Y-4621074D01*
X-275581Y-4600250D01*
X-268349Y-4580038D01*
X-259170Y-4560632D01*
X-248134Y-4542219D01*
X-235346Y-4524976D01*
X-220930Y-4509070D01*
X-205024Y-4494654D01*
X-187781Y-4481866D01*
X-169368Y-4470830D01*
X-149962Y-4461651D01*
X-129750Y-4454419D01*
X-108926Y-4449203D01*
X-87691Y-4446053D01*
X-66250Y-4445000D01*
X371250Y-4445000D01*
X392691Y-4446053D01*
G37*
G36*
X-1182309Y-4446053D02*
G01*
X-1161074Y-4449203D01*
X-1140250Y-4454419D01*
X-1120038Y-4461651D01*
X-1100632Y-4470830D01*
X-1082219Y-4481866D01*
X-1064976Y-4494654D01*
X-1049070Y-4509070D01*
X-1034654Y-4524976D01*
X-1021866Y-4542219D01*
X-1010830Y-4560632D01*
X-1001651Y-4580038D01*
X-994419Y-4600250D01*
X-989203Y-4621074D01*
X-986053Y-4642309D01*
X-985000Y-4663750D01*
X-985000Y-5176250D01*
X-986053Y-5197691D01*
X-989203Y-5218926D01*
X-994419Y-5239750D01*
X-1001651Y-5259962D01*
X-1010830Y-5279368D01*
X-1021866Y-5297781D01*
X-1034654Y-5315024D01*
X-1049070Y-5330930D01*
X-1064976Y-5345346D01*
X-1082219Y-5358134D01*
X-1100632Y-5369170D01*
X-1120038Y-5378349D01*
X-1140250Y-5385581D01*
X-1161074Y-5390797D01*
X-1182309Y-5393947D01*
X-1203750Y-5395000D01*
X-1641250Y-5395000D01*
X-1662691Y-5393947D01*
X-1683926Y-5390797D01*
X-1704750Y-5385581D01*
X-1724962Y-5378349D01*
X-1744368Y-5369170D01*
X-1762781Y-5358134D01*
X-1780024Y-5345346D01*
X-1795930Y-5330930D01*
X-1810346Y-5315024D01*
X-1823134Y-5297781D01*
X-1834170Y-5279368D01*
X-1843349Y-5259962D01*
X-1850581Y-5239750D01*
X-1855797Y-5218926D01*
X-1858947Y-5197691D01*
X-1860000Y-5176250D01*
X-1860000Y-4663750D01*
X-1858947Y-4642309D01*
X-1855797Y-4621074D01*
X-1850581Y-4600250D01*
X-1843349Y-4580038D01*
X-1834170Y-4560632D01*
X-1823134Y-4542219D01*
X-1810346Y-4524976D01*
X-1795930Y-4509070D01*
X-1780024Y-4494654D01*
X-1762781Y-4481866D01*
X-1744368Y-4470830D01*
X-1724962Y-4461651D01*
X-1704750Y-4454419D01*
X-1683926Y-4449203D01*
X-1662691Y-4446053D01*
X-1641250Y-4445000D01*
X-1203750Y-4445000D01*
X-1182309Y-4446053D01*
G37*
G36*
X27062691Y17778947D02*
G01*
X27083926Y17775797D01*
X27104750Y17770581D01*
X27124962Y17763349D01*
X27144368Y17754170D01*
X27162781Y17743134D01*
X27180024Y17730346D01*
X27195930Y17715930D01*
X27210346Y17700024D01*
X27223134Y17682781D01*
X27234170Y17664368D01*
X27243349Y17644962D01*
X27250581Y17624750D01*
X27255797Y17603926D01*
X27258947Y17582691D01*
X27260000Y17561250D01*
X27260000Y17048750D01*
X27258947Y17027309D01*
X27255797Y17006074D01*
X27250581Y16985250D01*
X27243349Y16965038D01*
X27234170Y16945632D01*
X27223134Y16927219D01*
X27210346Y16909976D01*
X27195930Y16894070D01*
X27180024Y16879654D01*
X27162781Y16866866D01*
X27144368Y16855830D01*
X27124962Y16846651D01*
X27104750Y16839419D01*
X27083926Y16834203D01*
X27062691Y16831053D01*
X27041250Y16830000D01*
X26603750Y16830000D01*
X26582309Y16831053D01*
X26561074Y16834203D01*
X26540250Y16839419D01*
X26520038Y16846651D01*
X26500632Y16855830D01*
X26482219Y16866866D01*
X26464976Y16879654D01*
X26449070Y16894070D01*
X26434654Y16909976D01*
X26421866Y16927219D01*
X26410830Y16945632D01*
X26401651Y16965038D01*
X26394419Y16985250D01*
X26389203Y17006074D01*
X26386053Y17027309D01*
X26385000Y17048750D01*
X26385000Y17561250D01*
X26386053Y17582691D01*
X26389203Y17603926D01*
X26394419Y17624750D01*
X26401651Y17644962D01*
X26410830Y17664368D01*
X26421866Y17682781D01*
X26434654Y17700024D01*
X26449070Y17715930D01*
X26464976Y17730346D01*
X26482219Y17743134D01*
X26500632Y17754170D01*
X26520038Y17763349D01*
X26540250Y17770581D01*
X26561074Y17775797D01*
X26582309Y17778947D01*
X26603750Y17780000D01*
X27041250Y17780000D01*
X27062691Y17778947D01*
G37*
G36*
X25487691Y17778947D02*
G01*
X25508926Y17775797D01*
X25529750Y17770581D01*
X25549962Y17763349D01*
X25569368Y17754170D01*
X25587781Y17743134D01*
X25605024Y17730346D01*
X25620930Y17715930D01*
X25635346Y17700024D01*
X25648134Y17682781D01*
X25659170Y17664368D01*
X25668349Y17644962D01*
X25675581Y17624750D01*
X25680797Y17603926D01*
X25683947Y17582691D01*
X25685000Y17561250D01*
X25685000Y17048750D01*
X25683947Y17027309D01*
X25680797Y17006074D01*
X25675581Y16985250D01*
X25668349Y16965038D01*
X25659170Y16945632D01*
X25648134Y16927219D01*
X25635346Y16909976D01*
X25620930Y16894070D01*
X25605024Y16879654D01*
X25587781Y16866866D01*
X25569368Y16855830D01*
X25549962Y16846651D01*
X25529750Y16839419D01*
X25508926Y16834203D01*
X25487691Y16831053D01*
X25466250Y16830000D01*
X25028750Y16830000D01*
X25007309Y16831053D01*
X24986074Y16834203D01*
X24965250Y16839419D01*
X24945038Y16846651D01*
X24925632Y16855830D01*
X24907219Y16866866D01*
X24889976Y16879654D01*
X24874070Y16894070D01*
X24859654Y16909976D01*
X24846866Y16927219D01*
X24835830Y16945632D01*
X24826651Y16965038D01*
X24819419Y16985250D01*
X24814203Y17006074D01*
X24811053Y17027309D01*
X24810000Y17048750D01*
X24810000Y17561250D01*
X24811053Y17582691D01*
X24814203Y17603926D01*
X24819419Y17624750D01*
X24826651Y17644962D01*
X24835830Y17664368D01*
X24846866Y17682781D01*
X24859654Y17700024D01*
X24874070Y17715930D01*
X24889976Y17730346D01*
X24907219Y17743134D01*
X24925632Y17754170D01*
X24945038Y17763349D01*
X24965250Y17770581D01*
X24986074Y17775797D01*
X25007309Y17778947D01*
X25028750Y17780000D01*
X25466250Y17780000D01*
X25487691Y17778947D01*
G37*
G36*
X-18809809Y-33656053D02*
G01*
X-18788574Y-33659203D01*
X-18767750Y-33664419D01*
X-18747538Y-33671651D01*
X-18728132Y-33680830D01*
X-18709719Y-33691866D01*
X-18692476Y-33704654D01*
X-18676570Y-33719070D01*
X-18662154Y-33734976D01*
X-18649366Y-33752219D01*
X-18638330Y-33770632D01*
X-18629151Y-33790038D01*
X-18621919Y-33810250D01*
X-18616703Y-33831074D01*
X-18613553Y-33852309D01*
X-18612500Y-33873750D01*
X-18612500Y-34386250D01*
X-18613553Y-34407691D01*
X-18616703Y-34428926D01*
X-18621919Y-34449750D01*
X-18629151Y-34469962D01*
X-18638330Y-34489368D01*
X-18649366Y-34507781D01*
X-18662154Y-34525024D01*
X-18676570Y-34540930D01*
X-18692476Y-34555346D01*
X-18709719Y-34568134D01*
X-18728132Y-34579170D01*
X-18747538Y-34588349D01*
X-18767750Y-34595581D01*
X-18788574Y-34600797D01*
X-18809809Y-34603947D01*
X-18831250Y-34605000D01*
X-19268750Y-34605000D01*
X-19290191Y-34603947D01*
X-19311426Y-34600797D01*
X-19332250Y-34595581D01*
X-19352462Y-34588349D01*
X-19371868Y-34579170D01*
X-19390281Y-34568134D01*
X-19407524Y-34555346D01*
X-19423430Y-34540930D01*
X-19437846Y-34525024D01*
X-19450634Y-34507781D01*
X-19461670Y-34489368D01*
X-19470849Y-34469962D01*
X-19478081Y-34449750D01*
X-19483297Y-34428926D01*
X-19486447Y-34407691D01*
X-19487500Y-34386250D01*
X-19487500Y-33873750D01*
X-19486447Y-33852309D01*
X-19483297Y-33831074D01*
X-19478081Y-33810250D01*
X-19470849Y-33790038D01*
X-19461670Y-33770632D01*
X-19450634Y-33752219D01*
X-19437846Y-33734976D01*
X-19423430Y-33719070D01*
X-19407524Y-33704654D01*
X-19390281Y-33691866D01*
X-19371868Y-33680830D01*
X-19352462Y-33671651D01*
X-19332250Y-33664419D01*
X-19311426Y-33659203D01*
X-19290191Y-33656053D01*
X-19268750Y-33655000D01*
X-18831250Y-33655000D01*
X-18809809Y-33656053D01*
G37*
G36*
X-20384809Y-33656053D02*
G01*
X-20363574Y-33659203D01*
X-20342750Y-33664419D01*
X-20322538Y-33671651D01*
X-20303132Y-33680830D01*
X-20284719Y-33691866D01*
X-20267476Y-33704654D01*
X-20251570Y-33719070D01*
X-20237154Y-33734976D01*
X-20224366Y-33752219D01*
X-20213330Y-33770632D01*
X-20204151Y-33790038D01*
X-20196919Y-33810250D01*
X-20191703Y-33831074D01*
X-20188553Y-33852309D01*
X-20187500Y-33873750D01*
X-20187500Y-34386250D01*
X-20188553Y-34407691D01*
X-20191703Y-34428926D01*
X-20196919Y-34449750D01*
X-20204151Y-34469962D01*
X-20213330Y-34489368D01*
X-20224366Y-34507781D01*
X-20237154Y-34525024D01*
X-20251570Y-34540930D01*
X-20267476Y-34555346D01*
X-20284719Y-34568134D01*
X-20303132Y-34579170D01*
X-20322538Y-34588349D01*
X-20342750Y-34595581D01*
X-20363574Y-34600797D01*
X-20384809Y-34603947D01*
X-20406250Y-34605000D01*
X-20843750Y-34605000D01*
X-20865191Y-34603947D01*
X-20886426Y-34600797D01*
X-20907250Y-34595581D01*
X-20927462Y-34588349D01*
X-20946868Y-34579170D01*
X-20965281Y-34568134D01*
X-20982524Y-34555346D01*
X-20998430Y-34540930D01*
X-21012846Y-34525024D01*
X-21025634Y-34507781D01*
X-21036670Y-34489368D01*
X-21045849Y-34469962D01*
X-21053081Y-34449750D01*
X-21058297Y-34428926D01*
X-21061447Y-34407691D01*
X-21062500Y-34386250D01*
X-21062500Y-33873750D01*
X-21061447Y-33852309D01*
X-21058297Y-33831074D01*
X-21053081Y-33810250D01*
X-21045849Y-33790038D01*
X-21036670Y-33770632D01*
X-21025634Y-33752219D01*
X-21012846Y-33734976D01*
X-20998430Y-33719070D01*
X-20982524Y-33704654D01*
X-20965281Y-33691866D01*
X-20946868Y-33680830D01*
X-20927462Y-33671651D01*
X-20907250Y-33664419D01*
X-20886426Y-33659203D01*
X-20865191Y-33656053D01*
X-20843750Y-33655000D01*
X-20406250Y-33655000D01*
X-20384809Y-33656053D01*
G37*
G36*
X-20384809Y-31751053D02*
G01*
X-20363574Y-31754203D01*
X-20342750Y-31759419D01*
X-20322538Y-31766651D01*
X-20303132Y-31775830D01*
X-20284719Y-31786866D01*
X-20267476Y-31799654D01*
X-20251570Y-31814070D01*
X-20237154Y-31829976D01*
X-20224366Y-31847219D01*
X-20213330Y-31865632D01*
X-20204151Y-31885038D01*
X-20196919Y-31905250D01*
X-20191703Y-31926074D01*
X-20188553Y-31947309D01*
X-20187500Y-31968750D01*
X-20187500Y-32481250D01*
X-20188553Y-32502691D01*
X-20191703Y-32523926D01*
X-20196919Y-32544750D01*
X-20204151Y-32564962D01*
X-20213330Y-32584368D01*
X-20224366Y-32602781D01*
X-20237154Y-32620024D01*
X-20251570Y-32635930D01*
X-20267476Y-32650346D01*
X-20284719Y-32663134D01*
X-20303132Y-32674170D01*
X-20322538Y-32683349D01*
X-20342750Y-32690581D01*
X-20363574Y-32695797D01*
X-20384809Y-32698947D01*
X-20406250Y-32700000D01*
X-20843750Y-32700000D01*
X-20865191Y-32698947D01*
X-20886426Y-32695797D01*
X-20907250Y-32690581D01*
X-20927462Y-32683349D01*
X-20946868Y-32674170D01*
X-20965281Y-32663134D01*
X-20982524Y-32650346D01*
X-20998430Y-32635930D01*
X-21012846Y-32620024D01*
X-21025634Y-32602781D01*
X-21036670Y-32584368D01*
X-21045849Y-32564962D01*
X-21053081Y-32544750D01*
X-21058297Y-32523926D01*
X-21061447Y-32502691D01*
X-21062500Y-32481250D01*
X-21062500Y-31968750D01*
X-21061447Y-31947309D01*
X-21058297Y-31926074D01*
X-21053081Y-31905250D01*
X-21045849Y-31885038D01*
X-21036670Y-31865632D01*
X-21025634Y-31847219D01*
X-21012846Y-31829976D01*
X-20998430Y-31814070D01*
X-20982524Y-31799654D01*
X-20965281Y-31786866D01*
X-20946868Y-31775830D01*
X-20927462Y-31766651D01*
X-20907250Y-31759419D01*
X-20886426Y-31754203D01*
X-20865191Y-31751053D01*
X-20843750Y-31750000D01*
X-20406250Y-31750000D01*
X-20384809Y-31751053D01*
G37*
G36*
X-18809809Y-31751053D02*
G01*
X-18788574Y-31754203D01*
X-18767750Y-31759419D01*
X-18747538Y-31766651D01*
X-18728132Y-31775830D01*
X-18709719Y-31786866D01*
X-18692476Y-31799654D01*
X-18676570Y-31814070D01*
X-18662154Y-31829976D01*
X-18649366Y-31847219D01*
X-18638330Y-31865632D01*
X-18629151Y-31885038D01*
X-18621919Y-31905250D01*
X-18616703Y-31926074D01*
X-18613553Y-31947309D01*
X-18612500Y-31968750D01*
X-18612500Y-32481250D01*
X-18613553Y-32502691D01*
X-18616703Y-32523926D01*
X-18621919Y-32544750D01*
X-18629151Y-32564962D01*
X-18638330Y-32584368D01*
X-18649366Y-32602781D01*
X-18662154Y-32620024D01*
X-18676570Y-32635930D01*
X-18692476Y-32650346D01*
X-18709719Y-32663134D01*
X-18728132Y-32674170D01*
X-18747538Y-32683349D01*
X-18767750Y-32690581D01*
X-18788574Y-32695797D01*
X-18809809Y-32698947D01*
X-18831250Y-32700000D01*
X-19268750Y-32700000D01*
X-19290191Y-32698947D01*
X-19311426Y-32695797D01*
X-19332250Y-32690581D01*
X-19352462Y-32683349D01*
X-19371868Y-32674170D01*
X-19390281Y-32663134D01*
X-19407524Y-32650346D01*
X-19423430Y-32635930D01*
X-19437846Y-32620024D01*
X-19450634Y-32602781D01*
X-19461670Y-32584368D01*
X-19470849Y-32564962D01*
X-19478081Y-32544750D01*
X-19483297Y-32523926D01*
X-19486447Y-32502691D01*
X-19487500Y-32481250D01*
X-19487500Y-31968750D01*
X-19486447Y-31947309D01*
X-19483297Y-31926074D01*
X-19478081Y-31905250D01*
X-19470849Y-31885038D01*
X-19461670Y-31865632D01*
X-19450634Y-31847219D01*
X-19437846Y-31829976D01*
X-19423430Y-31814070D01*
X-19407524Y-31799654D01*
X-19390281Y-31786866D01*
X-19371868Y-31775830D01*
X-19352462Y-31766651D01*
X-19332250Y-31759419D01*
X-19311426Y-31754203D01*
X-19290191Y-31751053D01*
X-19268750Y-31750000D01*
X-18831250Y-31750000D01*
X-18809809Y-31751053D01*
G37*
G36*
X30122691Y31076447D02*
G01*
X30143926Y31073297D01*
X30164750Y31068081D01*
X30184962Y31060849D01*
X30204368Y31051670D01*
X30222781Y31040634D01*
X30240024Y31027846D01*
X30255930Y31013430D01*
X30270346Y30997524D01*
X30283134Y30980281D01*
X30294170Y30961868D01*
X30303349Y30942462D01*
X30310581Y30922250D01*
X30315797Y30901426D01*
X30318947Y30880191D01*
X30320000Y30858750D01*
X30320000Y30421250D01*
X30318947Y30399809D01*
X30315797Y30378574D01*
X30310581Y30357750D01*
X30303349Y30337538D01*
X30294170Y30318132D01*
X30283134Y30299719D01*
X30270346Y30282476D01*
X30255930Y30266570D01*
X30240024Y30252154D01*
X30222781Y30239366D01*
X30204368Y30228330D01*
X30184962Y30219151D01*
X30164750Y30211919D01*
X30143926Y30206703D01*
X30122691Y30203553D01*
X30101250Y30202500D01*
X29588750Y30202500D01*
X29567309Y30203553D01*
X29546074Y30206703D01*
X29525250Y30211919D01*
X29505038Y30219151D01*
X29485632Y30228330D01*
X29467219Y30239366D01*
X29449976Y30252154D01*
X29434070Y30266570D01*
X29419654Y30282476D01*
X29406866Y30299719D01*
X29395830Y30318132D01*
X29386651Y30337538D01*
X29379419Y30357750D01*
X29374203Y30378574D01*
X29371053Y30399809D01*
X29370000Y30421250D01*
X29370000Y30858750D01*
X29371053Y30880191D01*
X29374203Y30901426D01*
X29379419Y30922250D01*
X29386651Y30942462D01*
X29395830Y30961868D01*
X29406866Y30980281D01*
X29419654Y30997524D01*
X29434070Y31013430D01*
X29449976Y31027846D01*
X29467219Y31040634D01*
X29485632Y31051670D01*
X29505038Y31060849D01*
X29525250Y31068081D01*
X29546074Y31073297D01*
X29567309Y31076447D01*
X29588750Y31077500D01*
X30101250Y31077500D01*
X30122691Y31076447D01*
G37*
G36*
X30122691Y29501447D02*
G01*
X30143926Y29498297D01*
X30164750Y29493081D01*
X30184962Y29485849D01*
X30204368Y29476670D01*
X30222781Y29465634D01*
X30240024Y29452846D01*
X30255930Y29438430D01*
X30270346Y29422524D01*
X30283134Y29405281D01*
X30294170Y29386868D01*
X30303349Y29367462D01*
X30310581Y29347250D01*
X30315797Y29326426D01*
X30318947Y29305191D01*
X30320000Y29283750D01*
X30320000Y28846250D01*
X30318947Y28824809D01*
X30315797Y28803574D01*
X30310581Y28782750D01*
X30303349Y28762538D01*
X30294170Y28743132D01*
X30283134Y28724719D01*
X30270346Y28707476D01*
X30255930Y28691570D01*
X30240024Y28677154D01*
X30222781Y28664366D01*
X30204368Y28653330D01*
X30184962Y28644151D01*
X30164750Y28636919D01*
X30143926Y28631703D01*
X30122691Y28628553D01*
X30101250Y28627500D01*
X29588750Y28627500D01*
X29567309Y28628553D01*
X29546074Y28631703D01*
X29525250Y28636919D01*
X29505038Y28644151D01*
X29485632Y28653330D01*
X29467219Y28664366D01*
X29449976Y28677154D01*
X29434070Y28691570D01*
X29419654Y28707476D01*
X29406866Y28724719D01*
X29395830Y28743132D01*
X29386651Y28762538D01*
X29379419Y28782750D01*
X29374203Y28803574D01*
X29371053Y28824809D01*
X29370000Y28846250D01*
X29370000Y29283750D01*
X29371053Y29305191D01*
X29374203Y29326426D01*
X29379419Y29347250D01*
X29386651Y29367462D01*
X29395830Y29386868D01*
X29406866Y29405281D01*
X29419654Y29422524D01*
X29434070Y29438430D01*
X29449976Y29452846D01*
X29467219Y29465634D01*
X29485632Y29476670D01*
X29505038Y29485849D01*
X29525250Y29493081D01*
X29546074Y29498297D01*
X29567309Y29501447D01*
X29588750Y29502500D01*
X30101250Y29502500D01*
X30122691Y29501447D01*
G37*
G36*
X30122691Y25691447D02*
G01*
X30143926Y25688297D01*
X30164750Y25683081D01*
X30184962Y25675849D01*
X30204368Y25666670D01*
X30222781Y25655634D01*
X30240024Y25642846D01*
X30255930Y25628430D01*
X30270346Y25612524D01*
X30283134Y25595281D01*
X30294170Y25576868D01*
X30303349Y25557462D01*
X30310581Y25537250D01*
X30315797Y25516426D01*
X30318947Y25495191D01*
X30320000Y25473750D01*
X30320000Y25036250D01*
X30318947Y25014809D01*
X30315797Y24993574D01*
X30310581Y24972750D01*
X30303349Y24952538D01*
X30294170Y24933132D01*
X30283134Y24914719D01*
X30270346Y24897476D01*
X30255930Y24881570D01*
X30240024Y24867154D01*
X30222781Y24854366D01*
X30204368Y24843330D01*
X30184962Y24834151D01*
X30164750Y24826919D01*
X30143926Y24821703D01*
X30122691Y24818553D01*
X30101250Y24817500D01*
X29588750Y24817500D01*
X29567309Y24818553D01*
X29546074Y24821703D01*
X29525250Y24826919D01*
X29505038Y24834151D01*
X29485632Y24843330D01*
X29467219Y24854366D01*
X29449976Y24867154D01*
X29434070Y24881570D01*
X29419654Y24897476D01*
X29406866Y24914719D01*
X29395830Y24933132D01*
X29386651Y24952538D01*
X29379419Y24972750D01*
X29374203Y24993574D01*
X29371053Y25014809D01*
X29370000Y25036250D01*
X29370000Y25473750D01*
X29371053Y25495191D01*
X29374203Y25516426D01*
X29379419Y25537250D01*
X29386651Y25557462D01*
X29395830Y25576868D01*
X29406866Y25595281D01*
X29419654Y25612524D01*
X29434070Y25628430D01*
X29449976Y25642846D01*
X29467219Y25655634D01*
X29485632Y25666670D01*
X29505038Y25675849D01*
X29525250Y25683081D01*
X29546074Y25688297D01*
X29567309Y25691447D01*
X29588750Y25692500D01*
X30101250Y25692500D01*
X30122691Y25691447D01*
G37*
G36*
X30122691Y27266447D02*
G01*
X30143926Y27263297D01*
X30164750Y27258081D01*
X30184962Y27250849D01*
X30204368Y27241670D01*
X30222781Y27230634D01*
X30240024Y27217846D01*
X30255930Y27203430D01*
X30270346Y27187524D01*
X30283134Y27170281D01*
X30294170Y27151868D01*
X30303349Y27132462D01*
X30310581Y27112250D01*
X30315797Y27091426D01*
X30318947Y27070191D01*
X30320000Y27048750D01*
X30320000Y26611250D01*
X30318947Y26589809D01*
X30315797Y26568574D01*
X30310581Y26547750D01*
X30303349Y26527538D01*
X30294170Y26508132D01*
X30283134Y26489719D01*
X30270346Y26472476D01*
X30255930Y26456570D01*
X30240024Y26442154D01*
X30222781Y26429366D01*
X30204368Y26418330D01*
X30184962Y26409151D01*
X30164750Y26401919D01*
X30143926Y26396703D01*
X30122691Y26393553D01*
X30101250Y26392500D01*
X29588750Y26392500D01*
X29567309Y26393553D01*
X29546074Y26396703D01*
X29525250Y26401919D01*
X29505038Y26409151D01*
X29485632Y26418330D01*
X29467219Y26429366D01*
X29449976Y26442154D01*
X29434070Y26456570D01*
X29419654Y26472476D01*
X29406866Y26489719D01*
X29395830Y26508132D01*
X29386651Y26527538D01*
X29379419Y26547750D01*
X29374203Y26568574D01*
X29371053Y26589809D01*
X29370000Y26611250D01*
X29370000Y27048750D01*
X29371053Y27070191D01*
X29374203Y27091426D01*
X29379419Y27112250D01*
X29386651Y27132462D01*
X29395830Y27151868D01*
X29406866Y27170281D01*
X29419654Y27187524D01*
X29434070Y27203430D01*
X29449976Y27217846D01*
X29467219Y27230634D01*
X29485632Y27241670D01*
X29505038Y27250849D01*
X29525250Y27258081D01*
X29546074Y27263297D01*
X29567309Y27266447D01*
X29588750Y27267500D01*
X30101250Y27267500D01*
X30122691Y27266447D01*
G37*
G36*
X-15597309Y30746447D02*
G01*
X-15576074Y30743297D01*
X-15555250Y30738081D01*
X-15535038Y30730849D01*
X-15515632Y30721670D01*
X-15497219Y30710634D01*
X-15479976Y30697846D01*
X-15464070Y30683430D01*
X-15449654Y30667524D01*
X-15436866Y30650281D01*
X-15425830Y30631868D01*
X-15416651Y30612462D01*
X-15409419Y30592250D01*
X-15404203Y30571426D01*
X-15401053Y30550191D01*
X-15400000Y30528750D01*
X-15400000Y30091250D01*
X-15401053Y30069809D01*
X-15404203Y30048574D01*
X-15409419Y30027750D01*
X-15416651Y30007538D01*
X-15425830Y29988132D01*
X-15436866Y29969719D01*
X-15449654Y29952476D01*
X-15464070Y29936570D01*
X-15479976Y29922154D01*
X-15497219Y29909366D01*
X-15515632Y29898330D01*
X-15535038Y29889151D01*
X-15555250Y29881919D01*
X-15576074Y29876703D01*
X-15597309Y29873553D01*
X-15618750Y29872500D01*
X-16131250Y29872500D01*
X-16152691Y29873553D01*
X-16173926Y29876703D01*
X-16194750Y29881919D01*
X-16214962Y29889151D01*
X-16234368Y29898330D01*
X-16252781Y29909366D01*
X-16270024Y29922154D01*
X-16285930Y29936570D01*
X-16300346Y29952476D01*
X-16313134Y29969719D01*
X-16324170Y29988132D01*
X-16333349Y30007538D01*
X-16340581Y30027750D01*
X-16345797Y30048574D01*
X-16348947Y30069809D01*
X-16350000Y30091250D01*
X-16350000Y30528750D01*
X-16348947Y30550191D01*
X-16345797Y30571426D01*
X-16340581Y30592250D01*
X-16333349Y30612462D01*
X-16324170Y30631868D01*
X-16313134Y30650281D01*
X-16300346Y30667524D01*
X-16285930Y30683430D01*
X-16270024Y30697846D01*
X-16252781Y30710634D01*
X-16234368Y30721670D01*
X-16214962Y30730849D01*
X-16194750Y30738081D01*
X-16173926Y30743297D01*
X-16152691Y30746447D01*
X-16131250Y30747500D01*
X-15618750Y30747500D01*
X-15597309Y30746447D01*
G37*
G36*
X-15597309Y29171447D02*
G01*
X-15576074Y29168297D01*
X-15555250Y29163081D01*
X-15535038Y29155849D01*
X-15515632Y29146670D01*
X-15497219Y29135634D01*
X-15479976Y29122846D01*
X-15464070Y29108430D01*
X-15449654Y29092524D01*
X-15436866Y29075281D01*
X-15425830Y29056868D01*
X-15416651Y29037462D01*
X-15409419Y29017250D01*
X-15404203Y28996426D01*
X-15401053Y28975191D01*
X-15400000Y28953750D01*
X-15400000Y28516250D01*
X-15401053Y28494809D01*
X-15404203Y28473574D01*
X-15409419Y28452750D01*
X-15416651Y28432538D01*
X-15425830Y28413132D01*
X-15436866Y28394719D01*
X-15449654Y28377476D01*
X-15464070Y28361570D01*
X-15479976Y28347154D01*
X-15497219Y28334366D01*
X-15515632Y28323330D01*
X-15535038Y28314151D01*
X-15555250Y28306919D01*
X-15576074Y28301703D01*
X-15597309Y28298553D01*
X-15618750Y28297500D01*
X-16131250Y28297500D01*
X-16152691Y28298553D01*
X-16173926Y28301703D01*
X-16194750Y28306919D01*
X-16214962Y28314151D01*
X-16234368Y28323330D01*
X-16252781Y28334366D01*
X-16270024Y28347154D01*
X-16285930Y28361570D01*
X-16300346Y28377476D01*
X-16313134Y28394719D01*
X-16324170Y28413132D01*
X-16333349Y28432538D01*
X-16340581Y28452750D01*
X-16345797Y28473574D01*
X-16348947Y28494809D01*
X-16350000Y28516250D01*
X-16350000Y28953750D01*
X-16348947Y28975191D01*
X-16345797Y28996426D01*
X-16340581Y29017250D01*
X-16333349Y29037462D01*
X-16324170Y29056868D01*
X-16313134Y29075281D01*
X-16300346Y29092524D01*
X-16285930Y29108430D01*
X-16270024Y29122846D01*
X-16252781Y29135634D01*
X-16234368Y29146670D01*
X-16214962Y29155849D01*
X-16194750Y29163081D01*
X-16173926Y29168297D01*
X-16152691Y29171447D01*
X-16131250Y29172500D01*
X-15618750Y29172500D01*
X-15597309Y29171447D01*
G37*
G36*
X-15597309Y32346447D02*
G01*
X-15576074Y32343297D01*
X-15555250Y32338081D01*
X-15535038Y32330849D01*
X-15515632Y32321670D01*
X-15497219Y32310634D01*
X-15479976Y32297846D01*
X-15464070Y32283430D01*
X-15449654Y32267524D01*
X-15436866Y32250281D01*
X-15425830Y32231868D01*
X-15416651Y32212462D01*
X-15409419Y32192250D01*
X-15404203Y32171426D01*
X-15401053Y32150191D01*
X-15400000Y32128750D01*
X-15400000Y31691250D01*
X-15401053Y31669809D01*
X-15404203Y31648574D01*
X-15409419Y31627750D01*
X-15416651Y31607538D01*
X-15425830Y31588132D01*
X-15436866Y31569719D01*
X-15449654Y31552476D01*
X-15464070Y31536570D01*
X-15479976Y31522154D01*
X-15497219Y31509366D01*
X-15515632Y31498330D01*
X-15535038Y31489151D01*
X-15555250Y31481919D01*
X-15576074Y31476703D01*
X-15597309Y31473553D01*
X-15618750Y31472500D01*
X-16131250Y31472500D01*
X-16152691Y31473553D01*
X-16173926Y31476703D01*
X-16194750Y31481919D01*
X-16214962Y31489151D01*
X-16234368Y31498330D01*
X-16252781Y31509366D01*
X-16270024Y31522154D01*
X-16285930Y31536570D01*
X-16300346Y31552476D01*
X-16313134Y31569719D01*
X-16324170Y31588132D01*
X-16333349Y31607538D01*
X-16340581Y31627750D01*
X-16345797Y31648574D01*
X-16348947Y31669809D01*
X-16350000Y31691250D01*
X-16350000Y32128750D01*
X-16348947Y32150191D01*
X-16345797Y32171426D01*
X-16340581Y32192250D01*
X-16333349Y32212462D01*
X-16324170Y32231868D01*
X-16313134Y32250281D01*
X-16300346Y32267524D01*
X-16285930Y32283430D01*
X-16270024Y32297846D01*
X-16252781Y32310634D01*
X-16234368Y32321670D01*
X-16214962Y32330849D01*
X-16194750Y32338081D01*
X-16173926Y32343297D01*
X-16152691Y32346447D01*
X-16131250Y32347500D01*
X-15618750Y32347500D01*
X-15597309Y32346447D01*
G37*
G36*
X-15597309Y33921447D02*
G01*
X-15576074Y33918297D01*
X-15555250Y33913081D01*
X-15535038Y33905849D01*
X-15515632Y33896670D01*
X-15497219Y33885634D01*
X-15479976Y33872846D01*
X-15464070Y33858430D01*
X-15449654Y33842524D01*
X-15436866Y33825281D01*
X-15425830Y33806868D01*
X-15416651Y33787462D01*
X-15409419Y33767250D01*
X-15404203Y33746426D01*
X-15401053Y33725191D01*
X-15400000Y33703750D01*
X-15400000Y33266250D01*
X-15401053Y33244809D01*
X-15404203Y33223574D01*
X-15409419Y33202750D01*
X-15416651Y33182538D01*
X-15425830Y33163132D01*
X-15436866Y33144719D01*
X-15449654Y33127476D01*
X-15464070Y33111570D01*
X-15479976Y33097154D01*
X-15497219Y33084366D01*
X-15515632Y33073330D01*
X-15535038Y33064151D01*
X-15555250Y33056919D01*
X-15576074Y33051703D01*
X-15597309Y33048553D01*
X-15618750Y33047500D01*
X-16131250Y33047500D01*
X-16152691Y33048553D01*
X-16173926Y33051703D01*
X-16194750Y33056919D01*
X-16214962Y33064151D01*
X-16234368Y33073330D01*
X-16252781Y33084366D01*
X-16270024Y33097154D01*
X-16285930Y33111570D01*
X-16300346Y33127476D01*
X-16313134Y33144719D01*
X-16324170Y33163132D01*
X-16333349Y33182538D01*
X-16340581Y33202750D01*
X-16345797Y33223574D01*
X-16348947Y33244809D01*
X-16350000Y33266250D01*
X-16350000Y33703750D01*
X-16348947Y33725191D01*
X-16345797Y33746426D01*
X-16340581Y33767250D01*
X-16333349Y33787462D01*
X-16324170Y33806868D01*
X-16313134Y33825281D01*
X-16300346Y33842524D01*
X-16285930Y33858430D01*
X-16270024Y33872846D01*
X-16252781Y33885634D01*
X-16234368Y33896670D01*
X-16214962Y33905849D01*
X-16194750Y33913081D01*
X-16173926Y33918297D01*
X-16152691Y33921447D01*
X-16131250Y33922500D01*
X-15618750Y33922500D01*
X-15597309Y33921447D01*
G37*
G36*
X-21832309Y26668947D02*
G01*
X-21811074Y26665797D01*
X-21790250Y26660581D01*
X-21770038Y26653349D01*
X-21750632Y26644170D01*
X-21732219Y26633134D01*
X-21714976Y26620346D01*
X-21699070Y26605930D01*
X-21684654Y26590024D01*
X-21671866Y26572781D01*
X-21660830Y26554368D01*
X-21651651Y26534962D01*
X-21644419Y26514750D01*
X-21639203Y26493926D01*
X-21636053Y26472691D01*
X-21635000Y26451250D01*
X-21635000Y25938750D01*
X-21636053Y25917309D01*
X-21639203Y25896074D01*
X-21644419Y25875250D01*
X-21651651Y25855038D01*
X-21660830Y25835632D01*
X-21671866Y25817219D01*
X-21684654Y25799976D01*
X-21699070Y25784070D01*
X-21714976Y25769654D01*
X-21732219Y25756866D01*
X-21750632Y25745830D01*
X-21770038Y25736651D01*
X-21790250Y25729419D01*
X-21811074Y25724203D01*
X-21832309Y25721053D01*
X-21853750Y25720000D01*
X-22291250Y25720000D01*
X-22312691Y25721053D01*
X-22333926Y25724203D01*
X-22354750Y25729419D01*
X-22374962Y25736651D01*
X-22394368Y25745830D01*
X-22412781Y25756866D01*
X-22430024Y25769654D01*
X-22445930Y25784070D01*
X-22460346Y25799976D01*
X-22473134Y25817219D01*
X-22484170Y25835632D01*
X-22493349Y25855038D01*
X-22500581Y25875250D01*
X-22505797Y25896074D01*
X-22508947Y25917309D01*
X-22510000Y25938750D01*
X-22510000Y26451250D01*
X-22508947Y26472691D01*
X-22505797Y26493926D01*
X-22500581Y26514750D01*
X-22493349Y26534962D01*
X-22484170Y26554368D01*
X-22473134Y26572781D01*
X-22460346Y26590024D01*
X-22445930Y26605930D01*
X-22430024Y26620346D01*
X-22412781Y26633134D01*
X-22394368Y26644170D01*
X-22374962Y26653349D01*
X-22354750Y26660581D01*
X-22333926Y26665797D01*
X-22312691Y26668947D01*
X-22291250Y26670000D01*
X-21853750Y26670000D01*
X-21832309Y26668947D01*
G37*
G36*
X-23407309Y26668947D02*
G01*
X-23386074Y26665797D01*
X-23365250Y26660581D01*
X-23345038Y26653349D01*
X-23325632Y26644170D01*
X-23307219Y26633134D01*
X-23289976Y26620346D01*
X-23274070Y26605930D01*
X-23259654Y26590024D01*
X-23246866Y26572781D01*
X-23235830Y26554368D01*
X-23226651Y26534962D01*
X-23219419Y26514750D01*
X-23214203Y26493926D01*
X-23211053Y26472691D01*
X-23210000Y26451250D01*
X-23210000Y25938750D01*
X-23211053Y25917309D01*
X-23214203Y25896074D01*
X-23219419Y25875250D01*
X-23226651Y25855038D01*
X-23235830Y25835632D01*
X-23246866Y25817219D01*
X-23259654Y25799976D01*
X-23274070Y25784070D01*
X-23289976Y25769654D01*
X-23307219Y25756866D01*
X-23325632Y25745830D01*
X-23345038Y25736651D01*
X-23365250Y25729419D01*
X-23386074Y25724203D01*
X-23407309Y25721053D01*
X-23428750Y25720000D01*
X-23866250Y25720000D01*
X-23887691Y25721053D01*
X-23908926Y25724203D01*
X-23929750Y25729419D01*
X-23949962Y25736651D01*
X-23969368Y25745830D01*
X-23987781Y25756866D01*
X-24005024Y25769654D01*
X-24020930Y25784070D01*
X-24035346Y25799976D01*
X-24048134Y25817219D01*
X-24059170Y25835632D01*
X-24068349Y25855038D01*
X-24075581Y25875250D01*
X-24080797Y25896074D01*
X-24083947Y25917309D01*
X-24085000Y25938750D01*
X-24085000Y26451250D01*
X-24083947Y26472691D01*
X-24080797Y26493926D01*
X-24075581Y26514750D01*
X-24068349Y26534962D01*
X-24059170Y26554368D01*
X-24048134Y26572781D01*
X-24035346Y26590024D01*
X-24020930Y26605930D01*
X-24005024Y26620346D01*
X-23987781Y26633134D01*
X-23969368Y26644170D01*
X-23949962Y26653349D01*
X-23929750Y26660581D01*
X-23908926Y26665797D01*
X-23887691Y26668947D01*
X-23866250Y26670000D01*
X-23428750Y26670000D01*
X-23407309Y26668947D01*
G37*
G36*
X-21832309Y24128947D02*
G01*
X-21811074Y24125797D01*
X-21790250Y24120581D01*
X-21770038Y24113349D01*
X-21750632Y24104170D01*
X-21732219Y24093134D01*
X-21714976Y24080346D01*
X-21699070Y24065930D01*
X-21684654Y24050024D01*
X-21671866Y24032781D01*
X-21660830Y24014368D01*
X-21651651Y23994962D01*
X-21644419Y23974750D01*
X-21639203Y23953926D01*
X-21636053Y23932691D01*
X-21635000Y23911250D01*
X-21635000Y23398750D01*
X-21636053Y23377309D01*
X-21639203Y23356074D01*
X-21644419Y23335250D01*
X-21651651Y23315038D01*
X-21660830Y23295632D01*
X-21671866Y23277219D01*
X-21684654Y23259976D01*
X-21699070Y23244070D01*
X-21714976Y23229654D01*
X-21732219Y23216866D01*
X-21750632Y23205830D01*
X-21770038Y23196651D01*
X-21790250Y23189419D01*
X-21811074Y23184203D01*
X-21832309Y23181053D01*
X-21853750Y23180000D01*
X-22291250Y23180000D01*
X-22312691Y23181053D01*
X-22333926Y23184203D01*
X-22354750Y23189419D01*
X-22374962Y23196651D01*
X-22394368Y23205830D01*
X-22412781Y23216866D01*
X-22430024Y23229654D01*
X-22445930Y23244070D01*
X-22460346Y23259976D01*
X-22473134Y23277219D01*
X-22484170Y23295632D01*
X-22493349Y23315038D01*
X-22500581Y23335250D01*
X-22505797Y23356074D01*
X-22508947Y23377309D01*
X-22510000Y23398750D01*
X-22510000Y23911250D01*
X-22508947Y23932691D01*
X-22505797Y23953926D01*
X-22500581Y23974750D01*
X-22493349Y23994962D01*
X-22484170Y24014368D01*
X-22473134Y24032781D01*
X-22460346Y24050024D01*
X-22445930Y24065930D01*
X-22430024Y24080346D01*
X-22412781Y24093134D01*
X-22394368Y24104170D01*
X-22374962Y24113349D01*
X-22354750Y24120581D01*
X-22333926Y24125797D01*
X-22312691Y24128947D01*
X-22291250Y24130000D01*
X-21853750Y24130000D01*
X-21832309Y24128947D01*
G37*
G36*
X-23407309Y24128947D02*
G01*
X-23386074Y24125797D01*
X-23365250Y24120581D01*
X-23345038Y24113349D01*
X-23325632Y24104170D01*
X-23307219Y24093134D01*
X-23289976Y24080346D01*
X-23274070Y24065930D01*
X-23259654Y24050024D01*
X-23246866Y24032781D01*
X-23235830Y24014368D01*
X-23226651Y23994962D01*
X-23219419Y23974750D01*
X-23214203Y23953926D01*
X-23211053Y23932691D01*
X-23210000Y23911250D01*
X-23210000Y23398750D01*
X-23211053Y23377309D01*
X-23214203Y23356074D01*
X-23219419Y23335250D01*
X-23226651Y23315038D01*
X-23235830Y23295632D01*
X-23246866Y23277219D01*
X-23259654Y23259976D01*
X-23274070Y23244070D01*
X-23289976Y23229654D01*
X-23307219Y23216866D01*
X-23325632Y23205830D01*
X-23345038Y23196651D01*
X-23365250Y23189419D01*
X-23386074Y23184203D01*
X-23407309Y23181053D01*
X-23428750Y23180000D01*
X-23866250Y23180000D01*
X-23887691Y23181053D01*
X-23908926Y23184203D01*
X-23929750Y23189419D01*
X-23949962Y23196651D01*
X-23969368Y23205830D01*
X-23987781Y23216866D01*
X-24005024Y23229654D01*
X-24020930Y23244070D01*
X-24035346Y23259976D01*
X-24048134Y23277219D01*
X-24059170Y23295632D01*
X-24068349Y23315038D01*
X-24075581Y23335250D01*
X-24080797Y23356074D01*
X-24083947Y23377309D01*
X-24085000Y23398750D01*
X-24085000Y23911250D01*
X-24083947Y23932691D01*
X-24080797Y23953926D01*
X-24075581Y23974750D01*
X-24068349Y23994962D01*
X-24059170Y24014368D01*
X-24048134Y24032781D01*
X-24035346Y24050024D01*
X-24020930Y24065930D01*
X-24005024Y24080346D01*
X-23987781Y24093134D01*
X-23969368Y24104170D01*
X-23949962Y24113349D01*
X-23929750Y24120581D01*
X-23908926Y24125797D01*
X-23887691Y24128947D01*
X-23866250Y24130000D01*
X-23428750Y24130000D01*
X-23407309Y24128947D01*
G37*
G36*
X-20232309Y24128947D02*
G01*
X-20211074Y24125797D01*
X-20190250Y24120581D01*
X-20170038Y24113349D01*
X-20150632Y24104170D01*
X-20132219Y24093134D01*
X-20114976Y24080346D01*
X-20099070Y24065930D01*
X-20084654Y24050024D01*
X-20071866Y24032781D01*
X-20060830Y24014368D01*
X-20051651Y23994962D01*
X-20044419Y23974750D01*
X-20039203Y23953926D01*
X-20036053Y23932691D01*
X-20035000Y23911250D01*
X-20035000Y23398750D01*
X-20036053Y23377309D01*
X-20039203Y23356074D01*
X-20044419Y23335250D01*
X-20051651Y23315038D01*
X-20060830Y23295632D01*
X-20071866Y23277219D01*
X-20084654Y23259976D01*
X-20099070Y23244070D01*
X-20114976Y23229654D01*
X-20132219Y23216866D01*
X-20150632Y23205830D01*
X-20170038Y23196651D01*
X-20190250Y23189419D01*
X-20211074Y23184203D01*
X-20232309Y23181053D01*
X-20253750Y23180000D01*
X-20691250Y23180000D01*
X-20712691Y23181053D01*
X-20733926Y23184203D01*
X-20754750Y23189419D01*
X-20774962Y23196651D01*
X-20794368Y23205830D01*
X-20812781Y23216866D01*
X-20830024Y23229654D01*
X-20845930Y23244070D01*
X-20860346Y23259976D01*
X-20873134Y23277219D01*
X-20884170Y23295632D01*
X-20893349Y23315038D01*
X-20900581Y23335250D01*
X-20905797Y23356074D01*
X-20908947Y23377309D01*
X-20910000Y23398750D01*
X-20910000Y23911250D01*
X-20908947Y23932691D01*
X-20905797Y23953926D01*
X-20900581Y23974750D01*
X-20893349Y23994962D01*
X-20884170Y24014368D01*
X-20873134Y24032781D01*
X-20860346Y24050024D01*
X-20845930Y24065930D01*
X-20830024Y24080346D01*
X-20812781Y24093134D01*
X-20794368Y24104170D01*
X-20774962Y24113349D01*
X-20754750Y24120581D01*
X-20733926Y24125797D01*
X-20712691Y24128947D01*
X-20691250Y24130000D01*
X-20253750Y24130000D01*
X-20232309Y24128947D01*
G37*
G36*
X-18657309Y24128947D02*
G01*
X-18636074Y24125797D01*
X-18615250Y24120581D01*
X-18595038Y24113349D01*
X-18575632Y24104170D01*
X-18557219Y24093134D01*
X-18539976Y24080346D01*
X-18524070Y24065930D01*
X-18509654Y24050024D01*
X-18496866Y24032781D01*
X-18485830Y24014368D01*
X-18476651Y23994962D01*
X-18469419Y23974750D01*
X-18464203Y23953926D01*
X-18461053Y23932691D01*
X-18460000Y23911250D01*
X-18460000Y23398750D01*
X-18461053Y23377309D01*
X-18464203Y23356074D01*
X-18469419Y23335250D01*
X-18476651Y23315038D01*
X-18485830Y23295632D01*
X-18496866Y23277219D01*
X-18509654Y23259976D01*
X-18524070Y23244070D01*
X-18539976Y23229654D01*
X-18557219Y23216866D01*
X-18575632Y23205830D01*
X-18595038Y23196651D01*
X-18615250Y23189419D01*
X-18636074Y23184203D01*
X-18657309Y23181053D01*
X-18678750Y23180000D01*
X-19116250Y23180000D01*
X-19137691Y23181053D01*
X-19158926Y23184203D01*
X-19179750Y23189419D01*
X-19199962Y23196651D01*
X-19219368Y23205830D01*
X-19237781Y23216866D01*
X-19255024Y23229654D01*
X-19270930Y23244070D01*
X-19285346Y23259976D01*
X-19298134Y23277219D01*
X-19309170Y23295632D01*
X-19318349Y23315038D01*
X-19325581Y23335250D01*
X-19330797Y23356074D01*
X-19333947Y23377309D01*
X-19335000Y23398750D01*
X-19335000Y23911250D01*
X-19333947Y23932691D01*
X-19330797Y23953926D01*
X-19325581Y23974750D01*
X-19318349Y23994962D01*
X-19309170Y24014368D01*
X-19298134Y24032781D01*
X-19285346Y24050024D01*
X-19270930Y24065930D01*
X-19255024Y24080346D01*
X-19237781Y24093134D01*
X-19219368Y24104170D01*
X-19199962Y24113349D01*
X-19179750Y24120581D01*
X-19158926Y24125797D01*
X-19137691Y24128947D01*
X-19116250Y24130000D01*
X-18678750Y24130000D01*
X-18657309Y24128947D01*
G37*
G36*
X-22365809Y10285947D02*
G01*
X-22344574Y10282797D01*
X-22323750Y10277581D01*
X-22303538Y10270349D01*
X-22284132Y10261170D01*
X-22265719Y10250134D01*
X-22248476Y10237346D01*
X-22232570Y10222930D01*
X-22218154Y10207024D01*
X-22205366Y10189781D01*
X-22194330Y10171368D01*
X-22185151Y10151962D01*
X-22177919Y10131750D01*
X-22172703Y10110926D01*
X-22169553Y10089691D01*
X-22168500Y10068250D01*
X-22168500Y9555750D01*
X-22169553Y9534309D01*
X-22172703Y9513074D01*
X-22177919Y9492250D01*
X-22185151Y9472038D01*
X-22194330Y9452632D01*
X-22205366Y9434219D01*
X-22218154Y9416976D01*
X-22232570Y9401070D01*
X-22248476Y9386654D01*
X-22265719Y9373866D01*
X-22284132Y9362830D01*
X-22303538Y9353651D01*
X-22323750Y9346419D01*
X-22344574Y9341203D01*
X-22365809Y9338053D01*
X-22387250Y9337000D01*
X-22824750Y9337000D01*
X-22846191Y9338053D01*
X-22867426Y9341203D01*
X-22888250Y9346419D01*
X-22908462Y9353651D01*
X-22927868Y9362830D01*
X-22946281Y9373866D01*
X-22963524Y9386654D01*
X-22979430Y9401070D01*
X-22993846Y9416976D01*
X-23006634Y9434219D01*
X-23017670Y9452632D01*
X-23026849Y9472038D01*
X-23034081Y9492250D01*
X-23039297Y9513074D01*
X-23042447Y9534309D01*
X-23043500Y9555750D01*
X-23043500Y10068250D01*
X-23042447Y10089691D01*
X-23039297Y10110926D01*
X-23034081Y10131750D01*
X-23026849Y10151962D01*
X-23017670Y10171368D01*
X-23006634Y10189781D01*
X-22993846Y10207024D01*
X-22979430Y10222930D01*
X-22963524Y10237346D01*
X-22946281Y10250134D01*
X-22927868Y10261170D01*
X-22908462Y10270349D01*
X-22888250Y10277581D01*
X-22867426Y10282797D01*
X-22846191Y10285947D01*
X-22824750Y10287000D01*
X-22387250Y10287000D01*
X-22365809Y10285947D01*
G37*
G36*
X-23940809Y10285947D02*
G01*
X-23919574Y10282797D01*
X-23898750Y10277581D01*
X-23878538Y10270349D01*
X-23859132Y10261170D01*
X-23840719Y10250134D01*
X-23823476Y10237346D01*
X-23807570Y10222930D01*
X-23793154Y10207024D01*
X-23780366Y10189781D01*
X-23769330Y10171368D01*
X-23760151Y10151962D01*
X-23752919Y10131750D01*
X-23747703Y10110926D01*
X-23744553Y10089691D01*
X-23743500Y10068250D01*
X-23743500Y9555750D01*
X-23744553Y9534309D01*
X-23747703Y9513074D01*
X-23752919Y9492250D01*
X-23760151Y9472038D01*
X-23769330Y9452632D01*
X-23780366Y9434219D01*
X-23793154Y9416976D01*
X-23807570Y9401070D01*
X-23823476Y9386654D01*
X-23840719Y9373866D01*
X-23859132Y9362830D01*
X-23878538Y9353651D01*
X-23898750Y9346419D01*
X-23919574Y9341203D01*
X-23940809Y9338053D01*
X-23962250Y9337000D01*
X-24399750Y9337000D01*
X-24421191Y9338053D01*
X-24442426Y9341203D01*
X-24463250Y9346419D01*
X-24483462Y9353651D01*
X-24502868Y9362830D01*
X-24521281Y9373866D01*
X-24538524Y9386654D01*
X-24554430Y9401070D01*
X-24568846Y9416976D01*
X-24581634Y9434219D01*
X-24592670Y9452632D01*
X-24601849Y9472038D01*
X-24609081Y9492250D01*
X-24614297Y9513074D01*
X-24617447Y9534309D01*
X-24618500Y9555750D01*
X-24618500Y10068250D01*
X-24617447Y10089691D01*
X-24614297Y10110926D01*
X-24609081Y10131750D01*
X-24601849Y10151962D01*
X-24592670Y10171368D01*
X-24581634Y10189781D01*
X-24568846Y10207024D01*
X-24554430Y10222930D01*
X-24538524Y10237346D01*
X-24521281Y10250134D01*
X-24502868Y10261170D01*
X-24483462Y10270349D01*
X-24463250Y10277581D01*
X-24442426Y10282797D01*
X-24421191Y10285947D01*
X-24399750Y10287000D01*
X-23962250Y10287000D01*
X-23940809Y10285947D01*
G37*
G36*
X-11787309Y20281447D02*
G01*
X-11766074Y20278297D01*
X-11745250Y20273081D01*
X-11725038Y20265849D01*
X-11705632Y20256670D01*
X-11687219Y20245634D01*
X-11669976Y20232846D01*
X-11654070Y20218430D01*
X-11639654Y20202524D01*
X-11626866Y20185281D01*
X-11615830Y20166868D01*
X-11606651Y20147462D01*
X-11599419Y20127250D01*
X-11594203Y20106426D01*
X-11591053Y20085191D01*
X-11590000Y20063750D01*
X-11590000Y19626250D01*
X-11591053Y19604809D01*
X-11594203Y19583574D01*
X-11599419Y19562750D01*
X-11606651Y19542538D01*
X-11615830Y19523132D01*
X-11626866Y19504719D01*
X-11639654Y19487476D01*
X-11654070Y19471570D01*
X-11669976Y19457154D01*
X-11687219Y19444366D01*
X-11705632Y19433330D01*
X-11725038Y19424151D01*
X-11745250Y19416919D01*
X-11766074Y19411703D01*
X-11787309Y19408553D01*
X-11808750Y19407500D01*
X-12321250Y19407500D01*
X-12342691Y19408553D01*
X-12363926Y19411703D01*
X-12384750Y19416919D01*
X-12404962Y19424151D01*
X-12424368Y19433330D01*
X-12442781Y19444366D01*
X-12460024Y19457154D01*
X-12475930Y19471570D01*
X-12490346Y19487476D01*
X-12503134Y19504719D01*
X-12514170Y19523132D01*
X-12523349Y19542538D01*
X-12530581Y19562750D01*
X-12535797Y19583574D01*
X-12538947Y19604809D01*
X-12540000Y19626250D01*
X-12540000Y20063750D01*
X-12538947Y20085191D01*
X-12535797Y20106426D01*
X-12530581Y20127250D01*
X-12523349Y20147462D01*
X-12514170Y20166868D01*
X-12503134Y20185281D01*
X-12490346Y20202524D01*
X-12475930Y20218430D01*
X-12460024Y20232846D01*
X-12442781Y20245634D01*
X-12424368Y20256670D01*
X-12404962Y20265849D01*
X-12384750Y20273081D01*
X-12363926Y20278297D01*
X-12342691Y20281447D01*
X-12321250Y20282500D01*
X-11808750Y20282500D01*
X-11787309Y20281447D01*
G37*
G36*
X-11787309Y21856447D02*
G01*
X-11766074Y21853297D01*
X-11745250Y21848081D01*
X-11725038Y21840849D01*
X-11705632Y21831670D01*
X-11687219Y21820634D01*
X-11669976Y21807846D01*
X-11654070Y21793430D01*
X-11639654Y21777524D01*
X-11626866Y21760281D01*
X-11615830Y21741868D01*
X-11606651Y21722462D01*
X-11599419Y21702250D01*
X-11594203Y21681426D01*
X-11591053Y21660191D01*
X-11590000Y21638750D01*
X-11590000Y21201250D01*
X-11591053Y21179809D01*
X-11594203Y21158574D01*
X-11599419Y21137750D01*
X-11606651Y21117538D01*
X-11615830Y21098132D01*
X-11626866Y21079719D01*
X-11639654Y21062476D01*
X-11654070Y21046570D01*
X-11669976Y21032154D01*
X-11687219Y21019366D01*
X-11705632Y21008330D01*
X-11725038Y20999151D01*
X-11745250Y20991919D01*
X-11766074Y20986703D01*
X-11787309Y20983553D01*
X-11808750Y20982500D01*
X-12321250Y20982500D01*
X-12342691Y20983553D01*
X-12363926Y20986703D01*
X-12384750Y20991919D01*
X-12404962Y20999151D01*
X-12424368Y21008330D01*
X-12442781Y21019366D01*
X-12460024Y21032154D01*
X-12475930Y21046570D01*
X-12490346Y21062476D01*
X-12503134Y21079719D01*
X-12514170Y21098132D01*
X-12523349Y21117538D01*
X-12530581Y21137750D01*
X-12535797Y21158574D01*
X-12538947Y21179809D01*
X-12540000Y21201250D01*
X-12540000Y21638750D01*
X-12538947Y21660191D01*
X-12535797Y21681426D01*
X-12530581Y21702250D01*
X-12523349Y21722462D01*
X-12514170Y21741868D01*
X-12503134Y21760281D01*
X-12490346Y21777524D01*
X-12475930Y21793430D01*
X-12460024Y21807846D01*
X-12442781Y21820634D01*
X-12424368Y21831670D01*
X-12404962Y21840849D01*
X-12384750Y21848081D01*
X-12363926Y21853297D01*
X-12342691Y21856447D01*
X-12321250Y21857500D01*
X-11808750Y21857500D01*
X-11787309Y21856447D01*
G37*
G36*
X-24524809Y-21591053D02*
G01*
X-24503574Y-21594203D01*
X-24482750Y-21599419D01*
X-24462538Y-21606651D01*
X-24443132Y-21615830D01*
X-24424719Y-21626866D01*
X-24407476Y-21639654D01*
X-24391570Y-21654070D01*
X-24377154Y-21669976D01*
X-24364366Y-21687219D01*
X-24353330Y-21705632D01*
X-24344151Y-21725038D01*
X-24336919Y-21745250D01*
X-24331703Y-21766074D01*
X-24328553Y-21787309D01*
X-24327500Y-21808750D01*
X-24327500Y-22321250D01*
X-24328553Y-22342691D01*
X-24331703Y-22363926D01*
X-24336919Y-22384750D01*
X-24344151Y-22404962D01*
X-24353330Y-22424368D01*
X-24364366Y-22442781D01*
X-24377154Y-22460024D01*
X-24391570Y-22475930D01*
X-24407476Y-22490346D01*
X-24424719Y-22503134D01*
X-24443132Y-22514170D01*
X-24462538Y-22523349D01*
X-24482750Y-22530581D01*
X-24503574Y-22535797D01*
X-24524809Y-22538947D01*
X-24546250Y-22540000D01*
X-24983750Y-22540000D01*
X-25005191Y-22538947D01*
X-25026426Y-22535797D01*
X-25047250Y-22530581D01*
X-25067462Y-22523349D01*
X-25086868Y-22514170D01*
X-25105281Y-22503134D01*
X-25122524Y-22490346D01*
X-25138430Y-22475930D01*
X-25152846Y-22460024D01*
X-25165634Y-22442781D01*
X-25176670Y-22424368D01*
X-25185849Y-22404962D01*
X-25193081Y-22384750D01*
X-25198297Y-22363926D01*
X-25201447Y-22342691D01*
X-25202500Y-22321250D01*
X-25202500Y-21808750D01*
X-25201447Y-21787309D01*
X-25198297Y-21766074D01*
X-25193081Y-21745250D01*
X-25185849Y-21725038D01*
X-25176670Y-21705632D01*
X-25165634Y-21687219D01*
X-25152846Y-21669976D01*
X-25138430Y-21654070D01*
X-25122524Y-21639654D01*
X-25105281Y-21626866D01*
X-25086868Y-21615830D01*
X-25067462Y-21606651D01*
X-25047250Y-21599419D01*
X-25026426Y-21594203D01*
X-25005191Y-21591053D01*
X-24983750Y-21590000D01*
X-24546250Y-21590000D01*
X-24524809Y-21591053D01*
G37*
G36*
X-22949809Y-21591053D02*
G01*
X-22928574Y-21594203D01*
X-22907750Y-21599419D01*
X-22887538Y-21606651D01*
X-22868132Y-21615830D01*
X-22849719Y-21626866D01*
X-22832476Y-21639654D01*
X-22816570Y-21654070D01*
X-22802154Y-21669976D01*
X-22789366Y-21687219D01*
X-22778330Y-21705632D01*
X-22769151Y-21725038D01*
X-22761919Y-21745250D01*
X-22756703Y-21766074D01*
X-22753553Y-21787309D01*
X-22752500Y-21808750D01*
X-22752500Y-22321250D01*
X-22753553Y-22342691D01*
X-22756703Y-22363926D01*
X-22761919Y-22384750D01*
X-22769151Y-22404962D01*
X-22778330Y-22424368D01*
X-22789366Y-22442781D01*
X-22802154Y-22460024D01*
X-22816570Y-22475930D01*
X-22832476Y-22490346D01*
X-22849719Y-22503134D01*
X-22868132Y-22514170D01*
X-22887538Y-22523349D01*
X-22907750Y-22530581D01*
X-22928574Y-22535797D01*
X-22949809Y-22538947D01*
X-22971250Y-22540000D01*
X-23408750Y-22540000D01*
X-23430191Y-22538947D01*
X-23451426Y-22535797D01*
X-23472250Y-22530581D01*
X-23492462Y-22523349D01*
X-23511868Y-22514170D01*
X-23530281Y-22503134D01*
X-23547524Y-22490346D01*
X-23563430Y-22475930D01*
X-23577846Y-22460024D01*
X-23590634Y-22442781D01*
X-23601670Y-22424368D01*
X-23610849Y-22404962D01*
X-23618081Y-22384750D01*
X-23623297Y-22363926D01*
X-23626447Y-22342691D01*
X-23627500Y-22321250D01*
X-23627500Y-21808750D01*
X-23626447Y-21787309D01*
X-23623297Y-21766074D01*
X-23618081Y-21745250D01*
X-23610849Y-21725038D01*
X-23601670Y-21705632D01*
X-23590634Y-21687219D01*
X-23577846Y-21669976D01*
X-23563430Y-21654070D01*
X-23547524Y-21639654D01*
X-23530281Y-21626866D01*
X-23511868Y-21615830D01*
X-23492462Y-21606651D01*
X-23472250Y-21599419D01*
X-23451426Y-21594203D01*
X-23430191Y-21591053D01*
X-23408750Y-21590000D01*
X-22971250Y-21590000D01*
X-22949809Y-21591053D01*
G37*
G36*
X-24524809Y-23496053D02*
G01*
X-24503574Y-23499203D01*
X-24482750Y-23504419D01*
X-24462538Y-23511651D01*
X-24443132Y-23520830D01*
X-24424719Y-23531866D01*
X-24407476Y-23544654D01*
X-24391570Y-23559070D01*
X-24377154Y-23574976D01*
X-24364366Y-23592219D01*
X-24353330Y-23610632D01*
X-24344151Y-23630038D01*
X-24336919Y-23650250D01*
X-24331703Y-23671074D01*
X-24328553Y-23692309D01*
X-24327500Y-23713750D01*
X-24327500Y-24226250D01*
X-24328553Y-24247691D01*
X-24331703Y-24268926D01*
X-24336919Y-24289750D01*
X-24344151Y-24309962D01*
X-24353330Y-24329368D01*
X-24364366Y-24347781D01*
X-24377154Y-24365024D01*
X-24391570Y-24380930D01*
X-24407476Y-24395346D01*
X-24424719Y-24408134D01*
X-24443132Y-24419170D01*
X-24462538Y-24428349D01*
X-24482750Y-24435581D01*
X-24503574Y-24440797D01*
X-24524809Y-24443947D01*
X-24546250Y-24445000D01*
X-24983750Y-24445000D01*
X-25005191Y-24443947D01*
X-25026426Y-24440797D01*
X-25047250Y-24435581D01*
X-25067462Y-24428349D01*
X-25086868Y-24419170D01*
X-25105281Y-24408134D01*
X-25122524Y-24395346D01*
X-25138430Y-24380930D01*
X-25152846Y-24365024D01*
X-25165634Y-24347781D01*
X-25176670Y-24329368D01*
X-25185849Y-24309962D01*
X-25193081Y-24289750D01*
X-25198297Y-24268926D01*
X-25201447Y-24247691D01*
X-25202500Y-24226250D01*
X-25202500Y-23713750D01*
X-25201447Y-23692309D01*
X-25198297Y-23671074D01*
X-25193081Y-23650250D01*
X-25185849Y-23630038D01*
X-25176670Y-23610632D01*
X-25165634Y-23592219D01*
X-25152846Y-23574976D01*
X-25138430Y-23559070D01*
X-25122524Y-23544654D01*
X-25105281Y-23531866D01*
X-25086868Y-23520830D01*
X-25067462Y-23511651D01*
X-25047250Y-23504419D01*
X-25026426Y-23499203D01*
X-25005191Y-23496053D01*
X-24983750Y-23495000D01*
X-24546250Y-23495000D01*
X-24524809Y-23496053D01*
G37*
G36*
X-22949809Y-23496053D02*
G01*
X-22928574Y-23499203D01*
X-22907750Y-23504419D01*
X-22887538Y-23511651D01*
X-22868132Y-23520830D01*
X-22849719Y-23531866D01*
X-22832476Y-23544654D01*
X-22816570Y-23559070D01*
X-22802154Y-23574976D01*
X-22789366Y-23592219D01*
X-22778330Y-23610632D01*
X-22769151Y-23630038D01*
X-22761919Y-23650250D01*
X-22756703Y-23671074D01*
X-22753553Y-23692309D01*
X-22752500Y-23713750D01*
X-22752500Y-24226250D01*
X-22753553Y-24247691D01*
X-22756703Y-24268926D01*
X-22761919Y-24289750D01*
X-22769151Y-24309962D01*
X-22778330Y-24329368D01*
X-22789366Y-24347781D01*
X-22802154Y-24365024D01*
X-22816570Y-24380930D01*
X-22832476Y-24395346D01*
X-22849719Y-24408134D01*
X-22868132Y-24419170D01*
X-22887538Y-24428349D01*
X-22907750Y-24435581D01*
X-22928574Y-24440797D01*
X-22949809Y-24443947D01*
X-22971250Y-24445000D01*
X-23408750Y-24445000D01*
X-23430191Y-24443947D01*
X-23451426Y-24440797D01*
X-23472250Y-24435581D01*
X-23492462Y-24428349D01*
X-23511868Y-24419170D01*
X-23530281Y-24408134D01*
X-23547524Y-24395346D01*
X-23563430Y-24380930D01*
X-23577846Y-24365024D01*
X-23590634Y-24347781D01*
X-23601670Y-24329368D01*
X-23610849Y-24309962D01*
X-23618081Y-24289750D01*
X-23623297Y-24268926D01*
X-23626447Y-24247691D01*
X-23627500Y-24226250D01*
X-23627500Y-23713750D01*
X-23626447Y-23692309D01*
X-23623297Y-23671074D01*
X-23618081Y-23650250D01*
X-23610849Y-23630038D01*
X-23601670Y-23610632D01*
X-23590634Y-23592219D01*
X-23577846Y-23574976D01*
X-23563430Y-23559070D01*
X-23547524Y-23544654D01*
X-23530281Y-23531866D01*
X-23511868Y-23520830D01*
X-23492462Y-23511651D01*
X-23472250Y-23504419D01*
X-23451426Y-23499203D01*
X-23430191Y-23496053D01*
X-23408750Y-23495000D01*
X-22971250Y-23495000D01*
X-22949809Y-23496053D01*
G37*
G36*
X-13340496Y-6026204D02*
G01*
X-13316227Y-6029804D01*
X-13292429Y-6035765D01*
X-13269329Y-6044030D01*
X-13247151Y-6054520D01*
X-13226107Y-6067133D01*
X-13206402Y-6081747D01*
X-13188223Y-6098223D01*
X-13171747Y-6116402D01*
X-13157133Y-6136107D01*
X-13144520Y-6157151D01*
X-13134030Y-6179329D01*
X-13125765Y-6202429D01*
X-13119804Y-6226227D01*
X-13116204Y-6250496D01*
X-13115000Y-6275000D01*
X-13115000Y-7375000D01*
X-13116204Y-7399504D01*
X-13119804Y-7423773D01*
X-13125765Y-7447571D01*
X-13134030Y-7470671D01*
X-13144520Y-7492849D01*
X-13157133Y-7513893D01*
X-13171747Y-7533598D01*
X-13188223Y-7551777D01*
X-13206402Y-7568253D01*
X-13226107Y-7582867D01*
X-13247151Y-7595480D01*
X-13269329Y-7605970D01*
X-13292429Y-7614235D01*
X-13316227Y-7620196D01*
X-13340496Y-7623796D01*
X-13365000Y-7625000D01*
X-16365000Y-7625000D01*
X-16389504Y-7623796D01*
X-16413773Y-7620196D01*
X-16437571Y-7614235D01*
X-16460671Y-7605970D01*
X-16482849Y-7595480D01*
X-16503893Y-7582867D01*
X-16523598Y-7568253D01*
X-16541777Y-7551777D01*
X-16558253Y-7533598D01*
X-16572867Y-7513893D01*
X-16585480Y-7492849D01*
X-16595970Y-7470671D01*
X-16604235Y-7447571D01*
X-16610196Y-7423773D01*
X-16613796Y-7399504D01*
X-16615000Y-7375000D01*
X-16615000Y-6275000D01*
X-16613796Y-6250496D01*
X-16610196Y-6226227D01*
X-16604235Y-6202429D01*
X-16595970Y-6179329D01*
X-16585480Y-6157151D01*
X-16572867Y-6136107D01*
X-16558253Y-6116402D01*
X-16541777Y-6098223D01*
X-16523598Y-6081747D01*
X-16503893Y-6067133D01*
X-16482849Y-6054520D01*
X-16460671Y-6044030D01*
X-16437571Y-6035765D01*
X-16413773Y-6029804D01*
X-16389504Y-6026204D01*
X-16365000Y-6025000D01*
X-13365000Y-6025000D01*
X-13340496Y-6026204D01*
G37*
G36*
X-7740496Y-6026204D02*
G01*
X-7716227Y-6029804D01*
X-7692429Y-6035765D01*
X-7669329Y-6044030D01*
X-7647151Y-6054520D01*
X-7626107Y-6067133D01*
X-7606402Y-6081747D01*
X-7588223Y-6098223D01*
X-7571747Y-6116402D01*
X-7557133Y-6136107D01*
X-7544520Y-6157151D01*
X-7534030Y-6179329D01*
X-7525765Y-6202429D01*
X-7519804Y-6226227D01*
X-7516204Y-6250496D01*
X-7515000Y-6275000D01*
X-7515000Y-7375000D01*
X-7516204Y-7399504D01*
X-7519804Y-7423773D01*
X-7525765Y-7447571D01*
X-7534030Y-7470671D01*
X-7544520Y-7492849D01*
X-7557133Y-7513893D01*
X-7571747Y-7533598D01*
X-7588223Y-7551777D01*
X-7606402Y-7568253D01*
X-7626107Y-7582867D01*
X-7647151Y-7595480D01*
X-7669329Y-7605970D01*
X-7692429Y-7614235D01*
X-7716227Y-7620196D01*
X-7740496Y-7623796D01*
X-7765000Y-7625000D01*
X-10765000Y-7625000D01*
X-10789504Y-7623796D01*
X-10813773Y-7620196D01*
X-10837571Y-7614235D01*
X-10860671Y-7605970D01*
X-10882849Y-7595480D01*
X-10903893Y-7582867D01*
X-10923598Y-7568253D01*
X-10941777Y-7551777D01*
X-10958253Y-7533598D01*
X-10972867Y-7513893D01*
X-10985480Y-7492849D01*
X-10995970Y-7470671D01*
X-11004235Y-7447571D01*
X-11010196Y-7423773D01*
X-11013796Y-7399504D01*
X-11015000Y-7375000D01*
X-11015000Y-6275000D01*
X-11013796Y-6250496D01*
X-11010196Y-6226227D01*
X-11004235Y-6202429D01*
X-10995970Y-6179329D01*
X-10985480Y-6157151D01*
X-10972867Y-6136107D01*
X-10958253Y-6116402D01*
X-10941777Y-6098223D01*
X-10923598Y-6081747D01*
X-10903893Y-6067133D01*
X-10882849Y-6054520D01*
X-10860671Y-6044030D01*
X-10837571Y-6035765D01*
X-10813773Y-6029804D01*
X-10789504Y-6026204D01*
X-10765000Y-6025000D01*
X-7765000Y-6025000D01*
X-7740496Y-6026204D01*
G37*
G36*
X-17205496Y-24386204D02*
G01*
X-17181227Y-24389804D01*
X-17157429Y-24395765D01*
X-17134329Y-24404030D01*
X-17112151Y-24414520D01*
X-17091107Y-24427133D01*
X-17071402Y-24441747D01*
X-17053223Y-24458223D01*
X-17036747Y-24476402D01*
X-17022133Y-24496107D01*
X-17009520Y-24517151D01*
X-16999030Y-24539329D01*
X-16990765Y-24562429D01*
X-16984804Y-24586227D01*
X-16981204Y-24610496D01*
X-16980000Y-24635000D01*
X-16980000Y-27635000D01*
X-16981204Y-27659504D01*
X-16984804Y-27683773D01*
X-16990765Y-27707571D01*
X-16999030Y-27730671D01*
X-17009520Y-27752849D01*
X-17022133Y-27773893D01*
X-17036747Y-27793598D01*
X-17053223Y-27811777D01*
X-17071402Y-27828253D01*
X-17091107Y-27842867D01*
X-17112151Y-27855480D01*
X-17134329Y-27865970D01*
X-17157429Y-27874235D01*
X-17181227Y-27880196D01*
X-17205496Y-27883796D01*
X-17230000Y-27885000D01*
X-18330000Y-27885000D01*
X-18354504Y-27883796D01*
X-18378773Y-27880196D01*
X-18402571Y-27874235D01*
X-18425671Y-27865970D01*
X-18447849Y-27855480D01*
X-18468893Y-27842867D01*
X-18488598Y-27828253D01*
X-18506777Y-27811777D01*
X-18523253Y-27793598D01*
X-18537867Y-27773893D01*
X-18550480Y-27752849D01*
X-18560970Y-27730671D01*
X-18569235Y-27707571D01*
X-18575196Y-27683773D01*
X-18578796Y-27659504D01*
X-18580000Y-27635000D01*
X-18580000Y-24635000D01*
X-18578796Y-24610496D01*
X-18575196Y-24586227D01*
X-18569235Y-24562429D01*
X-18560970Y-24539329D01*
X-18550480Y-24517151D01*
X-18537867Y-24496107D01*
X-18523253Y-24476402D01*
X-18506777Y-24458223D01*
X-18488598Y-24441747D01*
X-18468893Y-24427133D01*
X-18447849Y-24414520D01*
X-18425671Y-24404030D01*
X-18402571Y-24395765D01*
X-18378773Y-24389804D01*
X-18354504Y-24386204D01*
X-18330000Y-24385000D01*
X-17230000Y-24385000D01*
X-17205496Y-24386204D01*
G37*
G36*
X-17205496Y-18786204D02*
G01*
X-17181227Y-18789804D01*
X-17157429Y-18795765D01*
X-17134329Y-18804030D01*
X-17112151Y-18814520D01*
X-17091107Y-18827133D01*
X-17071402Y-18841747D01*
X-17053223Y-18858223D01*
X-17036747Y-18876402D01*
X-17022133Y-18896107D01*
X-17009520Y-18917151D01*
X-16999030Y-18939329D01*
X-16990765Y-18962429D01*
X-16984804Y-18986227D01*
X-16981204Y-19010496D01*
X-16980000Y-19035000D01*
X-16980000Y-22035000D01*
X-16981204Y-22059504D01*
X-16984804Y-22083773D01*
X-16990765Y-22107571D01*
X-16999030Y-22130671D01*
X-17009520Y-22152849D01*
X-17022133Y-22173893D01*
X-17036747Y-22193598D01*
X-17053223Y-22211777D01*
X-17071402Y-22228253D01*
X-17091107Y-22242867D01*
X-17112151Y-22255480D01*
X-17134329Y-22265970D01*
X-17157429Y-22274235D01*
X-17181227Y-22280196D01*
X-17205496Y-22283796D01*
X-17230000Y-22285000D01*
X-18330000Y-22285000D01*
X-18354504Y-22283796D01*
X-18378773Y-22280196D01*
X-18402571Y-22274235D01*
X-18425671Y-22265970D01*
X-18447849Y-22255480D01*
X-18468893Y-22242867D01*
X-18488598Y-22228253D01*
X-18506777Y-22211777D01*
X-18523253Y-22193598D01*
X-18537867Y-22173893D01*
X-18550480Y-22152849D01*
X-18560970Y-22130671D01*
X-18569235Y-22107571D01*
X-18575196Y-22083773D01*
X-18578796Y-22059504D01*
X-18580000Y-22035000D01*
X-18580000Y-19035000D01*
X-18578796Y-19010496D01*
X-18575196Y-18986227D01*
X-18569235Y-18962429D01*
X-18560970Y-18939329D01*
X-18550480Y-18917151D01*
X-18537867Y-18896107D01*
X-18523253Y-18876402D01*
X-18506777Y-18858223D01*
X-18488598Y-18841747D01*
X-18468893Y-18827133D01*
X-18447849Y-18814520D01*
X-18425671Y-18804030D01*
X-18402571Y-18795765D01*
X-18378773Y-18789804D01*
X-18354504Y-18786204D01*
X-18330000Y-18785000D01*
X-17230000Y-18785000D01*
X-17205496Y-18786204D01*
G37*
G36*
X16014504Y32708796D02*
G01*
X16038773Y32705196D01*
X16062571Y32699235D01*
X16085671Y32690970D01*
X16107849Y32680480D01*
X16128893Y32667867D01*
X16148598Y32653253D01*
X16166777Y32636777D01*
X16183253Y32618598D01*
X16197867Y32598893D01*
X16210480Y32577849D01*
X16220970Y32555671D01*
X16229235Y32532571D01*
X16235196Y32508773D01*
X16238796Y32484504D01*
X16240000Y32460000D01*
X16240000Y31360000D01*
X16238796Y31335496D01*
X16235196Y31311227D01*
X16229235Y31287429D01*
X16220970Y31264329D01*
X16210480Y31242151D01*
X16197867Y31221107D01*
X16183253Y31201402D01*
X16166777Y31183223D01*
X16148598Y31166747D01*
X16128893Y31152133D01*
X16107849Y31139520D01*
X16085671Y31129030D01*
X16062571Y31120765D01*
X16038773Y31114804D01*
X16014504Y31111204D01*
X15990000Y31110000D01*
X12990000Y31110000D01*
X12965496Y31111204D01*
X12941227Y31114804D01*
X12917429Y31120765D01*
X12894329Y31129030D01*
X12872151Y31139520D01*
X12851107Y31152133D01*
X12831402Y31166747D01*
X12813223Y31183223D01*
X12796747Y31201402D01*
X12782133Y31221107D01*
X12769520Y31242151D01*
X12759030Y31264329D01*
X12750765Y31287429D01*
X12744804Y31311227D01*
X12741204Y31335496D01*
X12740000Y31360000D01*
X12740000Y32460000D01*
X12741204Y32484504D01*
X12744804Y32508773D01*
X12750765Y32532571D01*
X12759030Y32555671D01*
X12769520Y32577849D01*
X12782133Y32598893D01*
X12796747Y32618598D01*
X12813223Y32636777D01*
X12831402Y32653253D01*
X12851107Y32667867D01*
X12872151Y32680480D01*
X12894329Y32690970D01*
X12917429Y32699235D01*
X12941227Y32705196D01*
X12965496Y32708796D01*
X12990000Y32710000D01*
X15990000Y32710000D01*
X16014504Y32708796D01*
G37*
G36*
X10414504Y32708796D02*
G01*
X10438773Y32705196D01*
X10462571Y32699235D01*
X10485671Y32690970D01*
X10507849Y32680480D01*
X10528893Y32667867D01*
X10548598Y32653253D01*
X10566777Y32636777D01*
X10583253Y32618598D01*
X10597867Y32598893D01*
X10610480Y32577849D01*
X10620970Y32555671D01*
X10629235Y32532571D01*
X10635196Y32508773D01*
X10638796Y32484504D01*
X10640000Y32460000D01*
X10640000Y31360000D01*
X10638796Y31335496D01*
X10635196Y31311227D01*
X10629235Y31287429D01*
X10620970Y31264329D01*
X10610480Y31242151D01*
X10597867Y31221107D01*
X10583253Y31201402D01*
X10566777Y31183223D01*
X10548598Y31166747D01*
X10528893Y31152133D01*
X10507849Y31139520D01*
X10485671Y31129030D01*
X10462571Y31120765D01*
X10438773Y31114804D01*
X10414504Y31111204D01*
X10390000Y31110000D01*
X7390000Y31110000D01*
X7365496Y31111204D01*
X7341227Y31114804D01*
X7317429Y31120765D01*
X7294329Y31129030D01*
X7272151Y31139520D01*
X7251107Y31152133D01*
X7231402Y31166747D01*
X7213223Y31183223D01*
X7196747Y31201402D01*
X7182133Y31221107D01*
X7169520Y31242151D01*
X7159030Y31264329D01*
X7150765Y31287429D01*
X7144804Y31311227D01*
X7141204Y31335496D01*
X7140000Y31360000D01*
X7140000Y32460000D01*
X7141204Y32484504D01*
X7144804Y32508773D01*
X7150765Y32532571D01*
X7159030Y32555671D01*
X7169520Y32577849D01*
X7182133Y32598893D01*
X7196747Y32618598D01*
X7213223Y32636777D01*
X7231402Y32653253D01*
X7251107Y32667867D01*
X7272151Y32680480D01*
X7294329Y32690970D01*
X7317429Y32699235D01*
X7341227Y32705196D01*
X7365496Y32708796D01*
X7390000Y32710000D01*
X10390000Y32710000D01*
X10414504Y32708796D01*
G37*
G36*
X-4940496Y9213796D02*
G01*
X-4916227Y9210196D01*
X-4892429Y9204235D01*
X-4869329Y9195970D01*
X-4847151Y9185480D01*
X-4826107Y9172867D01*
X-4806402Y9158253D01*
X-4788223Y9141777D01*
X-4771747Y9123598D01*
X-4757133Y9103893D01*
X-4744520Y9082849D01*
X-4734030Y9060671D01*
X-4725765Y9037571D01*
X-4719804Y9013773D01*
X-4716204Y8989504D01*
X-4715000Y8965000D01*
X-4715000Y7865000D01*
X-4716204Y7840496D01*
X-4719804Y7816227D01*
X-4725765Y7792429D01*
X-4734030Y7769329D01*
X-4744520Y7747151D01*
X-4757133Y7726107D01*
X-4771747Y7706402D01*
X-4788223Y7688223D01*
X-4806402Y7671747D01*
X-4826107Y7657133D01*
X-4847151Y7644520D01*
X-4869329Y7634030D01*
X-4892429Y7625765D01*
X-4916227Y7619804D01*
X-4940496Y7616204D01*
X-4965000Y7615000D01*
X-7965000Y7615000D01*
X-7989504Y7616204D01*
X-8013773Y7619804D01*
X-8037571Y7625765D01*
X-8060671Y7634030D01*
X-8082849Y7644520D01*
X-8103893Y7657133D01*
X-8123598Y7671747D01*
X-8141777Y7688223D01*
X-8158253Y7706402D01*
X-8172867Y7726107D01*
X-8185480Y7747151D01*
X-8195970Y7769329D01*
X-8204235Y7792429D01*
X-8210196Y7816227D01*
X-8213796Y7840496D01*
X-8215000Y7865000D01*
X-8215000Y8965000D01*
X-8213796Y8989504D01*
X-8210196Y9013773D01*
X-8204235Y9037571D01*
X-8195970Y9060671D01*
X-8185480Y9082849D01*
X-8172867Y9103893D01*
X-8158253Y9123598D01*
X-8141777Y9141777D01*
X-8123598Y9158253D01*
X-8103893Y9172867D01*
X-8082849Y9185480D01*
X-8060671Y9195970D01*
X-8037571Y9204235D01*
X-8013773Y9210196D01*
X-7989504Y9213796D01*
X-7965000Y9215000D01*
X-4965000Y9215000D01*
X-4940496Y9213796D01*
G37*
G36*
X-10540496Y9213796D02*
G01*
X-10516227Y9210196D01*
X-10492429Y9204235D01*
X-10469329Y9195970D01*
X-10447151Y9185480D01*
X-10426107Y9172867D01*
X-10406402Y9158253D01*
X-10388223Y9141777D01*
X-10371747Y9123598D01*
X-10357133Y9103893D01*
X-10344520Y9082849D01*
X-10334030Y9060671D01*
X-10325765Y9037571D01*
X-10319804Y9013773D01*
X-10316204Y8989504D01*
X-10315000Y8965000D01*
X-10315000Y7865000D01*
X-10316204Y7840496D01*
X-10319804Y7816227D01*
X-10325765Y7792429D01*
X-10334030Y7769329D01*
X-10344520Y7747151D01*
X-10357133Y7726107D01*
X-10371747Y7706402D01*
X-10388223Y7688223D01*
X-10406402Y7671747D01*
X-10426107Y7657133D01*
X-10447151Y7644520D01*
X-10469329Y7634030D01*
X-10492429Y7625765D01*
X-10516227Y7619804D01*
X-10540496Y7616204D01*
X-10565000Y7615000D01*
X-13565000Y7615000D01*
X-13589504Y7616204D01*
X-13613773Y7619804D01*
X-13637571Y7625765D01*
X-13660671Y7634030D01*
X-13682849Y7644520D01*
X-13703893Y7657133D01*
X-13723598Y7671747D01*
X-13741777Y7688223D01*
X-13758253Y7706402D01*
X-13772867Y7726107D01*
X-13785480Y7747151D01*
X-13795970Y7769329D01*
X-13804235Y7792429D01*
X-13810196Y7816227D01*
X-13813796Y7840496D01*
X-13815000Y7865000D01*
X-13815000Y8965000D01*
X-13813796Y8989504D01*
X-13810196Y9013773D01*
X-13804235Y9037571D01*
X-13795970Y9060671D01*
X-13785480Y9082849D01*
X-13772867Y9103893D01*
X-13758253Y9123598D01*
X-13741777Y9141777D01*
X-13723598Y9158253D01*
X-13703893Y9172867D01*
X-13682849Y9185480D01*
X-13660671Y9195970D01*
X-13637571Y9204235D01*
X-13613773Y9210196D01*
X-13589504Y9213796D01*
X-13565000Y9215000D01*
X-10565000Y9215000D01*
X-10540496Y9213796D01*
G37*
G36*
X16014504Y9213796D02*
G01*
X16038773Y9210196D01*
X16062571Y9204235D01*
X16085671Y9195970D01*
X16107849Y9185480D01*
X16128893Y9172867D01*
X16148598Y9158253D01*
X16166777Y9141777D01*
X16183253Y9123598D01*
X16197867Y9103893D01*
X16210480Y9082849D01*
X16220970Y9060671D01*
X16229235Y9037571D01*
X16235196Y9013773D01*
X16238796Y8989504D01*
X16240000Y8965000D01*
X16240000Y7865000D01*
X16238796Y7840496D01*
X16235196Y7816227D01*
X16229235Y7792429D01*
X16220970Y7769329D01*
X16210480Y7747151D01*
X16197867Y7726107D01*
X16183253Y7706402D01*
X16166777Y7688223D01*
X16148598Y7671747D01*
X16128893Y7657133D01*
X16107849Y7644520D01*
X16085671Y7634030D01*
X16062571Y7625765D01*
X16038773Y7619804D01*
X16014504Y7616204D01*
X15990000Y7615000D01*
X12990000Y7615000D01*
X12965496Y7616204D01*
X12941227Y7619804D01*
X12917429Y7625765D01*
X12894329Y7634030D01*
X12872151Y7644520D01*
X12851107Y7657133D01*
X12831402Y7671747D01*
X12813223Y7688223D01*
X12796747Y7706402D01*
X12782133Y7726107D01*
X12769520Y7747151D01*
X12759030Y7769329D01*
X12750765Y7792429D01*
X12744804Y7816227D01*
X12741204Y7840496D01*
X12740000Y7865000D01*
X12740000Y8965000D01*
X12741204Y8989504D01*
X12744804Y9013773D01*
X12750765Y9037571D01*
X12759030Y9060671D01*
X12769520Y9082849D01*
X12782133Y9103893D01*
X12796747Y9123598D01*
X12813223Y9141777D01*
X12831402Y9158253D01*
X12851107Y9172867D01*
X12872151Y9185480D01*
X12894329Y9195970D01*
X12917429Y9204235D01*
X12941227Y9210196D01*
X12965496Y9213796D01*
X12990000Y9215000D01*
X15990000Y9215000D01*
X16014504Y9213796D01*
G37*
G36*
X10414504Y9213796D02*
G01*
X10438773Y9210196D01*
X10462571Y9204235D01*
X10485671Y9195970D01*
X10507849Y9185480D01*
X10528893Y9172867D01*
X10548598Y9158253D01*
X10566777Y9141777D01*
X10583253Y9123598D01*
X10597867Y9103893D01*
X10610480Y9082849D01*
X10620970Y9060671D01*
X10629235Y9037571D01*
X10635196Y9013773D01*
X10638796Y8989504D01*
X10640000Y8965000D01*
X10640000Y7865000D01*
X10638796Y7840496D01*
X10635196Y7816227D01*
X10629235Y7792429D01*
X10620970Y7769329D01*
X10610480Y7747151D01*
X10597867Y7726107D01*
X10583253Y7706402D01*
X10566777Y7688223D01*
X10548598Y7671747D01*
X10528893Y7657133D01*
X10507849Y7644520D01*
X10485671Y7634030D01*
X10462571Y7625765D01*
X10438773Y7619804D01*
X10414504Y7616204D01*
X10390000Y7615000D01*
X7390000Y7615000D01*
X7365496Y7616204D01*
X7341227Y7619804D01*
X7317429Y7625765D01*
X7294329Y7634030D01*
X7272151Y7644520D01*
X7251107Y7657133D01*
X7231402Y7671747D01*
X7213223Y7688223D01*
X7196747Y7706402D01*
X7182133Y7726107D01*
X7169520Y7747151D01*
X7159030Y7769329D01*
X7150765Y7792429D01*
X7144804Y7816227D01*
X7141204Y7840496D01*
X7140000Y7865000D01*
X7140000Y8965000D01*
X7141204Y8989504D01*
X7144804Y9013773D01*
X7150765Y9037571D01*
X7159030Y9060671D01*
X7169520Y9082849D01*
X7182133Y9103893D01*
X7196747Y9123598D01*
X7213223Y9141777D01*
X7231402Y9158253D01*
X7251107Y9172867D01*
X7272151Y9185480D01*
X7294329Y9195970D01*
X7317429Y9204235D01*
X7341227Y9210196D01*
X7365496Y9213796D01*
X7390000Y9215000D01*
X10390000Y9215000D01*
X10414504Y9213796D01*
G37*
G36*
X-5200496Y32708796D02*
G01*
X-5176227Y32705196D01*
X-5152429Y32699235D01*
X-5129329Y32690970D01*
X-5107151Y32680480D01*
X-5086107Y32667867D01*
X-5066402Y32653253D01*
X-5048223Y32636777D01*
X-5031747Y32618598D01*
X-5017133Y32598893D01*
X-5004520Y32577849D01*
X-4994030Y32555671D01*
X-4985765Y32532571D01*
X-4979804Y32508773D01*
X-4976204Y32484504D01*
X-4975000Y32460000D01*
X-4975000Y31360000D01*
X-4976204Y31335496D01*
X-4979804Y31311227D01*
X-4985765Y31287429D01*
X-4994030Y31264329D01*
X-5004520Y31242151D01*
X-5017133Y31221107D01*
X-5031747Y31201402D01*
X-5048223Y31183223D01*
X-5066402Y31166747D01*
X-5086107Y31152133D01*
X-5107151Y31139520D01*
X-5129329Y31129030D01*
X-5152429Y31120765D01*
X-5176227Y31114804D01*
X-5200496Y31111204D01*
X-5225000Y31110000D01*
X-8225000Y31110000D01*
X-8249504Y31111204D01*
X-8273773Y31114804D01*
X-8297571Y31120765D01*
X-8320671Y31129030D01*
X-8342849Y31139520D01*
X-8363893Y31152133D01*
X-8383598Y31166747D01*
X-8401777Y31183223D01*
X-8418253Y31201402D01*
X-8432867Y31221107D01*
X-8445480Y31242151D01*
X-8455970Y31264329D01*
X-8464235Y31287429D01*
X-8470196Y31311227D01*
X-8473796Y31335496D01*
X-8475000Y31360000D01*
X-8475000Y32460000D01*
X-8473796Y32484504D01*
X-8470196Y32508773D01*
X-8464235Y32532571D01*
X-8455970Y32555671D01*
X-8445480Y32577849D01*
X-8432867Y32598893D01*
X-8418253Y32618598D01*
X-8401777Y32636777D01*
X-8383598Y32653253D01*
X-8363893Y32667867D01*
X-8342849Y32680480D01*
X-8320671Y32690970D01*
X-8297571Y32699235D01*
X-8273773Y32705196D01*
X-8249504Y32708796D01*
X-8225000Y32710000D01*
X-5225000Y32710000D01*
X-5200496Y32708796D01*
G37*
G36*
X-10800496Y32708796D02*
G01*
X-10776227Y32705196D01*
X-10752429Y32699235D01*
X-10729329Y32690970D01*
X-10707151Y32680480D01*
X-10686107Y32667867D01*
X-10666402Y32653253D01*
X-10648223Y32636777D01*
X-10631747Y32618598D01*
X-10617133Y32598893D01*
X-10604520Y32577849D01*
X-10594030Y32555671D01*
X-10585765Y32532571D01*
X-10579804Y32508773D01*
X-10576204Y32484504D01*
X-10575000Y32460000D01*
X-10575000Y31360000D01*
X-10576204Y31335496D01*
X-10579804Y31311227D01*
X-10585765Y31287429D01*
X-10594030Y31264329D01*
X-10604520Y31242151D01*
X-10617133Y31221107D01*
X-10631747Y31201402D01*
X-10648223Y31183223D01*
X-10666402Y31166747D01*
X-10686107Y31152133D01*
X-10707151Y31139520D01*
X-10729329Y31129030D01*
X-10752429Y31120765D01*
X-10776227Y31114804D01*
X-10800496Y31111204D01*
X-10825000Y31110000D01*
X-13825000Y31110000D01*
X-13849504Y31111204D01*
X-13873773Y31114804D01*
X-13897571Y31120765D01*
X-13920671Y31129030D01*
X-13942849Y31139520D01*
X-13963893Y31152133D01*
X-13983598Y31166747D01*
X-14001777Y31183223D01*
X-14018253Y31201402D01*
X-14032867Y31221107D01*
X-14045480Y31242151D01*
X-14055970Y31264329D01*
X-14064235Y31287429D01*
X-14070196Y31311227D01*
X-14073796Y31335496D01*
X-14075000Y31360000D01*
X-14075000Y32460000D01*
X-14073796Y32484504D01*
X-14070196Y32508773D01*
X-14064235Y32532571D01*
X-14055970Y32555671D01*
X-14045480Y32577849D01*
X-14032867Y32598893D01*
X-14018253Y32618598D01*
X-14001777Y32636777D01*
X-13983598Y32653253D01*
X-13963893Y32667867D01*
X-13942849Y32680480D01*
X-13920671Y32690970D01*
X-13897571Y32699235D01*
X-13873773Y32705196D01*
X-13849504Y32708796D01*
X-13825000Y32710000D01*
X-10825000Y32710000D01*
X-10800496Y32708796D01*
G37*
M02*
